<svg xmlns="http://www.w3.org/2000/svg" height="453" preserveAspectRatio="none" style="width:1020px;height:453px" width="1020">
  <defs>
    <filter height="300%" id="a" width="300%" x="-1" y="-1">
      <feGaussianBlur result="blurOut" stdDeviation="2"/>
      <feColorMatrix in="blurOut" result="blurOut2" values="0 0 0 0 0 0 0 0 0 0 0 0 0 0 0 0 0 0 .4 0"/>
      <feOffset dx="4" dy="4" in="blurOut2" result="blurOut3"/>
      <feBlend in="SourceGraphic" in2="blurOut3"/>
    </filter>
  </defs>
  <path fill="#DDD" stroke="#a80036" d="M105 6h104v441.719H105z"/>
  <text font-family="sans-serif" font-size="13" font-weight="bold" lengthAdjust="spacingAndGlyphs" textLength="33" x="140.5" y="18.067">
    PISP
  </text>
  <path fill="#DDD" stroke="#a80036" d="M388 6h548v441.719H388z"/>
  <text font-family="sans-serif" font-size="13" font-weight="bold" lengthAdjust="spacingAndGlyphs" textLength="67" x="628.5" y="18.067">
    Mojaloop
  </text>
  <path fill="#DDD" stroke="#a80036" d="M938 6h76v441.719h-76z"/>
  <text font-family="sans-serif" font-size="13" font-weight="bold" lengthAdjust="spacingAndGlyphs" textLength="54" x="949" y="18.067">
    DFSP A
  </text>
  <path stroke="#a80036" d="M157 76.727V342.32"/>
  <path stroke="#a80036" stroke-dasharray="1,4" d="M157 342.32v40.805"/>
  <path stroke="#a80036" d="M157 383.125v10M477 76.727V342.32"/>
  <path stroke="#a80036" stroke-dasharray="1,4" d="M477 342.32v40.805"/>
  <path stroke="#a80036" d="M477 383.125v10M840 76.727V342.32"/>
  <path stroke="#a80036" stroke-dasharray="1,4" d="M840 342.32v40.805"/>
  <path stroke="#a80036" d="M840 383.125v10M976 76.727V342.32"/>
  <path stroke="#a80036" stroke-dasharray="1,4" d="M976 342.32v40.805"/>
  <path stroke="#a80036" d="M976 383.125v10"/>
  <path fill="#FEFECE" filter="url(#a)" stroke="#a80036" stroke-width="1.5" d="M109 41.43h92v30.297h-92z"/>
  <text font-family="sans-serif" font-size="14" lengthAdjust="spacingAndGlyphs" textLength="78" x="116" y="61.425">
    PISP Server
  </text>
  <path fill="#FEFECE" filter="url(#a)" stroke="#a80036" stroke-width="1.5" d="M109 392.125h92v30.297h-92z"/>
  <text font-family="sans-serif" font-size="14" lengthAdjust="spacingAndGlyphs" textLength="78" x="116" y="412.12">
    PISP Server
  </text>
  <path fill="#FEFECE" filter="url(#a)" stroke="#a80036" stroke-width="1.5" d="M392 41.43h166v30.297H392z"/>
  <text font-family="sans-serif" font-size="14" lengthAdjust="spacingAndGlyphs" textLength="152" x="399" y="61.425">
    Thirdparty API Adapter
  </text>
  <path fill="#FEFECE" filter="url(#a)" stroke="#a80036" stroke-width="1.5" d="M392 392.125h166v30.297H392z"/>
  <text font-family="sans-serif" font-size="14" lengthAdjust="spacingAndGlyphs" textLength="152" x="399" y="412.12">
    Thirdparty API Adapter
  </text>
  <path fill="#FEFECE" filter="url(#a)" stroke="#a80036" stroke-width="1.5" d="M748 41.43h180v30.297H748z"/>
  <text font-family="sans-serif" font-size="14" lengthAdjust="spacingAndGlyphs" textLength="166" x="755" y="61.425">
    Central Event Processor
  </text>
  <path fill="#FEFECE" filter="url(#a)" stroke="#a80036" stroke-width="1.5" d="M748 392.125h180v30.297H748z"/>
  <text font-family="sans-serif" font-size="14" lengthAdjust="spacingAndGlyphs" textLength="166" x="755" y="412.12">
    Central Event Processor
  </text>
  <path fill="#FEFECE" filter="url(#a)" stroke="#a80036" stroke-width="1.5" d="M942 25.133h64v46.594h-64z"/>
  <text font-family="sans-serif" font-size="14" lengthAdjust="spacingAndGlyphs" textLength="50" x="949" y="45.128">
    DFSP A
  </text>
  <text font-family="sans-serif" font-size="14" lengthAdjust="spacingAndGlyphs" textLength="48" x="950" y="61.425">
    (Payer)
  </text>
  <path fill="#FEFECE" filter="url(#a)" stroke="#a80036" stroke-width="1.5" d="M942 392.125h64v46.594h-64z"/>
  <text font-family="sans-serif" font-size="14" lengthAdjust="spacingAndGlyphs" textLength="50" x="949" y="412.12">
    DFSP A
  </text>
  <text font-family="sans-serif" font-size="14" lengthAdjust="spacingAndGlyphs" textLength="48" x="950" y="428.417">
    (Payer)
  </text>
  <path fill="#FFF" filter="url(#a)" stroke="#a80036" d="M5 91.727h304v113H5z"/>
  <text font-family="monospace" font-size="13" font-weight="bold" lengthAdjust="spacingAndGlyphs" textLength="296" x="9" y="107.793">
    POST /thirdpartyRequests/transactions
  </text>
  <text font-family="monospace" font-size="13" lengthAdjust="spacingAndGlyphs" textLength="160" x="9" y="122.926">
    FSPIOP-Source: pispa
  </text>
  <text font-family="monospace" font-size="13" lengthAdjust="spacingAndGlyphs" textLength="200" x="9" y="138.059">
    FSPIOP-Destination: dfspa
  </text>
  <text font-family="sans-serif" font-size="13" lengthAdjust="spacingAndGlyphs" textLength="8" x="9" y="153.192">
    {
  </text>
  <text font-family="sans-serif" font-size="13" lengthAdjust="spacingAndGlyphs" textLength="189" x="25" y="168.325">
    transactionRequestId: &quot;1234&quot;,
  </text>
  <text font-family="sans-serif" font-size="13" lengthAdjust="spacingAndGlyphs" textLength="12" x="25" y="183.458">
    ...
  </text>
  <text font-family="sans-serif" font-size="13" lengthAdjust="spacingAndGlyphs" textLength="8" x="9" y="198.59">
    }
  </text>
  <path fill="#A80036" stroke="#a80036" d="M465 227.79l10 4-10 4 4-4z"/>
  <path stroke="#a80036" d="M157 231.789h314"/>
  <text font-family="monospace" font-size="13" lengthAdjust="spacingAndGlyphs" textLength="296" x="164" y="226.723">
    POST /thirdpartyRequests/transactions
  </text>
  <path fill="#A80036" stroke="#a80036" d="M828 272.055l10 4-10 4 4-4z"/>
  <path stroke="#a80036" d="M477 276.055h357"/>
  <text font-family="sans-serif" font-size="13" lengthAdjust="spacingAndGlyphs" textLength="154" x="484" y="255.856">
    Please start listening for
  </text>
  <text font-family="sans-serif" font-size="13" lengthAdjust="spacingAndGlyphs" textLength="299" x="488" y="270.989">
    *things* related to the transactionRequestId of
  </text>
  <text font-family="monospace" font-size="13" lengthAdjust="spacingAndGlyphs" textLength="32" x="791" y="270.989">
    1234
  </text>
  <path fill="#A80036" stroke="#a80036" d="M168 301.188l-10 4 10 4-4-4z"/>
  <path stroke="#a80036" stroke-dasharray="2,2" d="M162 305.188h314"/>
  <text font-family="monospace" font-size="13" lengthAdjust="spacingAndGlyphs" textLength="96" x="174" y="300.122">
    202 Accepted
  </text>
  <path fill="#A80036" stroke="#a80036" d="M964 330.32l10 4-10 4 4-4z"/>
  <path stroke="#a80036" d="M477 334.32h493"/>
  <text font-family="monospace" font-size="13" lengthAdjust="spacingAndGlyphs" textLength="296" x="484" y="329.254">
    POST /thirdpartyRequests/transactions
  </text>
  <text font-family="sans-serif" font-size="11" font-weight="bold" lengthAdjust="spacingAndGlyphs" textLength="216" x="458.5" y="366.531">
    Transaction initiation takes place
  </text>
</svg>
