<svg xmlns="http://www.w3.org/2000/svg" height="612" preserveAspectRatio="none" style="width:1007px;height:612px" width="1007">
  <defs>
    <filter height="300%" id="a" width="300%" x="-1" y="-1">
      <feGaussianBlur result="blurOut" stdDeviation="2"/>
      <feColorMatrix in="blurOut" result="blurOut2" values="0 0 0 0 0 0 0 0 0 0 0 0 0 0 0 0 0 0 .4 0"/>
      <feOffset dx="4" dy="4" in="blurOut2" result="blurOut3"/>
      <feBlend in="SourceGraphic" in2="blurOut3"/>
    </filter>
  </defs>
  <path fill="#DDD" stroke="#a80036" d="M1 6h104v600.516H1z"/>
  <text font-family="sans-serif" font-size="13" font-weight="bold" lengthAdjust="spacingAndGlyphs" textLength="33" x="36.5" y="18.067">
    PISP
  </text>
  <path fill="#DDD" stroke="#a80036" d="M148 6h553v600.516H148z"/>
  <text font-family="sans-serif" font-size="13" font-weight="bold" lengthAdjust="spacingAndGlyphs" textLength="67" x="391" y="18.067">
    Mojaloop
  </text>
  <path fill="#DDD" stroke="#a80036" d="M854 6h76v600.516h-76z"/>
  <text font-family="sans-serif" font-size="13" font-weight="bold" lengthAdjust="spacingAndGlyphs" textLength="54" x="865" y="18.067">
    DFSP A
  </text>
  <path stroke="#a80036" d="M53 76.727v424.39"/>
  <path stroke="#a80036" stroke-dasharray="1,4" d="M53 501.117v40.805"/>
  <path stroke="#a80036" d="M53 541.922v10M237 76.727v424.39"/>
  <path stroke="#a80036" stroke-dasharray="1,4" d="M237 501.117v40.805"/>
  <path stroke="#a80036" d="M237 541.922v10M605 76.727v424.39"/>
  <path stroke="#a80036" stroke-dasharray="1,4" d="M605 501.117v40.805"/>
  <path stroke="#a80036" d="M605 541.922v10M892 76.727v424.39"/>
  <path stroke="#a80036" stroke-dasharray="1,4" d="M892 501.117v40.805"/>
  <path stroke="#a80036" d="M892 541.922v10"/>
  <path fill="#FEFECE" filter="url(#a)" stroke="#a80036" stroke-width="1.5" d="M5 41.43h92v30.297H5z"/>
  <text font-family="sans-serif" font-size="14" lengthAdjust="spacingAndGlyphs" textLength="78" x="12" y="61.425">
    PISP Server
  </text>
  <path fill="#FEFECE" filter="url(#a)" stroke="#a80036" stroke-width="1.5" d="M5 550.922h92v30.297H5z"/>
  <text font-family="sans-serif" font-size="14" lengthAdjust="spacingAndGlyphs" textLength="78" x="12" y="570.917">
    PISP Server
  </text>
  <path fill="#FEFECE" filter="url(#a)" stroke="#a80036" stroke-width="1.5" d="M152 41.43h166v30.297H152z"/>
  <text font-family="sans-serif" font-size="14" lengthAdjust="spacingAndGlyphs" textLength="152" x="159" y="61.425">
    Thirdparty API Adapter
  </text>
  <path fill="#FEFECE" filter="url(#a)" stroke="#a80036" stroke-width="1.5" d="M152 550.922h166v30.297H152z"/>
  <text font-family="sans-serif" font-size="14" lengthAdjust="spacingAndGlyphs" textLength="152" x="159" y="570.917">
    Thirdparty API Adapter
  </text>
  <path fill="#FEFECE" filter="url(#a)" stroke="#a80036" stroke-width="1.5" d="M513 41.43h180v30.297H513z"/>
  <text font-family="sans-serif" font-size="14" lengthAdjust="spacingAndGlyphs" textLength="166" x="520" y="61.425">
    Central Event Processor
  </text>
  <path fill="#FEFECE" filter="url(#a)" stroke="#a80036" stroke-width="1.5" d="M513 550.922h180v30.297H513z"/>
  <text font-family="sans-serif" font-size="14" lengthAdjust="spacingAndGlyphs" textLength="166" x="520" y="570.917">
    Central Event Processor
  </text>
  <path fill="#FEFECE" filter="url(#a)" stroke="#a80036" stroke-width="1.5" d="M858 25.133h64v46.594h-64z"/>
  <text font-family="sans-serif" font-size="14" lengthAdjust="spacingAndGlyphs" textLength="50" x="865" y="45.128">
    DFSP A
  </text>
  <text font-family="sans-serif" font-size="14" lengthAdjust="spacingAndGlyphs" textLength="48" x="866" y="61.425">
    (Payer)
  </text>
  <path fill="#FEFECE" filter="url(#a)" stroke="#a80036" stroke-width="1.5" d="M858 550.922h64v46.594h-64z"/>
  <text font-family="sans-serif" font-size="14" lengthAdjust="spacingAndGlyphs" textLength="50" x="865" y="570.917">
    DFSP A
  </text>
  <text font-family="sans-serif" font-size="14" lengthAdjust="spacingAndGlyphs" textLength="48" x="866" y="587.214">
    (Payer)
  </text>
  <path fill="#FFF" filter="url(#a)" stroke="#a80036" d="M785 91.727h213v129H785z"/>
  <text font-family="monospace" font-size="13" font-weight="bold" lengthAdjust="spacingAndGlyphs" textLength="160" x="789" y="107.793">
    POST /authorizations
  </text>
  <text font-family="monospace" font-size="13" lengthAdjust="spacingAndGlyphs" textLength="160" x="789" y="122.926">
    FSPIOP-Source: pispa
  </text>
  <text font-family="monospace" font-size="13" lengthAdjust="spacingAndGlyphs" textLength="200" x="789" y="138.059">
    FSPIOP-Destination: dfspa
  </text>
  <text font-family="sans-serif" font-size="13" lengthAdjust="spacingAndGlyphs" textLength="8" x="789" y="153.192">
    {
  </text>
  <text font-family="sans-serif" font-size="13" lengthAdjust="spacingAndGlyphs" textLength="189" x="805" y="168.325">
    transactionRequestId: &quot;1234&quot;,
  </text>
  <text font-family="sans-serif" font-size="13" lengthAdjust="spacingAndGlyphs" textLength="37" x="805" y="183.458">
    quote
  </text>
  <text font-family="sans-serif" font-size="13" lengthAdjust="spacingAndGlyphs" textLength="12" x="805" y="198.59">
    ...
  </text>
  <text font-family="sans-serif" font-size="13" lengthAdjust="spacingAndGlyphs" textLength="8" x="789" y="213.723">
    }
  </text>
  <path fill="#A80036" stroke="#a80036" d="M248 242.922l-10 4 10 4-4-4z"/>
  <path stroke="#a80036" d="M242 246.922h649"/>
  <text font-family="monospace" font-size="13" lengthAdjust="spacingAndGlyphs" textLength="160" x="254" y="241.856">
    POST /authorizations
  </text>
  <path fill="#A80036" stroke="#a80036" d="M593 272.055l10 4-10 4 4-4z"/>
  <path stroke="#a80036" d="M237 276.055h362"/>
  <text font-family="sans-serif" font-size="13" lengthAdjust="spacingAndGlyphs" textLength="344" x="244" y="270.989">
    Here&apos;s an event... not sure if it means anything to you
  </text>
  <path fill="#A80036" stroke="#a80036" d="M880 301.188l10 4-10 4 4-4z"/>
  <path stroke="#a80036" stroke-dasharray="2,2" d="M237 305.188h649"/>
  <text font-family="monospace" font-size="13" lengthAdjust="spacingAndGlyphs" textLength="96" x="244" y="300.122">
    202 Accepted
  </text>
  <path fill="#A80036" stroke="#a80036" d="M64 330.32l-10 4 10 4-4-4z"/>
  <path stroke="#a80036" d="M58 334.32h178"/>
  <text font-family="monospace" font-size="13" lengthAdjust="spacingAndGlyphs" textLength="160" x="70" y="329.254">
    POST /authorizations
  </text>
  <path fill="#A80036" stroke="#a80036" d="M225 359.453l10 4-10 4 4-4z"/>
  <path stroke="#a80036" stroke-dasharray="2,2" d="M53 363.453h178"/>
  <text font-family="monospace" font-size="13" lengthAdjust="spacingAndGlyphs" textLength="96" x="60" y="358.387">
    202 Accepted
  </text>
  <path stroke="#a80036" d="M605 422.852h42M647 422.852v13M606 435.852h41"/>
  <path fill="#A80036" stroke="#a80036" d="M616 431.852l-10 4 10 4-4-4z"/>
  <text font-family="sans-serif" font-size="13" lengthAdjust="spacingAndGlyphs" textLength="187" x="612" y="387.52">
    That event was related to the
  </text>
  <text font-family="sans-serif" font-size="13" lengthAdjust="spacingAndGlyphs" textLength="151" x="612" y="402.653">
    transactionRequestId of
  </text>
  <text font-family="monospace" font-size="13" lengthAdjust="spacingAndGlyphs" textLength="32" x="767" y="402.653">
    1234
  </text>
  <text font-family="sans-serif" font-size="13" lengthAdjust="spacingAndGlyphs" textLength="126" x="612" y="417.786">
    let&apos;s save it for later
  </text>
  <path stroke="#a80036" d="M605 480.117h42M647 480.117v13M606 493.117h41"/>
  <path fill="#A80036" stroke="#a80036" d="M616 489.117l-10 4 10 4-4-4z"/>
  <text font-family="sans-serif" font-size="13" lengthAdjust="spacingAndGlyphs" textLength="237" x="612" y="459.918">
    It had a quote with a transactionId of
  </text>
  <text font-family="monospace" font-size="13" lengthAdjust="spacingAndGlyphs" textLength="32" x="853" y="459.918">
    5678
  </text>
  <text font-family="sans-serif" font-size="13" lengthAdjust="spacingAndGlyphs" textLength="224" x="612" y="475.051">
    let&apos;s now listen for transactionIds of
  </text>
  <text font-family="monospace" font-size="13" lengthAdjust="spacingAndGlyphs" textLength="32" x="840" y="475.051">
    5678
  </text>
  <text font-family="sans-serif" font-size="11" font-weight="bold" lengthAdjust="spacingAndGlyphs" textLength="385" x="225.5" y="525.328">
    User signs the authorization, DFSPA verifies it, and issues a
  </text>
  <text font-family="monospace" font-size="11" font-weight="bold" lengthAdjust="spacingAndGlyphs" textLength="105" x="614.5" y="525.328">
    POST /transfers
  </text>
</svg>
