<svg xmlns="http://www.w3.org/2000/svg" height="687" preserveAspectRatio="none" style="width:1022px;height:687px" width="1022">
  <defs>
    <filter height="300%" id="a" width="300%" x="-1" y="-1">
      <feGaussianBlur result="blurOut" stdDeviation="2"/>
      <feColorMatrix in="blurOut" result="blurOut2" values="0 0 0 0 0 0 0 0 0 0 0 0 0 0 0 0 0 0 .4 0"/>
      <feOffset dx="4" dy="4" in="blurOut2" result="blurOut3"/>
      <feBlend in="SourceGraphic" in2="blurOut3"/>
    </filter>
  </defs>
  <circle cx="170.888" cy="16" filter="url(#a)" r="10"/>
  <rect fill="#FEFECE" filter="url(#a)" height="64.234" rx="12.5" ry="12.5" width="160" x="90.888" y="103" stroke="#a80036" stroke-width="1.5"/>
  <path stroke="#a80036" stroke-width="1.5" d="M90.888 129.297h160"/>
  <text font-family="sans-serif" font-size="14" lengthAdjust="spacingAndGlyphs" textLength="95" x="123.388" y="120.995">
    txReqCreated
  </text>
  <text font-family="sans-serif" font-size="12" lengthAdjust="spacingAndGlyphs" textLength="61" x="95.888" y="145.435">
    Listeners:
  </text>
  <text font-family="monospace" font-size="12" lengthAdjust="spacingAndGlyphs" textLength="140" x="95.888" y="159.404">
    transactionRequestId
  </text>
  <rect fill="#FEFECE" filter="url(#a)" height="40" rx="12.5" ry="12.5" width="90" x="658.888" y="263" stroke="#a80036" stroke-width="1.5"/>
  <text font-family="sans-serif" font-size="14" lengthAdjust="spacingAndGlyphs" textLength="80" x="663.888" y="287.847">
    txReqFailed
  </text>
  <rect fill="#FEFECE" filter="url(#a)" height="78.203" rx="12.5" ry="12.5" width="160" x="90.888" y="244" stroke="#a80036" stroke-width="1.5"/>
  <path stroke="#a80036" stroke-width="1.5" d="M90.888 270.297h160"/>
  <text font-family="sans-serif" font-size="14" lengthAdjust="spacingAndGlyphs" textLength="81" x="130.388" y="261.995">
    authWaiting
  </text>
  <text font-family="sans-serif" font-size="12" lengthAdjust="spacingAndGlyphs" textLength="61" x="95.888" y="286.435">
    Listeners:
  </text>
  <text font-family="monospace" font-size="12" lengthAdjust="spacingAndGlyphs" textLength="140" x="95.888" y="300.404">
    transactionRequestId
  </text>
  <text font-family="monospace" font-size="12" lengthAdjust="spacingAndGlyphs" textLength="91" x="95.888" y="314.373">
    transactionId
  </text>
  <rect fill="#FEFECE" filter="url(#a)" height="40" rx="12.5" ry="12.5" width="81" x="927.388" y="263" stroke="#a80036" stroke-width="1.5"/>
  <text font-family="sans-serif" font-size="14" lengthAdjust="spacingAndGlyphs" textLength="71" x="932.388" y="287.847">
    authFailed
  </text>
  <rect fill="#FEFECE" filter="url(#a)" height="78.203" rx="12.5" ry="12.5" width="160" x="90.888" y="399" stroke="#a80036" stroke-width="1.5"/>
  <path stroke="#a80036" stroke-width="1.5" d="M90.888 425.297h160"/>
  <text font-family="sans-serif" font-size="14" lengthAdjust="spacingAndGlyphs" textLength="103" x="119.388" y="416.995">
    transferWaiting
  </text>
  <text font-family="sans-serif" font-size="12" lengthAdjust="spacingAndGlyphs" textLength="61" x="95.888" y="441.435">
    Listeners:
  </text>
  <text font-family="monospace" font-size="12" lengthAdjust="spacingAndGlyphs" textLength="140" x="95.888" y="455.404">
    transactionRequestId
  </text>
  <text font-family="monospace" font-size="12" lengthAdjust="spacingAndGlyphs" textLength="70" x="95.888" y="469.373">
    transferId
  </text>
  <rect fill="#FEFECE" filter="url(#a)" height="40" rx="12.5" ry="12.5" width="103" x="557.388" y="418" stroke="#a80036" stroke-width="1.5"/>
  <text font-family="sans-serif" font-size="14" lengthAdjust="spacingAndGlyphs" textLength="93" x="562.388" y="442.847">
    transferFailed
  </text>
  <rect fill="#FEFECE" filter="url(#a)" height="40" rx="12.5" ry="12.5" width="130" x="105.888" y="554" stroke="#a80036" stroke-width="1.5"/>
  <text font-family="sans-serif" font-size="14" lengthAdjust="spacingAndGlyphs" textLength="120" x="110.888" y="578.847">
    transferComplete
  </text>
  <circle cx="170.888" cy="665" fill="none" filter="url(#a)" stroke="#000" r="10"/>
  <circle cx="171.388" cy="665.5" r="6"/>
  <path d="M170.888 26.146v71.523" fill="none" stroke="#a80036"/>
  <path fill="#A80036" stroke="#a80036" d="M170.888 102.883l4-9-4 4-4-4 4 9z"/>
  <text font-family="sans-serif" font-size="13" font-weight="bold" lengthAdjust="spacingAndGlyphs" textLength="319" x="171.888" y="69.067">
    ThirdpartyTransactionRequest Subscription
  </text>
  <path d="M221.708 167.037c30.987 19.033 67.86 40.657 85.18 46.963 119.563 43.53 269.632 60.036 346.505 65.944" fill="none" stroke="#a80036"/>
  <path fill="#A80036" stroke="#a80036" d="M658.8 280.352l-8.674-4.665 3.688 4.289-4.29 3.688 9.276-3.312z"/>
  <text font-family="monospace" font-size="13" lengthAdjust="spacingAndGlyphs" textLength="368" x="307.888" y="210.067">
    PUT /thirdpartyRequests/transaction/{id}/error
  </text>
  <path d="M90.798 151.237C66.093 160.41 41.553 174.719 26.888 197 6 228.735 43.808 250.46 85.906 264.136" fill="none" stroke="#a80036"/>
  <path fill="#A80036" stroke="#a80036" d="M90.79 265.682l-7.374-6.53 2.607 5.02-5.02 2.608 9.787-1.098z"/>
  <text font-family="sans-serif" font-size="13" font-weight="bold" lengthAdjust="spacingAndGlyphs" textLength="235" x="27.888" y="210.067">
    ThirdpartyAuthorizationRequest
  </text>
  <path d="M250.972 283h402.532" fill="none" stroke="#a80036"/>
  <path fill="#A80036" stroke="#a80036" d="M658.65 283l-9-4 4 4-4 4 9-4z"/>
  <text font-family="monospace" font-size="13" lengthAdjust="spacingAndGlyphs" textLength="368" x="270.888" y="276.067">
    PUT /thirdpartyRequests/transaction/{id}/error
  </text>
  <path d="M251.23 267.825C352.231 249.588 531.144 220.06 685.888 209c26.82-1.917 218.904-13.77 242 0 17.62 10.505 27.947 31.762 33.679 48.808" fill="none" stroke="#a80036"/>
  <path fill="#A80036" stroke="#a80036" d="M963.201 262.946l1.084-9.789-2.6 5.025-5.024-2.6 6.54 7.364z"/>
  <text font-family="monospace" font-size="13" lengthAdjust="spacingAndGlyphs" textLength="240" x="686.888" y="210.067">
    PUT /authorizations/{id}/error
  </text>
  <path d="M170.888 322.113v71.741" fill="none" stroke="#a80036"/>
  <path fill="#A80036" stroke="#a80036" d="M170.888 398.9l4-9-4 4-4-4 4 9z"/>
  <text font-family="sans-serif" font-size="13" font-weight="bold" lengthAdjust="spacingAndGlyphs" textLength="215" x="171.888" y="365.067">
    Transfer Prepare Notification
  </text>
  <path d="M250.969 438h300.715" fill="none" stroke="#a80036"/>
  <path fill="#A80036" stroke="#a80036" d="M557.11 438l-9-4 4 4-4 4 9-4z"/>
  <text font-family="monospace" font-size="13" lengthAdjust="spacingAndGlyphs" textLength="184" x="312.138" y="416.067">
    PUT/transfer/{id}/error
  </text>
  <text font-family="sans-serif" font-size="13" lengthAdjust="spacingAndGlyphs" textLength="267" x="270.638" y="431.2">
    Timeout Notification, Rejected Notification
  </text>
  <path d="M170.888 477.337v71.13" fill="none" stroke="#a80036"/>
  <path fill="#A80036" stroke="#a80036" d="M170.888 553.628l4-9-4 4-4-4 4 9z"/>
  <text font-family="sans-serif" font-size="13" font-weight="bold" lengthAdjust="spacingAndGlyphs" textLength="192" x="171.888" y="520.067">
    Transfer Fulfil Notification
  </text>
  <path d="M170.888 594.196v55.56" fill="none" stroke="#a80036"/>
  <path fill="#A80036" stroke="#a80036" d="M170.888 654.968l4-9-4 4-4-4 4 9z"/>
</svg>
