<svg xmlns="http://www.w3.org/2000/svg" height="790" preserveAspectRatio="none" style="width:1268px;height:790px" width="1268">
  <defs>
    <filter height="300%" id="a" width="300%" x="-1" y="-1">
      <feGaussianBlur result="blurOut" stdDeviation="2"/>
      <feColorMatrix in="blurOut" result="blurOut2" values="0 0 0 0 0 0 0 0 0 0 0 0 0 0 0 0 0 0 .4 0"/>
      <feOffset dx="4" dy="4" in="blurOut2" result="blurOut3"/>
      <feBlend in="SourceGraphic" in2="blurOut3"/>
    </filter>
  </defs>
  <text font-family="sans-serif" font-size="18" lengthAdjust="spacingAndGlyphs" textLength="304" x="479.75" y="28.708">
    PISP Linking: Discovery error case
  </text>
  <path fill="#DDD" stroke="#a80036" d="M1 40.953h108v743.578H1z"/>
  <text font-family="sans-serif" font-size="13" font-weight="bold" lengthAdjust="spacingAndGlyphs" textLength="102" x="4" y="53.02">
    Mobile device
  </text>
  <path fill="#DDD" stroke="#a80036" d="M111 40.953h56v743.578h-56z"/>
  <text font-family="sans-serif" font-size="13" font-weight="bold" lengthAdjust="spacingAndGlyphs" textLength="33" x="122.5" y="53.02">
    PISP
  </text>
  <path fill="#DDD" stroke="#a80036" d="M648.5 40.953h73v743.578h-73z"/>
  <text font-family="sans-serif" font-size="13" font-weight="bold" lengthAdjust="spacingAndGlyphs" textLength="67" x="651.5" y="53.02">
    Mojaloop
  </text>
  <path fill="#FFF" filter="url(#a)" stroke="#a80036" d="M134 105.383h10v80.531h-10zM134 603.969h10v29.133h-10zM680 156.781h10v117.664h-10zM680 424.641h10v208.461h-10zM1226 245.313h10v208.461h-10z"/>
  <path stroke="#a80036" d="M54.5 95.383v545.719"/>
  <path stroke="#a80036" stroke-dasharray="1,4" d="M54.5 641.102v28"/>
  <path stroke="#a80036" d="M54.5 669.102v39.132"/>
  <path stroke="#a80036" stroke-dasharray="1,4" d="M54.5 708.234v28"/>
  <path stroke="#a80036" d="M54.5 736.234v10M139 95.383v545.719"/>
  <path stroke="#a80036" stroke-dasharray="1,4" d="M139 641.102v28"/>
  <path stroke="#a80036" d="M139 669.102v39.132"/>
  <path stroke="#a80036" stroke-dasharray="1,4" d="M139 708.234v28"/>
  <path stroke="#a80036" d="M139 736.234v10M684.5 95.383v545.719"/>
  <path stroke="#a80036" stroke-dasharray="1,4" d="M684.5 641.102v28"/>
  <path stroke="#a80036" d="M684.5 669.102v39.132"/>
  <path stroke="#a80036" stroke-dasharray="1,4" d="M684.5 708.234v28"/>
  <path stroke="#a80036" d="M684.5 736.234v10M1230.5 95.383v545.719"/>
  <path stroke="#a80036" stroke-dasharray="1,4" d="M1230.5 641.102v28"/>
  <path stroke="#a80036" d="M1230.5 669.102v39.132"/>
  <path stroke="#a80036" stroke-dasharray="1,4" d="M1230.5 708.234v28"/>
  <path stroke="#a80036" d="M1230.5 736.234v10"/>
  <path fill="#FEFECE" filter="url(#a)" stroke="#a80036" stroke-width="1.5" d="M32.5 60.086h41v30.297h-41z"/>
  <text font-family="sans-serif" font-size="14" lengthAdjust="spacingAndGlyphs" textLength="27" x="39.5" y="80.081">
    App
  </text>
  <path fill="#FEFECE" filter="url(#a)" stroke="#a80036" stroke-width="1.5" d="M32.5 745.234h41v30.297h-41z"/>
  <text font-family="sans-serif" font-size="14" lengthAdjust="spacingAndGlyphs" textLength="27" x="39.5" y="765.23">
    App
  </text>
  <path fill="#FEFECE" filter="url(#a)" stroke="#a80036" stroke-width="1.5" d="M115 60.086h44v30.297h-44z"/>
  <text font-family="sans-serif" font-size="14" lengthAdjust="spacingAndGlyphs" textLength="30" x="122" y="80.081">
    PISP
  </text>
  <path fill="#FEFECE" filter="url(#a)" stroke="#a80036" stroke-width="1.5" d="M115 745.234h44v30.297h-44z"/>
  <text font-family="sans-serif" font-size="14" lengthAdjust="spacingAndGlyphs" textLength="30" x="122" y="765.23">
    PISP
  </text>
  <path fill="#FEFECE" filter="url(#a)" stroke="#a80036" stroke-width="1.5" d="M653.5 60.086h59v30.297h-59z"/>
  <text font-family="sans-serif" font-size="14" lengthAdjust="spacingAndGlyphs" textLength="45" x="660.5" y="80.081">
    Switch
  </text>
  <path fill="#FEFECE" filter="url(#a)" stroke="#a80036" stroke-width="1.5" d="M653.5 745.234h59v30.297h-59z"/>
  <text font-family="sans-serif" font-size="14" lengthAdjust="spacingAndGlyphs" textLength="45" x="660.5" y="765.23">
    Switch
  </text>
  <path fill="#FEFECE" filter="url(#a)" stroke="#a80036" stroke-width="1.5" d="M1203.5 60.086h51v30.297h-51z"/>
  <text font-family="sans-serif" font-size="14" lengthAdjust="spacingAndGlyphs" textLength="37" x="1210.5" y="80.081">
    DFSP
  </text>
  <path fill="#FEFECE" filter="url(#a)" stroke="#a80036" stroke-width="1.5" d="M1203.5 745.234h51v30.297h-51z"/>
  <text font-family="sans-serif" font-size="14" lengthAdjust="spacingAndGlyphs" textLength="37" x="1210.5" y="765.23">
    DFSP
  </text>
  <path fill="#FFF" filter="url(#a)" stroke="#a80036" d="M134 105.383h10v80.531h-10zM134 603.969h10v29.133h-10zM680 156.781h10v117.664h-10zM680 424.641h10v208.461h-10zM1226 245.313h10v208.461h-10z"/>
  <path fill="#A80036" stroke="#a80036" d="M668 152.781l10 4-10 4 4-4z"/>
  <path stroke="#a80036" d="M144 156.781h530"/>
  <text font-family="sans-serif" font-size="13" font-weight="bold" lengthAdjust="spacingAndGlyphs" textLength="48" x="151" y="136.583">
    DISC-1
  </text>
  <text font-family="monospace" font-size="13" lengthAdjust="spacingAndGlyphs" textLength="208" x="203" y="121.45">
    GET /accounts/username1234
  </text>
  <text font-family="monospace" font-size="13" lengthAdjust="spacingAndGlyphs" textLength="152" x="227" y="136.583">
    FSIOP-Source: pispa
  </text>
  <text font-family="monospace" font-size="13" lengthAdjust="spacingAndGlyphs" textLength="192" x="227" y="151.715">
    FSIOP-Destination: dfspa
  </text>
  <path fill="#A80036" stroke="#a80036" d="M150 181.914l-10 4 10 4-4-4z"/>
  <path stroke="#a80036" stroke-dasharray="2,2" d="M144 185.914h535"/>
  <text font-family="sans-serif" font-size="13" font-weight="bold" lengthAdjust="spacingAndGlyphs" textLength="48" x="156" y="180.848">
    DISC-2
  </text>
  <text font-family="monospace" font-size="13" lengthAdjust="spacingAndGlyphs" textLength="96" x="208" y="180.848">
    202 Accepted
  </text>
  <path fill="#A80036" stroke="#a80036" d="M1214 241.313l10 4-10 4 4-4z"/>
  <path stroke="#a80036" d="M690 245.313h530"/>
  <text font-family="sans-serif" font-size="13" font-weight="bold" lengthAdjust="spacingAndGlyphs" textLength="48" x="697" y="225.114">
    DISC-3
  </text>
  <text font-family="monospace" font-size="13" lengthAdjust="spacingAndGlyphs" textLength="208" x="749" y="209.981">
    GET /accounts/username1234
  </text>
  <text font-family="monospace" font-size="13" lengthAdjust="spacingAndGlyphs" textLength="152" x="773" y="225.114">
    FSIOP-Source: pispa
  </text>
  <text font-family="monospace" font-size="13" lengthAdjust="spacingAndGlyphs" textLength="192" x="773" y="240.247">
    FSIOP-Destination: dfspa
  </text>
  <path fill="#A80036" stroke="#a80036" d="M696 270.445l-10 4 10 4-4-4z"/>
  <path stroke="#a80036" stroke-dasharray="2,2" d="M690 274.445h535"/>
  <text font-family="sans-serif" font-size="13" font-weight="bold" lengthAdjust="spacingAndGlyphs" textLength="48" x="702" y="269.379">
    DISC-4
  </text>
  <text font-family="monospace" font-size="13" lengthAdjust="spacingAndGlyphs" textLength="96" x="754" y="269.379">
    202 Accepted
  </text>
  <path fill="#A80036" stroke="#a80036" d="M701 420.64l-10 4 10 4-4-4z"/>
  <path stroke="#a80036" d="M695 424.641h530"/>
  <text font-family="sans-serif" font-size="13" font-weight="bold" lengthAdjust="spacingAndGlyphs" textLength="48" x="707" y="359.043">
    DISC-5
  </text>
  <text font-family="monospace" font-size="13" lengthAdjust="spacingAndGlyphs" textLength="256" x="759" y="298.512">
    PUT /accounts/username1234/error
  </text>
  <text font-family="monospace" font-size="13" lengthAdjust="spacingAndGlyphs" textLength="152" x="783" y="313.645">
    FSIOP-Source: dfspa
  </text>
  <text font-family="monospace" font-size="13" lengthAdjust="spacingAndGlyphs" textLength="192" x="783" y="328.778">
    FSIOP-Destination: pispa
  </text>
  <text font-family="monospace" font-size="13" lengthAdjust="spacingAndGlyphs" textLength="8" x="767" y="343.911">
    {
  </text>
  <text font-family="monospace" font-size="13" lengthAdjust="spacingAndGlyphs" textLength="160" x="783" y="359.043">
    errorInformation : {
  </text>
  <text font-family="monospace" font-size="13" lengthAdjust="spacingAndGlyphs" textLength="144" x="799" y="374.176">
    errorCode: &quot;7202&quot;,
  </text>
  <text font-family="monospace" font-size="13" lengthAdjust="spacingAndGlyphs" textLength="416" x="799" y="389.309">
    errorDescription: &quot;No accounts found for generic ID&quot;
  </text>
  <text font-family="monospace" font-size="13" lengthAdjust="spacingAndGlyphs" textLength="8" x="783" y="404.442">
    }
  </text>
  <text font-family="monospace" font-size="13" lengthAdjust="spacingAndGlyphs" textLength="8" x="767" y="419.575">
    }
  </text>
  <path fill="#A80036" stroke="#a80036" d="M1219 449.773l10 4-10 4 4-4z"/>
  <path stroke="#a80036" stroke-dasharray="2,2" d="M690 453.773h535"/>
  <text font-family="sans-serif" font-size="13" font-weight="bold" lengthAdjust="spacingAndGlyphs" textLength="48" x="697" y="448.707">
    DISC-6
  </text>
  <text font-family="monospace" font-size="13" lengthAdjust="spacingAndGlyphs" textLength="48" x="749" y="448.707">
    200 OK
  </text>
  <path fill="#A80036" stroke="#a80036" d="M155 599.969l-10 4 10 4-4-4z"/>
  <path stroke="#a80036" d="M149 603.969h530"/>
  <text font-family="sans-serif" font-size="13" font-weight="bold" lengthAdjust="spacingAndGlyphs" textLength="48" x="161" y="538.372">
    DISC-7
  </text>
  <text font-family="monospace" font-size="13" lengthAdjust="spacingAndGlyphs" textLength="256" x="213" y="477.84">
    PUT /accounts/username1234/error
  </text>
  <text font-family="monospace" font-size="13" lengthAdjust="spacingAndGlyphs" textLength="152" x="237" y="492.973">
    FSIOP-Source: dfspa
  </text>
  <text font-family="monospace" font-size="13" lengthAdjust="spacingAndGlyphs" textLength="192" x="237" y="508.106">
    FSIOP-Destination: pispa
  </text>
  <text font-family="monospace" font-size="13" lengthAdjust="spacingAndGlyphs" textLength="8" x="221" y="523.239">
    {
  </text>
  <text font-family="monospace" font-size="13" lengthAdjust="spacingAndGlyphs" textLength="160" x="237" y="538.372">
    errorInformation : {
  </text>
  <text font-family="monospace" font-size="13" lengthAdjust="spacingAndGlyphs" textLength="144" x="253" y="553.504">
    errorCode: &quot;7202&quot;,
  </text>
  <text font-family="monospace" font-size="13" lengthAdjust="spacingAndGlyphs" textLength="416" x="253" y="568.637">
    errorDescription: &quot;No accounts found for generic ID&quot;
  </text>
  <text font-family="monospace" font-size="13" lengthAdjust="spacingAndGlyphs" textLength="8" x="237" y="583.77">
    }
  </text>
  <text font-family="monospace" font-size="13" lengthAdjust="spacingAndGlyphs" textLength="8" x="221" y="598.903">
    }
  </text>
  <path fill="#A80036" stroke="#a80036" d="M673 629.102l10 4-10 4 4-4z"/>
  <path stroke="#a80036" stroke-dasharray="2,2" d="M139 633.102h540"/>
  <text font-family="sans-serif" font-size="13" font-weight="bold" lengthAdjust="spacingAndGlyphs" textLength="48" x="146" y="628.036">
    DISC-8
  </text>
  <text font-family="monospace" font-size="13" lengthAdjust="spacingAndGlyphs" textLength="48" x="198" y="628.036">
    200 OK
  </text>
  <path d="M32 674.102v25h1221v-15l-10-10H32" fill="#FBFB77" filter="url(#a)" stroke="#a80036"/>
  <path d="M1243 674.102v10h10l-10-10" fill="#FBFB77" stroke="#a80036"/>
  <text font-family="sans-serif" font-size="13" lengthAdjust="spacingAndGlyphs" textLength="660" x="306" y="691.168">
    The PISP can now show error message and user can try again with another username or different DFSP.
  </text>
</svg>
