<svg xmlns="http://www.w3.org/2000/svg" height="485" preserveAspectRatio="none" style="width:758px;height:485px" width="758">
  <defs>
    <filter height="300%" id="a" width="300%" x="-1" y="-1">
      <feGaussianBlur result="blurOut" stdDeviation="2"/>
      <feColorMatrix in="blurOut" result="blurOut2" values="0 0 0 0 0 0 0 0 0 0 0 0 0 0 0 0 0 0 .4 0"/>
      <feOffset dx="4" dy="4" in="blurOut2" result="blurOut3"/>
      <feBlend in="SourceGraphic" in2="blurOut3"/>
    </filter>
  </defs>
  <text font-family="sans-serif" font-size="18" lengthAdjust="spacingAndGlyphs" textLength="215" x="269" y="28.708">
    PISP Linking: Pre-linking
  </text>
  <path fill="#DDD" stroke="#a80036" d="M1 40.953h108v438.852H1z"/>
  <text font-family="sans-serif" font-size="13" font-weight="bold" lengthAdjust="spacingAndGlyphs" textLength="102" x="4" y="53.02">
    Mobile device
  </text>
  <path fill="#DDD" stroke="#a80036" d="M370.5 40.953h56v438.852h-56z"/>
  <text font-family="sans-serif" font-size="13" font-weight="bold" lengthAdjust="spacingAndGlyphs" textLength="33" x="382" y="53.02">
    PISP
  </text>
  <path fill="#DDD" stroke="#a80036" d="M679 40.953h73v438.852h-73z"/>
  <text font-family="sans-serif" font-size="13" font-weight="bold" lengthAdjust="spacingAndGlyphs" textLength="67" x="682" y="53.02">
    Mojaloop
  </text>
  <path fill="#FFF" filter="url(#a)" stroke="#a80036" d="M50 105.383h10v327.125H50zM393.5 126.516h10v88.531h-10zM393.5 350.109h10v73.398h-10zM710.5 185.914h10v246.594h-10z"/>
  <path stroke="#a80036" stroke-dasharray="5,5" d="M54.5 95.383v346.125M398.5 95.383v346.125M715 95.383v346.125"/>
  <path fill="#FEFECE" filter="url(#a)" stroke="#a80036" stroke-width="1.5" d="M32.5 60.086h41v30.297h-41z"/>
  <text font-family="sans-serif" font-size="14" lengthAdjust="spacingAndGlyphs" textLength="27" x="39.5" y="80.081">
    App
  </text>
  <path fill="#FEFECE" filter="url(#a)" stroke="#a80036" stroke-width="1.5" d="M32.5 440.508h41v30.297h-41z"/>
  <text font-family="sans-serif" font-size="14" lengthAdjust="spacingAndGlyphs" textLength="27" x="39.5" y="460.503">
    App
  </text>
  <path fill="#FEFECE" filter="url(#a)" stroke="#a80036" stroke-width="1.5" d="M374.5 60.086h44v30.297h-44z"/>
  <text font-family="sans-serif" font-size="14" lengthAdjust="spacingAndGlyphs" textLength="30" x="381.5" y="80.081">
    PISP
  </text>
  <path fill="#FEFECE" filter="url(#a)" stroke="#a80036" stroke-width="1.5" d="M374.5 440.508h44v30.297h-44z"/>
  <text font-family="sans-serif" font-size="14" lengthAdjust="spacingAndGlyphs" textLength="30" x="381.5" y="460.503">
    PISP
  </text>
  <path fill="#FEFECE" filter="url(#a)" stroke="#a80036" stroke-width="1.5" d="M684 60.086h59v30.297h-59z"/>
  <text font-family="sans-serif" font-size="14" lengthAdjust="spacingAndGlyphs" textLength="45" x="691" y="80.081">
    Switch
  </text>
  <path fill="#FEFECE" filter="url(#a)" stroke="#a80036" stroke-width="1.5" d="M684 440.508h59v30.297h-59z"/>
  <text font-family="sans-serif" font-size="14" lengthAdjust="spacingAndGlyphs" textLength="45" x="691" y="460.503">
    Switch
  </text>
  <path fill="#FFF" filter="url(#a)" stroke="#a80036" d="M50 105.383h10v327.125H50zM393.5 126.516h10v88.531h-10zM393.5 350.109h10v73.398h-10zM710.5 185.914h10v246.594h-10z"/>
  <path fill="#A80036" stroke="#a80036" d="M381.5 122.516l10 4-10 4 4-4z"/>
  <path stroke="#a80036" d="M60 126.516h327.5"/>
  <text font-family="sans-serif" font-size="13" font-weight="bold" lengthAdjust="spacingAndGlyphs" textLength="43" x="67" y="121.45">
    PRE-1
  </text>
  <text font-family="sans-serif" font-size="13" lengthAdjust="spacingAndGlyphs" textLength="240" x="114" y="121.45">
    What DFSPs are available to link with?
  </text>
  <path fill="#A80036" stroke="#a80036" d="M698.5 181.914l10 4-10 4 4-4z"/>
  <path stroke="#a80036" d="M403.5 185.914h301"/>
  <text font-family="sans-serif" font-size="13" font-weight="bold" lengthAdjust="spacingAndGlyphs" textLength="43" x="410.5" y="165.715">
    PRE-2
  </text>
  <text font-family="monospace" font-size="13" lengthAdjust="spacingAndGlyphs" textLength="240" x="457.5" y="150.583">
    GET /services/THIRD_PARTY_DFSP
  </text>
  <text font-family="monospace" font-size="13" lengthAdjust="spacingAndGlyphs" textLength="160" x="457.5" y="165.715">
    FSPIOP-Source: pispa
  </text>
  <text font-family="monospace" font-size="13" lengthAdjust="spacingAndGlyphs" textLength="208" x="457.5" y="180.848">
    FSPIOP-Destination: switch
  </text>
  <path fill="#A80036" stroke="#a80036" d="M409.5 211.047l-10 4 10 4-4-4z"/>
  <path stroke="#a80036" stroke-dasharray="2,2" d="M403.5 215.047h306"/>
  <text font-family="sans-serif" font-size="13" font-weight="bold" lengthAdjust="spacingAndGlyphs" textLength="43" x="415.5" y="209.981">
    PRE-3
  </text>
  <text font-family="monospace" font-size="13" lengthAdjust="spacingAndGlyphs" textLength="96" x="462.5" y="209.981">
    202 Accepted
  </text>
  <path fill="#A80036" stroke="#a80036" d="M414.5 346.11l-10 4 10 4-4-4z"/>
  <path stroke="#a80036" d="M408.5 350.109h301"/>
  <text font-family="sans-serif" font-size="13" font-weight="bold" lengthAdjust="spacingAndGlyphs" textLength="43" x="420.5" y="292.079">
    PRE-4
  </text>
  <text font-family="monospace" font-size="13" lengthAdjust="spacingAndGlyphs" textLength="240" x="467.5" y="239.114">
    PUT /services/THIRD_PARTY_DFSP
  </text>
  <text font-family="monospace" font-size="13" lengthAdjust="spacingAndGlyphs" textLength="168" x="467.5" y="254.247">
    FSPIOP-Source: switch
  </text>
  <text font-family="monospace" font-size="13" lengthAdjust="spacingAndGlyphs" textLength="200" x="467.5" y="269.379">
    FSPIOP-Destination: pispa
  </text>
  <text font-family="monospace" font-size="13" lengthAdjust="spacingAndGlyphs" textLength="8" x="471.5" y="284.512">
    {
  </text>
  <text font-family="monospace" font-size="13" lengthAdjust="spacingAndGlyphs" textLength="168" x="491.5" y="299.645">
    &quot;serviceProviders&quot;: [
  </text>
  <text font-family="monospace" font-size="13" lengthAdjust="spacingAndGlyphs" textLength="120" x="507.5" y="314.778">
    &quot;dfspa&quot;, &quot;dfspb
  </text>
  <text font-family="sans-serif" font-size="13" lengthAdjust="spacingAndGlyphs" textLength="5" x="627.5" y="314.778">
    &quot;
  </text>
  <text font-family="monospace" font-size="13" lengthAdjust="spacingAndGlyphs" textLength="8" x="491.5" y="329.911">
    ]
  </text>
  <text font-family="monospace" font-size="13" lengthAdjust="spacingAndGlyphs" textLength="8" x="471.5" y="345.043">
    }
  </text>
  <path fill="#A80036" stroke="#a80036" d="M698.5 375.242l10 4-10 4 4-4z"/>
  <path stroke="#a80036" stroke-dasharray="2,2" d="M403.5 379.242h301"/>
  <text font-family="sans-serif" font-size="13" font-weight="bold" lengthAdjust="spacingAndGlyphs" textLength="43" x="410.5" y="374.176">
    PRE-5
  </text>
  <text font-family="monospace" font-size="13" lengthAdjust="spacingAndGlyphs" textLength="48" x="457.5" y="374.176">
    200 OK
  </text>
  <path fill="#A80036" stroke="#a80036" d="M71 419.508l-10 4 10 4-4-4z"/>
  <path stroke="#a80036" stroke-dasharray="2,2" d="M65 423.508h332.5"/>
  <text font-family="sans-serif" font-size="13" font-weight="bold" lengthAdjust="spacingAndGlyphs" textLength="43" x="77" y="410.875">
    PRE-6
  </text>
  <text font-family="sans-serif" font-size="13" lengthAdjust="spacingAndGlyphs" textLength="160" x="124" y="403.309">
    We have dfspa and dfspb
  </text>
</svg>
