<svg xmlns="http://www.w3.org/2000/svg" height="825" preserveAspectRatio="none" style="width:1668px;height:825px" width="1668">
  <defs>
    <filter height="300%" id="a" width="300%" x="-1" y="-1">
      <feGaussianBlur result="blurOut" stdDeviation="2"/>
      <feColorMatrix in="blurOut" result="blurOut2" values="0 0 0 0 0 0 0 0 0 0 0 0 0 0 0 0 0 0 .4 0"/>
      <feOffset dx="4" dy="4" in="blurOut2" result="blurOut3"/>
      <feBlend in="SourceGraphic" in2="blurOut3"/>
    </filter>
  </defs>
  <text font-family="sans-serif" font-size="18" lengthAdjust="spacingAndGlyphs" textLength="208" x="727.75" y="28.708">
    PISP Linking: Discovery
  </text>
  <path fill="#DDD" stroke="#a80036" d="M1 40.953h108v778.18H1z"/>
  <text font-family="sans-serif" font-size="13" font-weight="bold" lengthAdjust="spacingAndGlyphs" textLength="102" x="4" y="53.02">
    Mobile device
  </text>
  <path fill="#DDD" stroke="#a80036" d="M111 40.953h56v778.18h-56z"/>
  <text font-family="sans-serif" font-size="13" font-weight="bold" lengthAdjust="spacingAndGlyphs" textLength="33" x="122.5" y="53.02">
    PISP
  </text>
  <path fill="#DDD" stroke="#a80036" d="M848.5 40.953h73v778.18h-73z"/>
  <text font-family="sans-serif" font-size="13" font-weight="bold" lengthAdjust="spacingAndGlyphs" textLength="67" x="851.5" y="53.02">
    Mojaloop
  </text>
  <path fill="#FFF" filter="url(#a)" stroke="#fff" d="M134 105.383h10v67.133h-10z"/>
  <path stroke="#a80036" d="M134 105.383v67.133M144 105.383v67.133M134 105.383h10"/>
  <path fill="#FFF" filter="url(#a)" stroke="#fff" d="M134 200.516h10v80.531h-10z"/>
  <path stroke="#a80036" d="M134 200.516v80.531M144 200.516v80.531M134 281.047h10"/>
  <path fill="#FFF" filter="url(#a)" stroke="#a80036" d="M134 638.57h10v29.133h-10zM880 251.914h10v117.664h-10zM880 489.508h10v178.195h-10zM1626 340.445h10V518.64h-10z"/>
  <path stroke="#a80036" d="M54.5 95.383v10"/>
  <path stroke="#a80036" stroke-dasharray="1,4" d="M54.5 105.383v28"/>
  <path stroke="#a80036" d="M54.5 133.383v39.133"/>
  <path stroke="#a80036" stroke-dasharray="1,4" d="M54.5 172.516v28"/>
  <path stroke="#a80036" d="M54.5 200.516v475.187"/>
  <path stroke="#a80036" stroke-dasharray="1,4" d="M54.5 675.703v28"/>
  <path stroke="#a80036" d="M54.5 703.703v39.133"/>
  <path stroke="#a80036" stroke-dasharray="1,4" d="M54.5 742.836v28"/>
  <path stroke="#a80036" d="M54.5 770.836v10M139 95.383v10"/>
  <path stroke="#a80036" stroke-dasharray="1,4" d="M139 105.383v28"/>
  <path stroke="#a80036" d="M139 133.383v39.133"/>
  <path stroke="#a80036" stroke-dasharray="1,4" d="M139 172.516v28"/>
  <path stroke="#a80036" d="M139 200.516v475.187"/>
  <path stroke="#a80036" stroke-dasharray="1,4" d="M139 675.703v28"/>
  <path stroke="#a80036" d="M139 703.703v39.133"/>
  <path stroke="#a80036" stroke-dasharray="1,4" d="M139 742.836v28"/>
  <path stroke="#a80036" d="M139 770.836v10M884.5 95.383v10"/>
  <path stroke="#a80036" stroke-dasharray="1,4" d="M884.5 105.383v28"/>
  <path stroke="#a80036" d="M884.5 133.383v39.133"/>
  <path stroke="#a80036" stroke-dasharray="1,4" d="M884.5 172.516v28"/>
  <path stroke="#a80036" d="M884.5 200.516v475.187"/>
  <path stroke="#a80036" stroke-dasharray="1,4" d="M884.5 675.703v28"/>
  <path stroke="#a80036" d="M884.5 703.703v39.133"/>
  <path stroke="#a80036" stroke-dasharray="1,4" d="M884.5 742.836v28"/>
  <path stroke="#a80036" d="M884.5 770.836v10M1630.5 95.383v10"/>
  <path stroke="#a80036" stroke-dasharray="1,4" d="M1630.5 105.383v28"/>
  <path stroke="#a80036" d="M1630.5 133.383v39.133"/>
  <path stroke="#a80036" stroke-dasharray="1,4" d="M1630.5 172.516v28"/>
  <path stroke="#a80036" d="M1630.5 200.516v475.187"/>
  <path stroke="#a80036" stroke-dasharray="1,4" d="M1630.5 675.703v28"/>
  <path stroke="#a80036" d="M1630.5 703.703v39.133"/>
  <path stroke="#a80036" stroke-dasharray="1,4" d="M1630.5 742.836v28"/>
  <path stroke="#a80036" d="M1630.5 770.836v10"/>
  <path fill="#FEFECE" filter="url(#a)" stroke="#a80036" stroke-width="1.5" d="M32.5 60.086h41v30.297h-41z"/>
  <text font-family="sans-serif" font-size="14" lengthAdjust="spacingAndGlyphs" textLength="27" x="39.5" y="80.081">
    App
  </text>
  <path fill="#FEFECE" filter="url(#a)" stroke="#a80036" stroke-width="1.5" d="M32.5 779.836h41v30.297h-41z"/>
  <text font-family="sans-serif" font-size="14" lengthAdjust="spacingAndGlyphs" textLength="27" x="39.5" y="799.831">
    App
  </text>
  <path fill="#FEFECE" filter="url(#a)" stroke="#a80036" stroke-width="1.5" d="M115 60.086h44v30.297h-44z"/>
  <text font-family="sans-serif" font-size="14" lengthAdjust="spacingAndGlyphs" textLength="30" x="122" y="80.081">
    PISP
  </text>
  <path fill="#FEFECE" filter="url(#a)" stroke="#a80036" stroke-width="1.5" d="M115 779.836h44v30.297h-44z"/>
  <text font-family="sans-serif" font-size="14" lengthAdjust="spacingAndGlyphs" textLength="30" x="122" y="799.831">
    PISP
  </text>
  <path fill="#FEFECE" filter="url(#a)" stroke="#a80036" stroke-width="1.5" d="M853.5 60.086h59v30.297h-59z"/>
  <text font-family="sans-serif" font-size="14" lengthAdjust="spacingAndGlyphs" textLength="45" x="860.5" y="80.081">
    Switch
  </text>
  <path fill="#FEFECE" filter="url(#a)" stroke="#a80036" stroke-width="1.5" d="M853.5 779.836h59v30.297h-59z"/>
  <text font-family="sans-serif" font-size="14" lengthAdjust="spacingAndGlyphs" textLength="45" x="860.5" y="799.831">
    Switch
  </text>
  <path fill="#FEFECE" filter="url(#a)" stroke="#a80036" stroke-width="1.5" d="M1603.5 60.086h51v30.297h-51z"/>
  <text font-family="sans-serif" font-size="14" lengthAdjust="spacingAndGlyphs" textLength="37" x="1610.5" y="80.081">
    DFSP
  </text>
  <path fill="#FEFECE" filter="url(#a)" stroke="#a80036" stroke-width="1.5" d="M1603.5 779.836h51v30.297h-51z"/>
  <text font-family="sans-serif" font-size="14" lengthAdjust="spacingAndGlyphs" textLength="37" x="1610.5" y="799.831">
    DFSP
  </text>
  <path fill="#FFF" filter="url(#a)" stroke="#fff" d="M134 105.383h10v67.133h-10z"/>
  <path stroke="#a80036" d="M134 105.383v67.133M144 105.383v67.133M134 105.383h10"/>
  <path fill="#FFF" filter="url(#a)" stroke="#fff" d="M134 200.516h10v80.531h-10z"/>
  <path stroke="#a80036" d="M134 200.516v80.531M144 200.516v80.531M134 281.047h10"/>
  <path fill="#FFF" filter="url(#a)" stroke="#a80036" d="M134 638.57h10v29.133h-10zM880 251.914h10v117.664h-10zM880 489.508h10v178.195h-10zM1626 340.445h10V518.64h-10z"/>
  <path d="M32 138.383v25h1621v-15l-10-10H32" fill="#FBFB77" filter="url(#a)" stroke="#a80036"/>
  <path d="M1643 138.383v10h10l-10-10" fill="#FBFB77" stroke="#a80036"/>
  <text font-family="sans-serif" font-size="13" lengthAdjust="spacingAndGlyphs" textLength="1166" x="253" y="155.45">
    The user will be prompted in the PISP App for the unique ID they use with their DFSP, and the type of identifier they use. This could be a an account ALIAS, MSISDN, email address, etc.
  </text>
  <path fill="#A80036" stroke="#a80036" d="M868 247.914l10 4-10 4 4-4z"/>
  <path stroke="#a80036" d="M144 251.914h730"/>
  <text font-family="sans-serif" font-size="13" font-weight="bold" lengthAdjust="spacingAndGlyphs" textLength="48" x="151" y="231.715">
    DISC-1
  </text>
  <text font-family="monospace" font-size="13" lengthAdjust="spacingAndGlyphs" textLength="208" x="203" y="216.583">
    GET /accounts/username1234
  </text>
  <text font-family="monospace" font-size="13" lengthAdjust="spacingAndGlyphs" textLength="152" x="227" y="231.715">
    FSIOP-Source: pispa
  </text>
  <text font-family="monospace" font-size="13" lengthAdjust="spacingAndGlyphs" textLength="192" x="227" y="246.848">
    FSIOP-Destination: dfspa
  </text>
  <path fill="#A80036" stroke="#a80036" d="M150 277.047l-10 4 10 4-4-4z"/>
  <path stroke="#a80036" stroke-dasharray="2,2" d="M144 281.047h735"/>
  <text font-family="sans-serif" font-size="13" font-weight="bold" lengthAdjust="spacingAndGlyphs" textLength="48" x="156" y="275.981">
    DISC-2
  </text>
  <text font-family="monospace" font-size="13" lengthAdjust="spacingAndGlyphs" textLength="96" x="208" y="275.981">
    202 Accepted
  </text>
  <path fill="#A80036" stroke="#a80036" d="M1614 336.445l10 4-10 4 4-4z"/>
  <path stroke="#a80036" d="M890 340.445h730"/>
  <text font-family="sans-serif" font-size="13" font-weight="bold" lengthAdjust="spacingAndGlyphs" textLength="48" x="897" y="320.247">
    DISC-3
  </text>
  <text font-family="monospace" font-size="13" lengthAdjust="spacingAndGlyphs" textLength="208" x="949" y="305.114">
    GET /accounts/username1234
  </text>
  <text font-family="monospace" font-size="13" lengthAdjust="spacingAndGlyphs" textLength="152" x="973" y="320.247">
    FSIOP-Source: pispa
  </text>
  <text font-family="monospace" font-size="13" lengthAdjust="spacingAndGlyphs" textLength="192" x="973" y="335.379">
    FSIOP-Destination: dfspa
  </text>
  <path fill="#A80036" stroke="#a80036" d="M896 365.578l-10 4 10 4-4-4z"/>
  <path stroke="#a80036" stroke-dasharray="2,2" d="M890 369.578h735"/>
  <text font-family="sans-serif" font-size="13" font-weight="bold" lengthAdjust="spacingAndGlyphs" textLength="48" x="902" y="364.512">
    DISC-4
  </text>
  <text font-family="monospace" font-size="13" lengthAdjust="spacingAndGlyphs" textLength="96" x="954" y="364.512">
    202 Accepted
  </text>
  <path fill="#A80036" stroke="#a80036" d="M901 485.508l-10 4 10 4-4-4z"/>
  <path stroke="#a80036" d="M895 489.508h730"/>
  <text font-family="sans-serif" font-size="13" font-weight="bold" lengthAdjust="spacingAndGlyphs" textLength="48" x="907" y="439.043">
    DISC-5
  </text>
  <text font-family="monospace" font-size="13" lengthAdjust="spacingAndGlyphs" textLength="208" x="959" y="393.645">
    PUT /accounts/username1234
  </text>
  <text font-family="monospace" font-size="13" lengthAdjust="spacingAndGlyphs" textLength="152" x="983" y="408.778">
    FSIOP-Source: dfspa
  </text>
  <text font-family="monospace" font-size="13" lengthAdjust="spacingAndGlyphs" textLength="192" x="983" y="423.911">
    FSIOP-Destination: pispa
  </text>
  <text font-family="monospace" font-size="13" lengthAdjust="spacingAndGlyphs" textLength="8" x="967" y="439.043">
    [
  </text>
  <text font-family="monospace" font-size="13" lengthAdjust="spacingAndGlyphs" textLength="608" x="983" y="454.176">
    { accountNickname: &quot;XXXXXXnt&quot;, id: &quot;dfspa.username.1234&quot;, currency: &quot;ZAR&quot; },
  </text>
  <text font-family="monospace" font-size="13" lengthAdjust="spacingAndGlyphs" textLength="640" x="983" y="469.309">
    { accountNickname: &quot;SpeXXXXXXXXnt&quot;, id: &quot;dfspa.username.5678&quot;, currency: &quot;USD&quot; }
  </text>
  <text font-family="monospace" font-size="13" lengthAdjust="spacingAndGlyphs" textLength="8" x="967" y="484.442">
    ]
  </text>
  <path fill="#A80036" stroke="#a80036" d="M1619 514.64l10 4-10 4 4-4z"/>
  <path stroke="#a80036" stroke-dasharray="2,2" d="M890 518.641h735"/>
  <text font-family="sans-serif" font-size="13" font-weight="bold" lengthAdjust="spacingAndGlyphs" textLength="48" x="897" y="513.575">
    DISC-6
  </text>
  <text font-family="monospace" font-size="13" lengthAdjust="spacingAndGlyphs" textLength="48" x="949" y="513.575">
    200 OK
  </text>
  <path fill="#A80036" stroke="#a80036" d="M155 634.57l-10 4 10 4-4-4z"/>
  <path stroke="#a80036" d="M149 638.57h730"/>
  <text font-family="sans-serif" font-size="13" font-weight="bold" lengthAdjust="spacingAndGlyphs" textLength="48" x="161" y="588.106">
    DISC-7
  </text>
  <text font-family="monospace" font-size="13" lengthAdjust="spacingAndGlyphs" textLength="208" x="213" y="542.707">
    PUT /accounts/username1234
  </text>
  <text font-family="monospace" font-size="13" lengthAdjust="spacingAndGlyphs" textLength="152" x="237" y="557.84">
    FSIOP-Source: dfspa
  </text>
  <text font-family="monospace" font-size="13" lengthAdjust="spacingAndGlyphs" textLength="192" x="237" y="572.973">
    FSIOP-Destination: pispa
  </text>
  <text font-family="monospace" font-size="13" lengthAdjust="spacingAndGlyphs" textLength="8" x="221" y="588.106">
    [
  </text>
  <text font-family="monospace" font-size="13" lengthAdjust="spacingAndGlyphs" textLength="608" x="237" y="603.239">
    { accountNickname: &quot;XXXXXXnt&quot;, id: &quot;dfspa.username.1234&quot;, currency: &quot;ZAR&quot; },
  </text>
  <text font-family="monospace" font-size="13" lengthAdjust="spacingAndGlyphs" textLength="640" x="237" y="618.372">
    { accountNickname: &quot;SpeXXXXXXXXnt&quot;, id: &quot;dfspa.username.5678&quot;, currency: &quot;USD&quot; }
  </text>
  <text font-family="monospace" font-size="13" lengthAdjust="spacingAndGlyphs" textLength="8" x="221" y="633.504">
    ]
  </text>
  <path fill="#A80036" stroke="#a80036" d="M873 663.703l10 4-10 4 4-4z"/>
  <path stroke="#a80036" stroke-dasharray="2,2" d="M139 667.703h740"/>
  <text font-family="sans-serif" font-size="13" font-weight="bold" lengthAdjust="spacingAndGlyphs" textLength="48" x="146" y="662.637">
    DISC-8
  </text>
  <text font-family="monospace" font-size="13" lengthAdjust="spacingAndGlyphs" textLength="48" x="198" y="662.637">
    200 OK
  </text>
  <path d="M32 708.703v25h1621v-15l-10-10H32" fill="#FBFB77" filter="url(#a)" stroke="#a80036"/>
  <path d="M1643 708.703v10h10l-10-10" fill="#FBFB77" stroke="#a80036"/>
  <text font-family="sans-serif" font-size="13" lengthAdjust="spacingAndGlyphs" textLength="478" x="597" y="725.77">
    The PISP can now present a list of possible accounts to the user for pairing.
  </text>
</svg>
