<svg xmlns="http://www.w3.org/2000/svg" height="1601" preserveAspectRatio="none" style="width:2164px;height:1601px" width="2164">
  <defs>
    <filter height="300%" id="a" width="300%" x="-1" y="-1">
      <feGaussianBlur result="blurOut" stdDeviation="2"/>
      <feColorMatrix in="blurOut" result="blurOut2" values="0 0 0 0 0 0 0 0 0 0 0 0 0 0 0 0 0 0 .4 0"/>
      <feOffset dx="4" dy="4" in="blurOut2" result="blurOut3"/>
      <feBlend in="SourceGraphic" in2="blurOut3"/>
    </filter>
  </defs>
  <text font-family="sans-serif" font-size="18" lengthAdjust="spacingAndGlyphs" textLength="323" x="920.5" y="28.708">
    PISP Linking: Request consent (OTP)
  </text>
  <path fill="#DDD" stroke="#a80036" d="M766.5 40.953h73v1554.555h-73z"/>
  <text font-family="sans-serif" font-size="13" font-weight="bold" lengthAdjust="spacingAndGlyphs" textLength="67" x="769.5" y="53.02">
    Mojaloop
  </text>
  <path fill="#FFF" filter="url(#a)" stroke="#fff" d="M24 105.383h10v67.133H24z"/>
  <path stroke="#a80036" d="M24 105.383v67.133M34 105.383v67.133M24 105.383h10"/>
  <path fill="#FFF" filter="url(#a)" stroke="#fff" d="M24 200.516h10v262.125H24z"/>
  <path stroke="#a80036" d="M24 200.516v262.125M34 200.516v262.125M24 462.641h10"/>
  <path fill="#FFF" filter="url(#a)" stroke="#a80036" d="M798 433.508h10v299.258h-10zM798 1176.82h10v323.258h-10zM1436 703.633h10v502.32h-10z"/>
  <path stroke="#a80036" d="M29 95.383v10"/>
  <path stroke="#a80036" stroke-dasharray="1,4" d="M29 105.383v28"/>
  <path stroke="#a80036" d="M29 133.383v39.133"/>
  <path stroke="#a80036" stroke-dasharray="1,4" d="M29 172.516v28"/>
  <path stroke="#a80036" d="M29 200.516v1356.695M802.5 95.383v10"/>
  <path stroke="#a80036" stroke-dasharray="1,4" d="M802.5 105.383v28"/>
  <path stroke="#a80036" d="M802.5 133.383v39.133"/>
  <path stroke="#a80036" stroke-dasharray="1,4" d="M802.5 172.516v28"/>
  <path stroke="#a80036" d="M802.5 200.516v1356.695M1440.5 95.383v10"/>
  <path stroke="#a80036" stroke-dasharray="1,4" d="M1440.5 105.383v28"/>
  <path stroke="#a80036" d="M1440.5 133.383v39.133"/>
  <path stroke="#a80036" stroke-dasharray="1,4" d="M1440.5 172.516v28"/>
  <path stroke="#a80036" d="M1440.5 200.516v1356.695M1785.5 95.383v10"/>
  <path stroke="#a80036" stroke-dasharray="1,4" d="M1785.5 105.383v28"/>
  <path stroke="#a80036" d="M1785.5 133.383v39.133"/>
  <path stroke="#a80036" stroke-dasharray="1,4" d="M1785.5 172.516v28"/>
  <path stroke="#a80036" d="M1785.5 200.516v1356.695"/>
  <path fill="#FEFECE" filter="url(#a)" stroke="#a80036" stroke-width="1.5" d="M5 60.086h44v30.297H5z"/>
  <text font-family="sans-serif" font-size="14" lengthAdjust="spacingAndGlyphs" textLength="30" x="12" y="80.081">
    PISP
  </text>
  <path fill="#FEFECE" filter="url(#a)" stroke="#a80036" stroke-width="1.5" d="M5 1556.211h44v30.297H5z"/>
  <text font-family="sans-serif" font-size="14" lengthAdjust="spacingAndGlyphs" textLength="30" x="12" y="1576.206">
    PISP
  </text>
  <path fill="#FEFECE" filter="url(#a)" stroke="#a80036" stroke-width="1.5" d="M771.5 60.086h59v30.297h-59z"/>
  <text font-family="sans-serif" font-size="14" lengthAdjust="spacingAndGlyphs" textLength="45" x="778.5" y="80.081">
    Switch
  </text>
  <path fill="#FEFECE" filter="url(#a)" stroke="#a80036" stroke-width="1.5" d="M771.5 1556.211h59v30.297h-59z"/>
  <text font-family="sans-serif" font-size="14" lengthAdjust="spacingAndGlyphs" textLength="45" x="778.5" y="1576.206">
    Switch
  </text>
  <path fill="#FEFECE" filter="url(#a)" stroke="#a80036" stroke-width="1.5" d="M1413.5 60.086h51v30.297h-51z"/>
  <text font-family="sans-serif" font-size="14" lengthAdjust="spacingAndGlyphs" textLength="37" x="1420.5" y="80.081">
    DFSP
  </text>
  <path fill="#FEFECE" filter="url(#a)" stroke="#a80036" stroke-width="1.5" d="M1413.5 1556.211h51v30.297h-51z"/>
  <text font-family="sans-serif" font-size="14" lengthAdjust="spacingAndGlyphs" textLength="37" x="1420.5" y="1576.206">
    DFSP
  </text>
  <path fill="#FEFECE" filter="url(#a)" stroke="#a80036" stroke-width="1.5" d="M1693.5 60.086h181v30.297h-181z"/>
  <text font-family="sans-serif" font-size="14" lengthAdjust="spacingAndGlyphs" textLength="167" x="1700.5" y="80.081">
    DFSPAuthorizeSimulator
  </text>
  <path fill="#FEFECE" filter="url(#a)" stroke="#a80036" stroke-width="1.5" d="M1693.5 1556.211h181v30.297h-181z"/>
  <text font-family="sans-serif" font-size="14" lengthAdjust="spacingAndGlyphs" textLength="167" x="1700.5" y="1576.206">
    DFSPAuthorizeSimulator
  </text>
  <path fill="#FFF" filter="url(#a)" stroke="#fff" d="M24 105.383h10v67.133H24z"/>
  <path stroke="#a80036" d="M24 105.383v67.133M34 105.383v67.133M24 105.383h10"/>
  <path fill="#FFF" filter="url(#a)" stroke="#fff" d="M24 200.516h10v262.125H24z"/>
  <path stroke="#a80036" d="M24 200.516v262.125M34 200.516v262.125M24 462.641h10"/>
  <path fill="#FFF" filter="url(#a)" stroke="#a80036" d="M798 433.508h10v299.258h-10zM798 1176.82h10v323.258h-10zM1436 703.633h10v502.32h-10z"/>
  <path d="M5 138.383v25h1458v-15l-10-10H5" fill="#FBFB77" filter="url(#a)" stroke="#a80036"/>
  <path d="M1453 138.383v10h10l-10-10" fill="#FBFB77" stroke="#a80036"/>
  <text font-family="sans-serif" font-size="13" lengthAdjust="spacingAndGlyphs" textLength="783" x="336.25" y="155.45">
    The user initiated some sort of account linking by choosing the appropriate DFSP from a screen inside the PISP application.
  </text>
  <path fill="#A80036" stroke="#a80036" d="M786 429.508l10 4-10 4 4-4z"/>
  <path stroke="#a80036" d="M34 433.508h758"/>
  <text font-family="sans-serif" font-size="13" font-weight="bold" lengthAdjust="spacingAndGlyphs" textLength="44" x="41" y="322.512">
    REQ-1
  </text>
  <text font-family="monospace" font-size="13" lengthAdjust="spacingAndGlyphs" textLength="168" x="89" y="216.583">
    POST /consentRequests
  </text>
  <text font-family="monospace" font-size="13" lengthAdjust="spacingAndGlyphs" textLength="152" x="113" y="231.715">
    FSIOP-Source: pispa
  </text>
  <text font-family="monospace" font-size="13" lengthAdjust="spacingAndGlyphs" textLength="192" x="113" y="246.848">
    FSIOP-Destination: dfspa
  </text>
  <text font-family="monospace" font-size="13" lengthAdjust="spacingAndGlyphs" textLength="8" x="89" y="261.981">
    {
  </text>
  <text font-family="monospace" font-size="13" lengthAdjust="spacingAndGlyphs" textLength="192" x="113" y="277.114">
    consentRequestId: &quot;456&quot;,
  </text>
  <text font-family="monospace" font-size="13" font-weight="bold" lengthAdjust="spacingAndGlyphs" textLength="672" x="113" y="292.247">
    userId: &quot;username1234&quot;, //so the dfsp can associate this request with GET /accounts/
  </text>
  <text font-family="monospace" font-size="13" lengthAdjust="spacingAndGlyphs" textLength="72" x="113" y="307.379">
    scopes: [
  </text>
  <text font-family="monospace" font-size="13" lengthAdjust="spacingAndGlyphs" textLength="8" x="129" y="322.512">
    {
  </text>
  <text font-family="monospace" font-size="13" font-weight="bold" lengthAdjust="spacingAndGlyphs" textLength="424" x="145" y="322.512">
    accountId: &quot;dfsp.username.1234&quot;, // Required for OTP!
  </text>
  <text font-family="monospace" font-size="13" lengthAdjust="spacingAndGlyphs" textLength="464" x="145" y="337.645">
    actions: [ &quot;accounts.transfer&quot;, &quot;accounts.getBalance&quot; ] },
  </text>
  <text font-family="monospace" font-size="13" lengthAdjust="spacingAndGlyphs" textLength="272" x="129" y="352.778">
    { accountId: &quot;dfsp.username.5678&quot;,
  </text>
  <text font-family="monospace" font-size="13" lengthAdjust="spacingAndGlyphs" textLength="464" x="145" y="367.911">
    actions: [ &quot;accounts.transfer&quot;, &quot;accounts.getBalance&quot; ] },
  </text>
  <text font-family="monospace" font-size="13" lengthAdjust="spacingAndGlyphs" textLength="16" x="113" y="383.043">
    ],
  </text>
  <text font-family="monospace" font-size="13" lengthAdjust="spacingAndGlyphs" textLength="248" x="113" y="398.176">
    authChannels: [ &quot;Web&quot;, &quot;OTP&quot; ],
  </text>
  <text font-family="monospace" font-size="13" lengthAdjust="spacingAndGlyphs" textLength="288" x="113" y="413.309">
    callbackUri: &quot;pisp-app://callback...
  </text>
  <text font-family="sans-serif" font-size="13" lengthAdjust="spacingAndGlyphs" textLength="5" x="401" y="413.309">
    &quot;
  </text>
  <text font-family="monospace" font-size="13" lengthAdjust="spacingAndGlyphs" textLength="8" x="97" y="428.442">
    }
  </text>
  <path fill="#A80036" stroke="#a80036" d="M40 458.64l-10 4 10 4-4-4z"/>
  <path stroke="#a80036" stroke-dasharray="2,2" d="M34 462.641h763"/>
  <text font-family="sans-serif" font-size="13" font-weight="bold" lengthAdjust="spacingAndGlyphs" textLength="44" x="46" y="457.575">
    REQ-2
  </text>
  <text font-family="monospace" font-size="13" lengthAdjust="spacingAndGlyphs" textLength="96" x="94" y="457.575">
    202 Accepted
  </text>
  <path fill="#A80036" stroke="#a80036" d="M1424 699.633l10 4-10 4 4-4z"/>
  <path stroke="#a80036" d="M808 703.633h622"/>
  <text font-family="sans-serif" font-size="13" font-weight="bold" lengthAdjust="spacingAndGlyphs" textLength="44" x="815" y="592.637">
    REQ-3
  </text>
  <text font-family="monospace" font-size="13" lengthAdjust="spacingAndGlyphs" textLength="168" x="863" y="486.707">
    POST /consentRequests
  </text>
  <text font-family="monospace" font-size="13" lengthAdjust="spacingAndGlyphs" textLength="152" x="887" y="501.84">
    FSIOP-Source: pispa
  </text>
  <text font-family="monospace" font-size="13" lengthAdjust="spacingAndGlyphs" textLength="192" x="887" y="516.973">
    FSIOP-Destination: dfspa
  </text>
  <text font-family="monospace" font-size="13" lengthAdjust="spacingAndGlyphs" textLength="8" x="863" y="532.106">
    {
  </text>
  <text font-family="monospace" font-size="13" lengthAdjust="spacingAndGlyphs" textLength="192" x="887" y="547.239">
    consentRequestId: &quot;456&quot;,
  </text>
  <text font-family="monospace" font-size="13" lengthAdjust="spacingAndGlyphs" textLength="184" x="887" y="562.372">
    userId: &quot;username1234&quot;,
  </text>
  <text font-family="monospace" font-size="13" lengthAdjust="spacingAndGlyphs" textLength="72" x="887" y="577.504">
    scopes: [
  </text>
  <text font-family="monospace" font-size="13" lengthAdjust="spacingAndGlyphs" textLength="272" x="903" y="592.637">
    { accountId: &quot;dfsp.username.1234&quot;,
  </text>
  <text font-family="monospace" font-size="13" lengthAdjust="spacingAndGlyphs" textLength="464" x="919" y="607.77">
    actions: [ &quot;accounts.transfer&quot;, &quot;accounts.getBalance&quot; ] },
  </text>
  <text font-family="monospace" font-size="13" lengthAdjust="spacingAndGlyphs" textLength="272" x="903" y="622.903">
    { accountId: &quot;dfsp.username.5678&quot;,
  </text>
  <text font-family="monospace" font-size="13" lengthAdjust="spacingAndGlyphs" textLength="464" x="919" y="638.036">
    actions: [ &quot;accounts.transfer&quot;, &quot;accounts.getBalance&quot; ] },
  </text>
  <text font-family="monospace" font-size="13" lengthAdjust="spacingAndGlyphs" textLength="16" x="887" y="653.168">
    ],
  </text>
  <text font-family="monospace" font-size="13" lengthAdjust="spacingAndGlyphs" textLength="248" x="887" y="668.301">
    authChannels: [ &quot;Web&quot;, &quot;OTP&quot; ],
  </text>
  <text font-family="monospace" font-size="13" lengthAdjust="spacingAndGlyphs" textLength="288" x="887" y="683.434">
    callbackUri: &quot;pisp-app://callback...
  </text>
  <text font-family="sans-serif" font-size="13" lengthAdjust="spacingAndGlyphs" textLength="5" x="1175" y="683.434">
    &quot;
  </text>
  <text font-family="monospace" font-size="13" lengthAdjust="spacingAndGlyphs" textLength="8" x="871" y="698.567">
    }
  </text>
  <path fill="#A80036" stroke="#a80036" d="M814 728.766l-10 4 10 4-4-4z"/>
  <path stroke="#a80036" stroke-dasharray="2,2" d="M808 732.766h627"/>
  <text font-family="sans-serif" font-size="13" font-weight="bold" lengthAdjust="spacingAndGlyphs" textLength="44" x="820" y="727.7">
    REQ-4
  </text>
  <text font-family="monospace" font-size="13" lengthAdjust="spacingAndGlyphs" textLength="96" x="868" y="727.7">
    202 Accepted
  </text>
  <path stroke="#a80036" d="M1446 761.898h42M1488 761.898v13M1447 774.898h41"/>
  <path fill="#A80036" stroke="#a80036" d="M1457 770.898l-10 4 10 4-4-4z"/>
  <text font-family="sans-serif" font-size="13" font-weight="bold" lengthAdjust="spacingAndGlyphs" textLength="53" x="1453" y="756.832">
    DFSP-1
  </text>
  <text font-family="sans-serif" font-size="13" lengthAdjust="spacingAndGlyphs" textLength="264" x="1510" y="756.832">
    Verify the consentRequest is valid or not?
  </text>
  <path fill="#A80036" stroke="#a80036" d="M1774 875.695l10 4-10 4 4-4z"/>
  <path stroke="#a80036" d="M1446 879.695h334"/>
  <text font-family="sans-serif" font-size="13" font-weight="bold" lengthAdjust="spacingAndGlyphs" textLength="40" x="1453" y="836.797">
    SIM-1
  </text>
  <text font-family="monospace" font-size="13" lengthAdjust="spacingAndGlyphs" textLength="104" x="1497" y="798.965">
    POST /sendOTP
  </text>
  <text font-family="monospace" font-size="13" lengthAdjust="spacingAndGlyphs" textLength="8" x="1505" y="814.098">
    {
  </text>
  <text font-family="monospace" font-size="13" lengthAdjust="spacingAndGlyphs" textLength="192" x="1521" y="829.231">
    consentRequestId: &quot;456&quot;,
  </text>
  <text font-family="monospace" font-size="13" lengthAdjust="spacingAndGlyphs" textLength="200" x="1521" y="844.364">
    username:&quot;username.1234&quot;,
  </text>
  <text font-family="monospace" font-size="13" lengthAdjust="spacingAndGlyphs" textLength="120" x="1521" y="859.497">
    message: &quot;0987&quot;
  </text>
  <text font-family="monospace" font-size="13" lengthAdjust="spacingAndGlyphs" textLength="8" x="1505" y="874.629">
    }
  </text>
  <path stroke="#a80036" d="M1786 908.828h42M1828 908.828v13M1787 921.828h41"/>
  <path fill="#A80036" stroke="#a80036" d="M1797 917.828l-10 4 10 4-4-4z"/>
  <text font-family="sans-serif" font-size="13" font-weight="bold" lengthAdjust="spacingAndGlyphs" textLength="40" x="1793" y="903.762">
    SIM-2
  </text>
  <text font-family="sans-serif" font-size="13" lengthAdjust="spacingAndGlyphs" textLength="91" x="1837" y="903.762">
    take action on
  </text>
  <text font-family="sans-serif" font-size="13" font-weight="bold" lengthAdjust="spacingAndGlyphs" textLength="225" x="1932" y="903.762">
    TTK defined rule for username
  </text>
  <path fill="#A80036" stroke="#a80036" d="M1457 946.96l-10 4 10 4-4-4z"/>
  <path stroke="#a80036" d="M1451 950.961h334"/>
  <text font-family="sans-serif" font-size="13" font-weight="bold" lengthAdjust="spacingAndGlyphs" textLength="40" x="1463" y="945.895">
    SIM-3
  </text>
  <text font-family="sans-serif" font-size="13" lengthAdjust="spacingAndGlyphs" textLength="46" x="1507" y="945.895">
    201 OK
  </text>
  <path fill="#A80036" stroke="#a80036" d="M819 1172.82l-10 4 10 4-4-4z"/>
  <path stroke="#a80036" d="M813 1176.82h622"/>
  <text font-family="sans-serif" font-size="13" font-weight="bold" lengthAdjust="spacingAndGlyphs" textLength="44" x="825" y="1073.391">
    REQ-5
  </text>
  <text font-family="monospace" font-size="13" lengthAdjust="spacingAndGlyphs" textLength="192" x="873" y="975.028">
    PUT /consentRequests/456
  </text>
  <text font-family="monospace" font-size="13" lengthAdjust="spacingAndGlyphs" textLength="152" x="897" y="990.161">
    FSIOP-Source: dfspa
  </text>
  <text font-family="monospace" font-size="13" lengthAdjust="spacingAndGlyphs" textLength="192" x="897" y="1005.293">
    FSIOP-Destination: pispa
  </text>
  <text font-family="monospace" font-size="13" lengthAdjust="spacingAndGlyphs" textLength="8" x="881" y="1020.426">
    {
  </text>
  <text font-family="monospace" font-size="13" font-weight="bold" lengthAdjust="spacingAndGlyphs" textLength="536" x="897" y="1035.559">
    authChannels: [ &quot;OTP&quot; ], // This is updated with the channel in use
  </text>
  <text font-family="monospace" font-size="13" lengthAdjust="spacingAndGlyphs" textLength="72" x="897" y="1050.692">
    scopes: [
  </text>
  <text font-family="monospace" font-size="13" lengthAdjust="spacingAndGlyphs" textLength="272" x="913" y="1065.825">
    { accountId: &quot;dfsp.username.1234&quot;,
  </text>
  <text font-family="monospace" font-size="13" lengthAdjust="spacingAndGlyphs" textLength="464" x="929" y="1080.957">
    actions: [ &quot;accounts.transfer&quot;, &quot;accounts.getBalance&quot; ] },
  </text>
  <text font-family="monospace" font-size="13" lengthAdjust="spacingAndGlyphs" textLength="272" x="913" y="1096.09">
    { accountId: &quot;dfsp.username.5678&quot;,
  </text>
  <text font-family="monospace" font-size="13" lengthAdjust="spacingAndGlyphs" textLength="464" x="929" y="1111.223">
    actions: [ &quot;accounts.transfer&quot;, &quot;accounts.getBalance&quot; ] },
  </text>
  <text font-family="monospace" font-size="13" lengthAdjust="spacingAndGlyphs" textLength="16" x="897" y="1126.356">
    ],
  </text>
  <text font-family="monospace" font-size="13" lengthAdjust="spacingAndGlyphs" textLength="288" x="897" y="1141.489">
    callbackUri: &quot;pisp-app://callback...
  </text>
  <text font-family="sans-serif" font-size="13" lengthAdjust="spacingAndGlyphs" textLength="5" x="1185" y="1141.489">
    &quot;
  </text>
  <text font-family="monospace" font-size="13" font-weight="bold" lengthAdjust="spacingAndGlyphs" textLength="248" x="897" y="1156.622">
    //note: no authUri for OTP flow
  </text>
  <text font-family="monospace" font-size="13" lengthAdjust="spacingAndGlyphs" textLength="8" x="881" y="1171.754">
    }
  </text>
  <path fill="#A80036" stroke="#a80036" d="M1429 1201.953l10 4-10 4 4-4z"/>
  <path stroke="#a80036" stroke-dasharray="2,2" d="M808 1205.953h627"/>
  <text font-family="sans-serif" font-size="13" font-weight="bold" lengthAdjust="spacingAndGlyphs" textLength="44" x="815" y="1200.887">
    REQ-6
  </text>
  <text font-family="monospace" font-size="13" lengthAdjust="spacingAndGlyphs" textLength="96" x="863" y="1200.887">
    202 Accepted
  </text>
  <path d="M5 1218.953v25h1458v-15l-10-10H5" fill="#FBFB77" filter="url(#a)" stroke="#a80036"/>
  <path d="M1453 1218.953v10h10l-10-10" fill="#FBFB77" stroke="#a80036"/>
  <text font-family="sans-serif" font-size="13" lengthAdjust="spacingAndGlyphs" textLength="414" x="520.75" y="1236.02">
    Here, the DFSP sends an OTP directly to the user (e.g., via SMS).
  </text>
  <path fill="#A80036" stroke="#a80036" d="M40 1466.945l-10 4 10 4-4-4z"/>
  <path stroke="#a80036" d="M34 1470.945h763"/>
  <text font-family="sans-serif" font-size="13" font-weight="bold" lengthAdjust="spacingAndGlyphs" textLength="44" x="46" y="1367.516">
    REQ-7
  </text>
  <text font-family="monospace" font-size="13" lengthAdjust="spacingAndGlyphs" textLength="192" x="94" y="1269.153">
    PUT /consentRequests/456
  </text>
  <text font-family="monospace" font-size="13" lengthAdjust="spacingAndGlyphs" textLength="152" x="118" y="1284.286">
    FSIOP-Source: dfspa
  </text>
  <text font-family="monospace" font-size="13" lengthAdjust="spacingAndGlyphs" textLength="192" x="118" y="1299.418">
    FSIOP-Destination: pispa
  </text>
  <text font-family="monospace" font-size="13" lengthAdjust="spacingAndGlyphs" textLength="8" x="94" y="1314.551">
    {
  </text>
  <text font-family="monospace" font-size="13" font-weight="bold" lengthAdjust="spacingAndGlyphs" textLength="536" x="118" y="1329.684">
    authChannels: [ &quot;OTP&quot; ], // This is updated with the channel in use
  </text>
  <text font-family="monospace" font-size="13" lengthAdjust="spacingAndGlyphs" textLength="72" x="118" y="1344.817">
    scopes: [
  </text>
  <text font-family="monospace" font-size="13" lengthAdjust="spacingAndGlyphs" textLength="272" x="134" y="1359.95">
    { accountId: &quot;dfsp.username.1234&quot;,
  </text>
  <text font-family="monospace" font-size="13" lengthAdjust="spacingAndGlyphs" textLength="464" x="150" y="1375.082">
    actions: [ &quot;accounts.transfer&quot;, &quot;accounts.getBalance&quot; ] },
  </text>
  <text font-family="monospace" font-size="13" lengthAdjust="spacingAndGlyphs" textLength="272" x="134" y="1390.215">
    { accountId: &quot;dfsp.username.5678&quot;,
  </text>
  <text font-family="monospace" font-size="13" lengthAdjust="spacingAndGlyphs" textLength="464" x="150" y="1405.348">
    actions: [ &quot;accounts.transfer&quot;, &quot;accounts.getBalance&quot; ] },
  </text>
  <text font-family="monospace" font-size="13" lengthAdjust="spacingAndGlyphs" textLength="16" x="118" y="1420.481">
    ],
  </text>
  <text font-family="monospace" font-size="13" lengthAdjust="spacingAndGlyphs" textLength="288" x="118" y="1435.614">
    callbackUri: &quot;pisp-app://callback...
  </text>
  <text font-family="sans-serif" font-size="13" lengthAdjust="spacingAndGlyphs" textLength="5" x="406" y="1435.614">
    &quot;
  </text>
  <text font-family="monospace" font-size="13" font-weight="bold" lengthAdjust="spacingAndGlyphs" textLength="248" x="118" y="1450.747">
    //note: no authUri for OTP flow
  </text>
  <text font-family="monospace" font-size="13" lengthAdjust="spacingAndGlyphs" textLength="8" x="102" y="1465.879">
    }
  </text>
  <path fill="#A80036" stroke="#a80036" d="M791 1496.078l10 4-10 4 4-4z"/>
  <path stroke="#a80036" stroke-dasharray="2,2" d="M29 1500.078h768"/>
  <text font-family="sans-serif" font-size="13" font-weight="bold" lengthAdjust="spacingAndGlyphs" textLength="44" x="36" y="1495.012">
    REQ-8
  </text>
  <text font-family="monospace" font-size="13" lengthAdjust="spacingAndGlyphs" textLength="96" x="84" y="1495.012">
    202 Accepted
  </text>
  <path d="M5 1513.078v25h1458v-15l-10-10H5" fill="#FBFB77" filter="url(#a)" stroke="#a80036"/>
  <path d="M1453 1513.078v10h10l-10-10" fill="#FBFB77" stroke="#a80036"/>
  <text font-family="sans-serif" font-size="13" lengthAdjust="spacingAndGlyphs" textLength="800" x="327.75" y="1530.145">
    At this point, the PISP knows that the OTP authChannel is in use and the PISP App should prompt the user to provide the OTP.
  </text>
</svg>
