<svg xmlns="http://www.w3.org/2000/svg" height="1180" preserveAspectRatio="none" style="width:1313px;height:1180px" width="1313">
  <defs>
    <filter height="300%" id="a" width="300%" x="-1" y="-1">
      <feGaussianBlur result="blurOut" stdDeviation="2"/>
      <feColorMatrix in="blurOut" result="blurOut2" values="0 0 0 0 0 0 0 0 0 0 0 0 0 0 0 0 0 0 .4 0"/>
      <feOffset dx="4" dy="4" in="blurOut2" result="blurOut3"/>
      <feBlend in="SourceGraphic" in2="blurOut3"/>
    </filter>
  </defs>
  <path fill="#DDD" stroke="#a80036" d="M395.5 40.953H984v1133.703H395.5z"/>
  <text font-family="sans-serif" font-size="13" font-weight="bold" lengthAdjust="spacingAndGlyphs" textLength="67" x="656.25" y="53.02">
    Mojaloop
  </text>
  <text font-family="sans-serif" font-size="18" lengthAdjust="spacingAndGlyphs" textLength="203" x="552.75" y="28.708">
    PISP Linking: Unlinking
  </text>
  <path stroke="#a80036" d="M29 95.383v8"/>
  <path stroke="#a80036" stroke-dasharray="1,4" d="M29 103.383v28"/>
  <path stroke="#a80036" d="M29 131.383v39.133"/>
  <path stroke="#a80036" stroke-dasharray="1,4" d="M29 170.516v28"/>
  <path stroke="#a80036" d="M29 198.516v934.843"/>
  <path fill="#FFF" filter="url(#a)" stroke="#fff" d="M24 103.383h10v67.133H24z"/>
  <path stroke="#a80036" d="M24 103.383v67.133M34 103.383v67.133M24 103.383h10"/>
  <path fill="#FFF" filter="url(#a)" stroke="#fff" d="M24 198.516h10v80.531H24z"/>
  <path stroke="#a80036" d="M24 198.516v80.531M34 198.516v80.531M24 279.047h10"/>
  <path fill="#FFF" filter="url(#a)" stroke="#a80036" d="M24 754.969h10v378.391H24z"/>
  <path stroke="#a80036" d="M431 95.383v8"/>
  <path stroke="#a80036" stroke-dasharray="1,4" d="M431 103.383v28"/>
  <path stroke="#a80036" d="M431 131.383v39.133"/>
  <path stroke="#a80036" stroke-dasharray="1,4" d="M431 170.516v28"/>
  <path stroke="#a80036" d="M431 198.516v934.843"/>
  <path fill="#FFF" filter="url(#a)" stroke="#a80036" d="M426 249.914h10v193.93h-10zM426 605.906h10v527.453h-10z"/>
  <path fill="#FFF" filter="url(#a)" stroke="#a80036" d="M431 937.164h10v196.195h-10z"/>
  <path stroke="#a80036" d="M774 95.383v8"/>
  <path stroke="#a80036" stroke-dasharray="1,4" d="M774 103.383v28"/>
  <path stroke="#a80036" d="M774 131.383v39.133"/>
  <path stroke="#a80036" stroke-dasharray="1,4" d="M774 170.516v28"/>
  <path stroke="#a80036" d="M774 198.516v934.843M928 95.383v8"/>
  <path stroke="#a80036" stroke-dasharray="1,4" d="M928 103.383v28"/>
  <path stroke="#a80036" d="M928 131.383v39.133"/>
  <path stroke="#a80036" stroke-dasharray="1,4" d="M928 170.516v28"/>
  <path stroke="#a80036" d="M928 198.516v934.843"/>
  <path fill="#FFF" filter="url(#a)" stroke="#a80036" d="M923 414.711h10v220.328h-10z"/>
  <path stroke="#a80036" d="M1276 95.383v8"/>
  <path stroke="#a80036" stroke-dasharray="1,4" d="M1276 103.383v28"/>
  <path stroke="#a80036" d="M1276 131.383v39.133"/>
  <path stroke="#a80036" stroke-dasharray="1,4" d="M1276 170.516v28"/>
  <path stroke="#a80036" d="M1276 198.516v934.843"/>
  <path fill="#FFF" filter="url(#a)" stroke="#a80036" d="M1271 1086.227h10v47.133h-10z"/>
  <path fill="#FEFECE" filter="url(#a)" stroke="#a80036" stroke-width="1.5" d="M5 60.086h44v30.297H5z"/>
  <text font-family="sans-serif" font-size="14" lengthAdjust="spacingAndGlyphs" textLength="30" x="12" y="80.081">
    PISP
  </text>
  <path fill="#FEFECE" filter="url(#a)" stroke="#a80036" stroke-width="1.5" d="M399.5 60.086h59v30.297h-59z"/>
  <text font-family="sans-serif" font-size="14" lengthAdjust="spacingAndGlyphs" textLength="45" x="406.5" y="80.081">
    Switch
  </text>
  <path fill="#FEFECE" filter="url(#a)" stroke="#a80036" stroke-width="1.5" d="M682 60.086h180v30.297H682z"/>
  <text font-family="sans-serif" font-size="14" lengthAdjust="spacingAndGlyphs" textLength="166" x="689" y="80.081">
    Account Lookup Service
  </text>
  <path fill="#FEFECE" filter="url(#a)" stroke="#a80036" stroke-width="1.5" d="M876 60.086h100v30.297H876z"/>
  <text font-family="sans-serif" font-size="14" lengthAdjust="spacingAndGlyphs" textLength="86" x="883" y="80.081">
    Auth Service
  </text>
  <path fill="#FEFECE" filter="url(#a)" stroke="#a80036" stroke-width="1.5" d="M1248.5 60.086h51v30.297h-51z"/>
  <text font-family="sans-serif" font-size="14" lengthAdjust="spacingAndGlyphs" textLength="37" x="1255.5" y="80.081">
    DFSP
  </text>
  <path fill="#FEFECE" filter="url(#a)" stroke="#a80036" stroke-width="1.5" d="M5 1133.359h44v30.297H5z"/>
  <text font-family="sans-serif" font-size="14" lengthAdjust="spacingAndGlyphs" textLength="30" x="12" y="1153.354">
    PISP
  </text>
  <path fill="#FEFECE" filter="url(#a)" stroke="#a80036" stroke-width="1.5" d="M399.5 1133.359h59v30.297h-59z"/>
  <text font-family="sans-serif" font-size="14" lengthAdjust="spacingAndGlyphs" textLength="45" x="406.5" y="1153.354">
    Switch
  </text>
  <path fill="#FEFECE" filter="url(#a)" stroke="#a80036" stroke-width="1.5" d="M682 1133.359h180v30.297H682z"/>
  <text font-family="sans-serif" font-size="14" lengthAdjust="spacingAndGlyphs" textLength="166" x="689" y="1153.354">
    Account Lookup Service
  </text>
  <path fill="#FEFECE" filter="url(#a)" stroke="#a80036" stroke-width="1.5" d="M876 1133.359h100v30.297H876z"/>
  <text font-family="sans-serif" font-size="14" lengthAdjust="spacingAndGlyphs" textLength="86" x="883" y="1153.354">
    Auth Service
  </text>
  <path fill="#FEFECE" filter="url(#a)" stroke="#a80036" stroke-width="1.5" d="M1248.5 1133.359h51v30.297h-51z"/>
  <text font-family="sans-serif" font-size="14" lengthAdjust="spacingAndGlyphs" textLength="37" x="1255.5" y="1153.354">
    DFSP
  </text>
  <path d="M8.25 136.383v25h1288v-15l-10-10H8.25" fill="#FBFB77" filter="url(#a)" stroke="#a80036"/>
  <path d="M1286.25 136.383v10h10l-10-10" fill="#FBFB77" stroke="#a80036"/>
  <text font-family="sans-serif" font-size="13" lengthAdjust="spacingAndGlyphs" textLength="546" x="319.5" y="153.45">
    In this scenario there is no Hub-hosted Auth Service. The DFSP is the authority on the
  </text>
  <text font-family="monospace" font-size="13" lengthAdjust="spacingAndGlyphs" textLength="56" x="869.5" y="153.45">
    Consent
  </text>
  <text font-family="sans-serif" font-size="13" lengthAdjust="spacingAndGlyphs" textLength="43" x="929.5" y="153.45">
    object.
  </text>
  <path fill="#A80036" stroke="#a80036" d="M414 245.914l10 4-10 4 4-4z"/>
  <path stroke="#a80036" d="M34 249.914h386"/>
  <text font-family="sans-serif" font-size="13" font-weight="bold" lengthAdjust="spacingAndGlyphs" textLength="83" x="41" y="229.715">
    UNLINK-B-1
  </text>
  <text font-family="monospace" font-size="13" lengthAdjust="spacingAndGlyphs" textLength="160" x="128" y="214.583">
    DELETE /consents/123
  </text>
  <text font-family="monospace" font-size="13" lengthAdjust="spacingAndGlyphs" textLength="152" x="144" y="229.715">
    FSIOP-Source: pispa
  </text>
  <text font-family="monospace" font-size="13" lengthAdjust="spacingAndGlyphs" textLength="192" x="144" y="244.848">
    FSIOP-Destination: dfspa
  </text>
  <path fill="#A80036" stroke="#a80036" d="M45 275.047l-10 4 10 4-4-4z"/>
  <path stroke="#a80036" stroke-dasharray="2,2" d="M39 279.047h386"/>
  <text font-family="sans-serif" font-size="13" font-weight="bold" lengthAdjust="spacingAndGlyphs" textLength="83" x="51" y="273.981">
    UNLINK-B-2
  </text>
  <text font-family="monospace" font-size="13" lengthAdjust="spacingAndGlyphs" textLength="96" x="138" y="273.981">
    202 Accepted
  </text>
  <path fill="#A80036" stroke="#a80036" d="M762 304.18l10 4-10 4 4-4z"/>
  <path stroke="#a80036" d="M436 308.18h332"/>
  <text font-family="sans-serif" font-size="13" font-weight="bold" lengthAdjust="spacingAndGlyphs" textLength="83" x="443" y="303.114">
    UNLINK-B-3
  </text>
  <text font-family="monospace" font-size="13" lengthAdjust="spacingAndGlyphs" textLength="232" x="530" y="303.114">
    GET /participants/CONSENT/123
  </text>
  <path fill="#A80036" stroke="#a80036" d="M447 348.445l-10 4 10 4-4-4z"/>
  <path stroke="#a80036" stroke-dasharray="2,2" d="M441 352.445h332"/>
  <text font-family="sans-serif" font-size="13" font-weight="bold" lengthAdjust="spacingAndGlyphs" textLength="83" x="453" y="339.813">
    UNLINK-B-4
  </text>
  <text font-family="monospace" font-size="13" lengthAdjust="spacingAndGlyphs" textLength="48" x="540" y="332.247">
    200 OK
  </text>
  <text font-family="monospace" font-size="13" lengthAdjust="spacingAndGlyphs" textLength="216" x="548" y="347.379">
    { &quot;fspId&quot;: &quot;central-auth&quot; }
  </text>
  <path fill="#D3D3D3" filter="url(#a)" stroke="#a80036" d="M201.5 365.445h459v23h-459z"/>
  <text font-family="sans-serif" font-size="13" lengthAdjust="spacingAndGlyphs" textLength="363" x="205.5" y="381.512">
    Hub has determined that &apos;central-auth- is responsible for
  </text>
  <text font-family="monospace" font-size="13" lengthAdjust="spacingAndGlyphs" textLength="56" x="572.5" y="381.512">
    Consent
  </text>
  <text font-family="sans-serif" font-size="13" lengthAdjust="spacingAndGlyphs" textLength="24" x="632.5" y="381.512">
    123
  </text>
  <path fill="#A80036" stroke="#a80036" d="M911 410.71l10 4-10 4 4-4z"/>
  <path stroke="#a80036" d="M436 414.711h481"/>
  <text font-family="sans-serif" font-size="13" font-weight="bold" lengthAdjust="spacingAndGlyphs" textLength="83" x="443" y="409.645">
    UNLINK-B-5
  </text>
  <text font-family="monospace" font-size="13" lengthAdjust="spacingAndGlyphs" textLength="160" x="530" y="409.645">
    DELETE /consents/123
  </text>
  <path fill="#A80036" stroke="#a80036" d="M447 439.844l-10 4 10 4-4-4z"/>
  <path stroke="#a80036" stroke-dasharray="2,2" d="M441 443.844h481"/>
  <text font-family="sans-serif" font-size="13" font-weight="bold" lengthAdjust="spacingAndGlyphs" textLength="83" x="453" y="438.778">
    UNLINK-B-6
  </text>
  <text font-family="monospace" font-size="13" lengthAdjust="spacingAndGlyphs" textLength="96" x="540" y="438.778">
    202 Accepted
  </text>
  <path stroke="#a80036" d="M933 472.977h42M975 472.977v13M934 485.977h41"/>
  <path fill="#A80036" stroke="#a80036" d="M944 481.977l-10 4 10 4-4-4z"/>
  <text font-family="sans-serif" font-size="13" font-weight="bold" lengthAdjust="spacingAndGlyphs" textLength="83" x="940" y="467.911">
    UNLINK-B-7
  </text>
  <text font-family="sans-serif" font-size="13" lengthAdjust="spacingAndGlyphs" textLength="56" x="1027" y="467.911">
    Mark the
  </text>
  <text font-family="monospace" font-size="13" lengthAdjust="spacingAndGlyphs" textLength="56" x="1087" y="467.911">
    Consent
  </text>
  <text font-family="sans-serif" font-size="13" lengthAdjust="spacingAndGlyphs" textLength="122" x="1147" y="467.911">
    object as &quot;Deleted&quot;
  </text>
  <path fill="#A80036" stroke="#a80036" d="M447 601.906l-10 4 10 4-4-4z"/>
  <path stroke="#a80036" d="M441 605.906h481"/>
  <text font-family="sans-serif" font-size="13" font-weight="bold" lengthAdjust="spacingAndGlyphs" textLength="83" x="453" y="555.442">
    UNLINK-B-8
  </text>
  <text font-family="monospace" font-size="13" lengthAdjust="spacingAndGlyphs" textLength="152" x="540" y="510.043">
    PATCH /consents/123
  </text>
  <text font-family="monospace" font-size="13" lengthAdjust="spacingAndGlyphs" textLength="208" x="556" y="525.176">
    FSIOP-Source: central-auth
  </text>
  <text font-family="monospace" font-size="13" lengthAdjust="spacingAndGlyphs" textLength="192" x="556" y="540.309">
    FSIOP-Destination: pispa
  </text>
  <text font-family="monospace" font-size="13" lengthAdjust="spacingAndGlyphs" textLength="8" x="540" y="555.442">
    {
  </text>
  <text font-family="monospace" font-size="13" lengthAdjust="spacingAndGlyphs" textLength="120" x="556" y="570.575">
    status: string,
  </text>
  <text font-family="monospace" font-size="13" lengthAdjust="spacingAndGlyphs" textLength="256" x="556" y="585.707">
    revokedAt: string (of timestamp)
  </text>
  <text font-family="monospace" font-size="13" lengthAdjust="spacingAndGlyphs" textLength="8" x="540" y="600.84">
    }
  </text>
  <path fill="#A80036" stroke="#a80036" d="M911 631.04l10 4-10 4 4-4z"/>
  <path stroke="#a80036" stroke-dasharray="2,2" d="M436 635.039h481"/>
  <text font-family="sans-serif" font-size="13" font-weight="bold" lengthAdjust="spacingAndGlyphs" textLength="83" x="443" y="629.973">
    UNLINK-B-9
  </text>
  <text font-family="monospace" font-size="13" lengthAdjust="spacingAndGlyphs" textLength="48" x="530" y="629.973">
    200 OK
  </text>
  <path fill="#A80036" stroke="#a80036" d="M45 750.969l-10 4 10 4-4-4z"/>
  <path stroke="#a80036" d="M39 754.969h386"/>
  <text font-family="sans-serif" font-size="13" font-weight="bold" lengthAdjust="spacingAndGlyphs" textLength="92" x="51" y="704.504">
    UNLINK-B-10
  </text>
  <text font-family="monospace" font-size="13" lengthAdjust="spacingAndGlyphs" textLength="152" x="147" y="659.106">
    PATCH /consents/123
  </text>
  <text font-family="monospace" font-size="13" lengthAdjust="spacingAndGlyphs" textLength="208" x="163" y="674.239">
    FSIOP-Source: central-auth
  </text>
  <text font-family="monospace" font-size="13" lengthAdjust="spacingAndGlyphs" textLength="192" x="163" y="689.372">
    FSIOP-Destination: pispa
  </text>
  <text font-family="monospace" font-size="13" lengthAdjust="spacingAndGlyphs" textLength="8" x="147" y="704.504">
    {
  </text>
  <text font-family="monospace" font-size="13" lengthAdjust="spacingAndGlyphs" textLength="120" x="163" y="719.637">
    status: string,
  </text>
  <text font-family="monospace" font-size="13" lengthAdjust="spacingAndGlyphs" textLength="256" x="163" y="734.77">
    revokedAt: string (of timestamp)
  </text>
  <text font-family="monospace" font-size="13" lengthAdjust="spacingAndGlyphs" textLength="8" x="147" y="749.903">
    }
  </text>
  <path fill="#A80036" stroke="#a80036" d="M414 780.102l10 4-10 4 4-4z"/>
  <path stroke="#a80036" stroke-dasharray="2,2" d="M34 784.102h386"/>
  <text font-family="sans-serif" font-size="13" font-weight="bold" lengthAdjust="spacingAndGlyphs" textLength="92" x="41" y="779.036">
    UNLINK-B-11
  </text>
  <text font-family="monospace" font-size="13" lengthAdjust="spacingAndGlyphs" textLength="48" x="137" y="779.036">
    200 OK
  </text>
  <path fill="#D3D3D3" filter="url(#a)" stroke="#a80036" d="M725 797.102h406v23H725z"/>
  <text font-family="sans-serif" font-size="13" lengthAdjust="spacingAndGlyphs" textLength="398" x="729" y="813.168">
    Auth Service must also inform the DFSP of the updated status
  </text>
  <path fill="#A80036" stroke="#a80036" d="M452 933.164l-10 4 10 4-4-4z"/>
  <path stroke="#a80036" d="M446 937.164h481"/>
  <text font-family="sans-serif" font-size="13" font-weight="bold" lengthAdjust="spacingAndGlyphs" textLength="92" x="458" y="886.7">
    UNLINK-B-12
  </text>
  <text font-family="monospace" font-size="13" lengthAdjust="spacingAndGlyphs" textLength="152" x="554" y="841.301">
    PATCH /consents/123
  </text>
  <text font-family="monospace" font-size="13" lengthAdjust="spacingAndGlyphs" textLength="208" x="570" y="856.434">
    FSIOP-Source: central-auth
  </text>
  <text font-family="monospace" font-size="13" lengthAdjust="spacingAndGlyphs" textLength="192" x="570" y="871.567">
    FSIOP-Destination: dfspa
  </text>
  <text font-family="monospace" font-size="13" lengthAdjust="spacingAndGlyphs" textLength="8" x="554" y="886.7">
    {
  </text>
  <text font-family="monospace" font-size="13" lengthAdjust="spacingAndGlyphs" textLength="120" x="570" y="901.832">
    status: string,
  </text>
  <text font-family="monospace" font-size="13" lengthAdjust="spacingAndGlyphs" textLength="256" x="570" y="916.965">
    revokedAt: string (of timestamp)
  </text>
  <text font-family="monospace" font-size="13" lengthAdjust="spacingAndGlyphs" textLength="8" x="554" y="932.098">
    }
  </text>
  <path fill="#A80036" stroke="#a80036" d="M916 962.297l10 4-10 4 4-4z"/>
  <path stroke="#a80036" stroke-dasharray="2,2" d="M441 966.297h481"/>
  <text font-family="sans-serif" font-size="13" font-weight="bold" lengthAdjust="spacingAndGlyphs" textLength="92" x="448" y="961.231">
    UNLINK-B-13
  </text>
  <text font-family="monospace" font-size="13" lengthAdjust="spacingAndGlyphs" textLength="48" x="544" y="961.231">
    200 OK
  </text>
  <path fill="#A80036" stroke="#a80036" d="M1259 1082.227l10 4-10 4 4-4z"/>
  <path stroke="#a80036" d="M441 1086.227h824"/>
  <text font-family="sans-serif" font-size="13" font-weight="bold" lengthAdjust="spacingAndGlyphs" textLength="92" x="448" y="1035.762">
    UNLINK-B-14
  </text>
  <text font-family="monospace" font-size="13" lengthAdjust="spacingAndGlyphs" textLength="152" x="544" y="990.364">
    PATCH /consents/123
  </text>
  <text font-family="monospace" font-size="13" lengthAdjust="spacingAndGlyphs" textLength="208" x="560" y="1005.497">
    FSIOP-Source: central-auth
  </text>
  <text font-family="monospace" font-size="13" lengthAdjust="spacingAndGlyphs" textLength="192" x="560" y="1020.629">
    FSIOP-Destination: dfspa
  </text>
  <text font-family="monospace" font-size="13" lengthAdjust="spacingAndGlyphs" textLength="8" x="544" y="1035.762">
    {
  </text>
  <text font-family="monospace" font-size="13" lengthAdjust="spacingAndGlyphs" textLength="120" x="560" y="1050.895">
    status: string,
  </text>
  <text font-family="monospace" font-size="13" lengthAdjust="spacingAndGlyphs" textLength="256" x="560" y="1066.028">
    revokedAt: string (of timestamp)
  </text>
  <text font-family="monospace" font-size="13" lengthAdjust="spacingAndGlyphs" textLength="8" x="544" y="1081.161">
    }
  </text>
  <path fill="#A80036" stroke="#a80036" d="M452 1111.36l-10 4 10 4-4-4z"/>
  <path stroke="#a80036" stroke-dasharray="2,2" d="M446 1115.359h824"/>
  <text font-family="sans-serif" font-size="13" font-weight="bold" lengthAdjust="spacingAndGlyphs" textLength="92" x="458" y="1110.293">
    UNLINK-B-15
  </text>
  <text font-family="monospace" font-size="13" lengthAdjust="spacingAndGlyphs" textLength="48" x="554" y="1110.293">
    200 OK
  </text>
</svg>
