<svg xmlns="http://www.w3.org/2000/svg" height="966" preserveAspectRatio="none" style="width:1600px;height:966px" width="1600">
  <defs>
    <filter height="300%" id="a" width="300%" x="-1" y="-1">
      <feGaussianBlur result="blurOut" stdDeviation="2"/>
      <feColorMatrix in="blurOut" result="blurOut2" values="0 0 0 0 0 0 0 0 0 0 0 0 0 0 0 0 0 0 .4 0"/>
      <feOffset dx="4" dy="4" in="blurOut2" result="blurOut3"/>
      <feBlend in="SourceGraphic" in2="blurOut3"/>
    </filter>
  </defs>
  <text font-family="sans-serif" font-size="18" lengthAdjust="spacingAndGlyphs" textLength="339" x="627" y="28.708">
    Transfer: 1.2.3 Rejected Authorization
  </text>
  <path fill="#DDD" stroke="#a80036" d="M146 40.953h104v919.703H146z"/>
  <text font-family="sans-serif" font-size="13" font-weight="bold" lengthAdjust="spacingAndGlyphs" textLength="33" x="181.5" y="53.02">
    PISP
  </text>
  <path fill="#DDD" stroke="#a80036" d="M786.5 40.953h73v919.703h-73z"/>
  <text font-family="sans-serif" font-size="13" font-weight="bold" lengthAdjust="spacingAndGlyphs" textLength="67" x="789.5" y="53.02">
    Mojaloop
  </text>
  <path fill="#DDD" stroke="#a80036" d="M1130 40.953h76v919.703h-76z"/>
  <text font-family="sans-serif" font-size="13" font-weight="bold" lengthAdjust="spacingAndGlyphs" textLength="54" x="1141" y="53.02">
    DFSP A
  </text>
  <path stroke="#a80036" stroke-dasharray="5,5" d="M198 111.68v794.383M822.5 111.68v794.383M1168 111.68v794.383"/>
  <path fill="#FEFECE" filter="url(#a)" stroke="#a80036" stroke-width="1.5" d="M150 76.383h92v30.297h-92z"/>
  <text font-family="sans-serif" font-size="14" lengthAdjust="spacingAndGlyphs" textLength="78" x="157" y="96.378">
    PISP Server
  </text>
  <path fill="#FEFECE" filter="url(#a)" stroke="#a80036" stroke-width="1.5" d="M150 905.063h92v30.297h-92z"/>
  <text font-family="sans-serif" font-size="14" lengthAdjust="spacingAndGlyphs" textLength="78" x="157" y="925.058">
    PISP Server
  </text>
  <path fill="#FEFECE" filter="url(#a)" stroke="#a80036" stroke-width="1.5" d="M791.5 76.383h59v30.297h-59z"/>
  <text font-family="sans-serif" font-size="14" lengthAdjust="spacingAndGlyphs" textLength="45" x="798.5" y="96.378">
    Switch
  </text>
  <path fill="#FEFECE" filter="url(#a)" stroke="#a80036" stroke-width="1.5" d="M791.5 905.063h59v30.297h-59z"/>
  <text font-family="sans-serif" font-size="14" lengthAdjust="spacingAndGlyphs" textLength="45" x="798.5" y="925.058">
    Switch
  </text>
  <path fill="#FEFECE" filter="url(#a)" stroke="#a80036" stroke-width="1.5" d="M1134 60.086h64v46.594h-64z"/>
  <text font-family="sans-serif" font-size="14" lengthAdjust="spacingAndGlyphs" textLength="50" x="1141" y="80.081">
    DFSP A
  </text>
  <text font-family="sans-serif" font-size="14" lengthAdjust="spacingAndGlyphs" textLength="48" x="1142" y="96.378">
    (Payer)
  </text>
  <path fill="#FEFECE" filter="url(#a)" stroke="#a80036" stroke-width="1.5" d="M1134 905.063h64v46.594h-64z"/>
  <text font-family="sans-serif" font-size="14" lengthAdjust="spacingAndGlyphs" textLength="50" x="1141" y="925.058">
    DFSP A
  </text>
  <text font-family="sans-serif" font-size="14" lengthAdjust="spacingAndGlyphs" textLength="48" x="1142" y="941.355">
    (Payer)
  </text>
  <path fill="#EEE" filter="url(#a)" stroke="#eee" d="M0 142.246h1593v3H0z"/>
  <path stroke="#000" d="M0 142.246h1593M0 145.246h1593"/>
  <path fill="#EEE" filter="url(#a)" stroke="#000" stroke-width="2" d="M721 131.68h151v23.133H721z"/>
  <text font-family="sans-serif" font-size="13" font-weight="bold" lengthAdjust="spacingAndGlyphs" textLength="132" x="727" y="147.747">
    Agreement Phase
  </text>
  <path d="M203 169.813v85h334v-75l-10-10H203" fill="#FBFB77" filter="url(#a)" stroke="#a80036"/>
  <path d="M527 169.813v10h10l-10-10" fill="#FBFB77" stroke="#a80036"/>
  <text font-family="sans-serif" font-size="13" lengthAdjust="spacingAndGlyphs" textLength="110" x="209" y="186.879">
    PISP looks up the
  </text>
  <text font-family="monospace" font-size="13" lengthAdjust="spacingAndGlyphs" textLength="160" x="323" y="186.879">
    transactionRequestId
  </text>
  <text font-family="sans-serif" font-size="13" lengthAdjust="spacingAndGlyphs" textLength="24" x="487" y="186.879">
    and
  </text>
  <text font-family="sans-serif" font-size="13" lengthAdjust="spacingAndGlyphs" textLength="200" x="209" y="202.012">
    checks the quote with the user,
  </text>
  <text font-family="sans-serif" font-size="13" lengthAdjust="spacingAndGlyphs" textLength="313" x="209" y="247.411">
    User rejects the terms of the transcationRequest
  </text>
  <path fill="#FFF" filter="url(#a)" stroke="#a80036" d="M203 269.477h608v98H203z"/>
  <text font-family="monospace" font-size="13" font-weight="bold" lengthAdjust="spacingAndGlyphs" textLength="600" x="207" y="285.543">
    PUT /thirdpartyRequests/authorizations/33333333-0000-0000-0000-000000000000
  </text>
  <text font-family="monospace" font-size="13" lengthAdjust="spacingAndGlyphs" textLength="160" x="207" y="300.676">
    FSPIOP-Source: pispa
  </text>
  <text font-family="monospace" font-size="13" lengthAdjust="spacingAndGlyphs" textLength="200" x="207" y="315.809">
    FSPIOP-Destination: dfspa
  </text>
  <text font-family="sans-serif" font-size="13" lengthAdjust="spacingAndGlyphs" textLength="8" x="207" y="330.942">
    {
  </text>
  <text font-family="sans-serif" font-size="13" lengthAdjust="spacingAndGlyphs" textLength="178" x="215" y="346.075">
    &quot;responseType&quot;: &quot;REJECTED&quot;
  </text>
  <text font-family="sans-serif" font-size="13" lengthAdjust="spacingAndGlyphs" textLength="8" x="207" y="361.207">
    }
  </text>
  <path fill="#A80036" stroke="#a80036" d="M811 390.406l10 4-10 4 4-4z"/>
  <path stroke="#a80036" d="M198 394.406h619"/>
  <text font-family="monospace" font-size="13" lengthAdjust="spacingAndGlyphs" textLength="600" x="205" y="389.34">
    PUT /thirdpartyRequests/authorizations/33333333-0000-0000-0000-000000000000
  </text>
  <path fill="#A80036" stroke="#a80036" d="M209 419.54l-10 4 10 4-4-4z"/>
  <path stroke="#a80036" stroke-dasharray="2,2" d="M203 423.539h619"/>
  <text font-family="monospace" font-size="13" lengthAdjust="spacingAndGlyphs" textLength="48" x="215" y="418.473">
    200 OK
  </text>
  <path fill="#A80036" stroke="#a80036" d="M1156 463.805l10 4-10 4 4-4z"/>
  <path stroke="#a80036" d="M823 467.805h339"/>
  <text font-family="monospace" font-size="13" lengthAdjust="spacingAndGlyphs" textLength="304" x="830" y="447.606">
    PUT /thirdpartyRequests/authorizations
  </text>
  <text font-family="monospace" font-size="13" lengthAdjust="spacingAndGlyphs" textLength="296" x="830" y="462.739">
    /33333333-0000-0000-0000-000000000000
  </text>
  <path fill="#A80036" stroke="#a80036" d="M834 492.938l-10 4 10 4-4-4z"/>
  <path stroke="#a80036" stroke-dasharray="2,2" d="M828 496.938h339"/>
  <text font-family="monospace" font-size="13" lengthAdjust="spacingAndGlyphs" textLength="48" x="840" y="491.872">
    200 OK
  </text>
  <path stroke="#a80036" d="M1168 526.07h42M1210 526.07v13M1169 539.07h41"/>
  <path fill="#A80036" stroke="#a80036" d="M1179 535.07l-10 4 10 4-4-4z"/>
  <text font-family="sans-serif" font-size="13" lengthAdjust="spacingAndGlyphs" textLength="75" x="1175" y="521.004">
    Look up the
  </text>
  <text font-family="monospace" font-size="13" lengthAdjust="spacingAndGlyphs" textLength="160" x="1254" y="521.004">
    transactionRequestId
  </text>
  <text font-family="sans-serif" font-size="13" lengthAdjust="spacingAndGlyphs" textLength="44" x="1418" y="521.004">
    for this
  </text>
  <text font-family="monospace" font-size="13" lengthAdjust="spacingAndGlyphs" textLength="120" x="1466" y="521.004">
    authorizationId
  </text>
  <path d="M1018 552.07v25h296v-15l-10-10h-286" fill="#FBFB77" filter="url(#a)" stroke="#a80036"/>
  <path d="M1304 552.07v10h10l-10-10" fill="#FBFB77" stroke="#a80036"/>
  <text font-family="sans-serif" font-size="13" lengthAdjust="spacingAndGlyphs" textLength="271" x="1024" y="569.137">
    User has rejected the transaction request.
  </text>
  <path fill="#FFF" filter="url(#a)" stroke="#a80036" d="M864 591.203h608v113H864z"/>
  <text font-family="monospace" font-size="13" font-weight="bold" lengthAdjust="spacingAndGlyphs" textLength="600" x="868" y="607.27">
    PATCH /thirdpartyRequests/transactions/00000000-0000-0000-0000-000000000000
  </text>
  <text font-family="monospace" font-size="13" lengthAdjust="spacingAndGlyphs" textLength="160" x="868" y="622.403">
    FSPIOP-Source: dfspa
  </text>
  <text font-family="monospace" font-size="13" lengthAdjust="spacingAndGlyphs" textLength="200" x="868" y="637.536">
    FSPIOP-Destination: pispa
  </text>
  <text font-family="sans-serif" font-size="13" lengthAdjust="spacingAndGlyphs" textLength="8" x="868" y="652.668">
    {
  </text>
  <text font-family="sans-serif" font-size="13" lengthAdjust="spacingAndGlyphs" textLength="252" x="876" y="667.801">
    &quot;transactionRequestState&quot;: &quot;REJECTED&quot;,
  </text>
  <text font-family="sans-serif" font-size="13" lengthAdjust="spacingAndGlyphs" textLength="391" x="876" y="682.934">
    &quot;transactionId&quot;: &quot;11111111-0000-0000-0000-000000000000&quot;,
  </text>
  <text font-family="sans-serif" font-size="13" lengthAdjust="spacingAndGlyphs" textLength="8" x="868" y="698.067">
    }
  </text>
  <path fill="#A80036" stroke="#a80036" d="M834 742.398l-10 4 10 4-4-4z"/>
  <path stroke="#a80036" d="M828 746.398h339"/>
  <text font-family="monospace" font-size="13" lengthAdjust="spacingAndGlyphs" textLength="304" x="840" y="726.2">
    PATCH /thirdpartyRequests/transactions
  </text>
  <text font-family="monospace" font-size="13" lengthAdjust="spacingAndGlyphs" textLength="296" x="864" y="741.332">
    /00000000-0000-0000-0000-000000000000
  </text>
  <path fill="#A80036" stroke="#a80036" d="M1156 771.531l10 4-10 4 4-4z"/>
  <path stroke="#a80036" stroke-dasharray="2,2" d="M823 775.531h339"/>
  <text font-family="monospace" font-size="13" lengthAdjust="spacingAndGlyphs" textLength="48" x="830" y="770.465">
    200 OK
  </text>
  <path fill="#A80036" stroke="#a80036" d="M209 815.797l-10 4 10 4-4-4z"/>
  <path stroke="#a80036" d="M203 819.797h619"/>
  <text font-family="monospace" font-size="13" lengthAdjust="spacingAndGlyphs" textLength="304" x="215" y="799.598">
    PATCH /thirdpartyRequests/transactions
  </text>
  <text font-family="monospace" font-size="13" lengthAdjust="spacingAndGlyphs" textLength="296" x="239" y="814.731">
    /00000000-0000-0000-0000-000000000000
  </text>
  <path fill="#A80036" stroke="#a80036" d="M811 844.93l10 4-10 4 4-4z"/>
  <path stroke="#a80036" stroke-dasharray="2,2" d="M198 848.93h619"/>
  <text font-family="monospace" font-size="13" lengthAdjust="spacingAndGlyphs" textLength="48" x="205" y="843.864">
    200 OK
  </text>
  <path d="M5 861.93v25h383v-15l-10-10H5" fill="#FBFB77" filter="url(#a)" stroke="#a80036"/>
  <path d="M378 861.93v10h10l-10-10" fill="#FBFB77" stroke="#a80036"/>
  <text font-family="sans-serif" font-size="13" lengthAdjust="spacingAndGlyphs" textLength="362" x="11" y="878.997">
    PISP can inform the user the transaction did not proceed
  </text>
</svg>
