<svg xmlns="http://www.w3.org/2000/svg" height="1713" preserveAspectRatio="none" style="width:1538px;height:1713px" width="1538">
  <defs>
    <filter height="300%" id="a" width="300%" x="-1" y="-1">
      <feGaussianBlur result="blurOut" stdDeviation="2"/>
      <feColorMatrix in="blurOut" result="blurOut2" values="0 0 0 0 0 0 0 0 0 0 0 0 0 0 0 0 0 0 .4 0"/>
      <feOffset dx="4" dy="4" in="blurOut2" result="blurOut3"/>
      <feBlend in="SourceGraphic" in2="blurOut3"/>
    </filter>
  </defs>
  <text font-family="sans-serif" font-size="18" lengthAdjust="spacingAndGlyphs" textLength="236" x="647.5" y="28.708">
    Transfer: 1.3 Final transfer
  </text>
  <path fill="#DDD" stroke="#a80036" d="M73 40.953h104v1666.156H73z"/>
  <text font-family="sans-serif" font-size="13" font-weight="bold" lengthAdjust="spacingAndGlyphs" textLength="33" x="108.5" y="53.02">
    PISP
  </text>
  <path fill="#DDD" stroke="#a80036" d="M433.5 40.953h73v1666.156h-73z"/>
  <text font-family="sans-serif" font-size="13" font-weight="bold" lengthAdjust="spacingAndGlyphs" textLength="67" x="436.5" y="53.02">
    Mojaloop
  </text>
  <path fill="#DDD" stroke="#a80036" d="M777 40.953h76v1666.156h-76z"/>
  <text font-family="sans-serif" font-size="13" font-weight="bold" lengthAdjust="spacingAndGlyphs" textLength="54" x="788" y="53.02">
    DFSP A
  </text>
  <path fill="#DDD" stroke="#a80036" d="M1147 40.953h78v1666.156h-78z"/>
  <text font-family="sans-serif" font-size="13" font-weight="bold" lengthAdjust="spacingAndGlyphs" textLength="54" x="1159" y="53.02">
    DFSP B
  </text>
  <path stroke="#a80036" d="M125 139.547v53.133"/>
  <path stroke="#a80036" stroke-dasharray="1,4" d="M125 192.68v40.804"/>
  <path stroke="#a80036" d="M125 233.484v1371.032M469.5 139.547v53.133"/>
  <path stroke="#a80036" stroke-dasharray="1,4" d="M469.5 192.68v40.804"/>
  <path stroke="#a80036" d="M469.5 233.484v1371.032M815 139.547v53.133"/>
  <path stroke="#a80036" stroke-dasharray="1,4" d="M815 192.68v40.804"/>
  <path stroke="#a80036" d="M815 233.484v1371.032M1186 139.547v53.133"/>
  <path stroke="#a80036" stroke-dasharray="1,4" d="M1186 192.68v40.804"/>
  <path stroke="#a80036" d="M1186 233.484v1371.032M1463 139.547v53.133"/>
  <path stroke="#a80036" stroke-dasharray="1,4" d="M1463 192.68v40.804"/>
  <path stroke="#a80036" d="M1463 233.484v1371.032"/>
  <path fill="#FEFECE" filter="url(#a)" stroke="#a80036" stroke-width="1.5" d="M77 104.25h92v30.297H77z"/>
  <text font-family="sans-serif" font-size="14" lengthAdjust="spacingAndGlyphs" textLength="78" x="84" y="124.245">
    PISP Server
  </text>
  <path fill="#FEFECE" filter="url(#a)" stroke="#a80036" stroke-width="1.5" d="M77 1603.516h92v30.297H77z"/>
  <text font-family="sans-serif" font-size="14" lengthAdjust="spacingAndGlyphs" textLength="78" x="84" y="1623.511">
    PISP Server
  </text>
  <path fill="#FEFECE" filter="url(#a)" stroke="#a80036" stroke-width="1.5" d="M438.5 104.25h59v30.297h-59z"/>
  <text font-family="sans-serif" font-size="14" lengthAdjust="spacingAndGlyphs" textLength="45" x="445.5" y="124.245">
    Switch
  </text>
  <path fill="#FEFECE" filter="url(#a)" stroke="#a80036" stroke-width="1.5" d="M438.5 1603.516h59v30.297h-59z"/>
  <text font-family="sans-serif" font-size="14" lengthAdjust="spacingAndGlyphs" textLength="45" x="445.5" y="1623.511">
    Switch
  </text>
  <path fill="#FEFECE" filter="url(#a)" stroke="#a80036" stroke-width="1.5" d="M781 87.953h64v46.594h-64z"/>
  <text font-family="sans-serif" font-size="14" lengthAdjust="spacingAndGlyphs" textLength="50" x="788" y="107.948">
    DFSP A
  </text>
  <text font-family="sans-serif" font-size="14" lengthAdjust="spacingAndGlyphs" textLength="48" x="789" y="124.245">
    (Payer)
  </text>
  <path fill="#FEFECE" filter="url(#a)" stroke="#a80036" stroke-width="1.5" d="M781 1603.516h64v46.594h-64z"/>
  <text font-family="sans-serif" font-size="14" lengthAdjust="spacingAndGlyphs" textLength="50" x="788" y="1623.511">
    DFSP A
  </text>
  <text font-family="sans-serif" font-size="14" lengthAdjust="spacingAndGlyphs" textLength="48" x="789" y="1639.808">
    (Payer)
  </text>
  <path fill="#FEFECE" filter="url(#a)" stroke="#a80036" stroke-width="1.5" d="M1151 87.953h66v46.594h-66z"/>
  <text font-family="sans-serif" font-size="14" lengthAdjust="spacingAndGlyphs" textLength="51" x="1158.5" y="107.948">
    DFSP B
  </text>
  <text font-family="sans-serif" font-size="14" lengthAdjust="spacingAndGlyphs" textLength="52" x="1158" y="124.245">
    (Payee)
  </text>
  <path fill="#FEFECE" filter="url(#a)" stroke="#a80036" stroke-width="1.5" d="M1151 1603.516h66v46.594h-66z"/>
  <text font-family="sans-serif" font-size="14" lengthAdjust="spacingAndGlyphs" textLength="51" x="1158.5" y="1623.511">
    DFSP B
  </text>
  <text font-family="sans-serif" font-size="14" lengthAdjust="spacingAndGlyphs" textLength="52" x="1158" y="1639.808">
    (Payee)
  </text>
  <text font-family="sans-serif" font-size="14" lengthAdjust="spacingAndGlyphs" textLength="60" x="1430" y="119.948">
    Bhavesh
  </text>
  <text font-family="sans-serif" font-size="14" lengthAdjust="spacingAndGlyphs" textLength="120" x="1400" y="136.245">
    (+44 1234 5678)
  </text>
  <circle cx="1463" cy="49.953" fill="#FEFECE" filter="url(#a)" stroke="#a80036" stroke-width="2" r="8"/>
  <path d="M1463 57.953v27m-13-19h26m-13 19l-13 15m13-15l13 15" fill="none" filter="url(#a)" stroke="#a80036" stroke-width="2"/>
  <text font-family="sans-serif" font-size="14" lengthAdjust="spacingAndGlyphs" textLength="60" x="1430" y="1616.511">
    Bhavesh
  </text>
  <text font-family="sans-serif" font-size="14" lengthAdjust="spacingAndGlyphs" textLength="120" x="1400" y="1632.808">
    (+44 1234 5678)
  </text>
  <circle cx="1463" cy="1646.109" fill="#FEFECE" filter="url(#a)" stroke="#a80036" stroke-width="2" r="8"/>
  <path d="M1463 1654.11v27m-13-19h26m-13 19l-13 15m13-15l13 15" fill="none" filter="url(#a)" stroke="#a80036" stroke-width="2"/>
  <path fill="#EEE" filter="url(#a)" stroke="#eee" d="M0 170.113h1531v3H0z"/>
  <path stroke="#000" d="M0 170.113h1531M0 173.113h1531"/>
  <path fill="#EEE" filter="url(#a)" stroke="#000" stroke-width="2" d="M700.5 159.547h130v23.133h-130z"/>
  <text font-family="sans-serif" font-size="13" font-weight="bold" lengthAdjust="spacingAndGlyphs" textLength="111" x="706.5" y="175.614">
    Transfer Phase
  </text>
  <text font-family="sans-serif" font-size="11" lengthAdjust="spacingAndGlyphs" textLength="276" x="656" y="216.89">
    DFSP A initiates a normal Mojaloop P2P Transfer
  </text>
  <path stroke="#a80036" d="M815 269.75h42M857 269.75v13M816 282.75h41"/>
  <path fill="#A80036" stroke="#a80036" d="M826 278.75l-10 4 10 4-4-4z"/>
  <text font-family="sans-serif" font-size="13" lengthAdjust="spacingAndGlyphs" textLength="101" x="822" y="249.551">
    Generate a new
  </text>
  <text font-family="monospace" font-size="13" lengthAdjust="spacingAndGlyphs" textLength="80" x="927" y="249.551">
    transferId
  </text>
  <text font-family="sans-serif" font-size="13" lengthAdjust="spacingAndGlyphs" textLength="97" x="1007" y="249.551">
    , and associate
  </text>
  <text font-family="sans-serif" font-size="13" lengthAdjust="spacingAndGlyphs" textLength="62" x="826" y="264.684">
    it with the
  </text>
  <text font-family="monospace" font-size="13" lengthAdjust="spacingAndGlyphs" textLength="160" x="892" y="264.684">
    transactionRequestId
  </text>
  <path fill="#FFF" filter="url(#a)" stroke="#a80036" d="M677 295.75h276v250H677z"/>
  <text font-family="monospace" font-size="13" font-weight="bold" lengthAdjust="spacingAndGlyphs" textLength="120" x="681" y="311.817">
    POST /transfers
  </text>
  <text font-family="monospace" font-size="13" lengthAdjust="spacingAndGlyphs" textLength="160" x="681" y="326.95">
    FSPIOP-Source: dfspa
  </text>
  <text font-family="monospace" font-size="13" lengthAdjust="spacingAndGlyphs" textLength="200" x="681" y="342.082">
    FSPIOP-Destination: dfspb
  </text>
  <text font-family="sans-serif" font-size="13" lengthAdjust="spacingAndGlyphs" textLength="8" x="681" y="357.215">
    {
  </text>
  <text font-family="sans-serif" font-size="13" lengthAdjust="spacingAndGlyphs" textLength="117" x="689" y="372.348">
    &quot;transferId&quot;: &quot;321&quot;,
  </text>
  <text font-family="sans-serif" font-size="13" lengthAdjust="spacingAndGlyphs" textLength="104" x="689" y="387.481">
    &quot;quoteId&quot;: &quot;456&quot;,
  </text>
  <text font-family="sans-serif" font-size="13" lengthAdjust="spacingAndGlyphs" textLength="125" x="689" y="402.614">
    &quot;payerFsp&quot;: &quot;dfspa&quot;,
  </text>
  <text font-family="sans-serif" font-size="13" lengthAdjust="spacingAndGlyphs" textLength="128" x="689" y="417.747">
    &quot;payeeFsp&quot;: &quot;dfspb&quot;,
  </text>
  <text font-family="sans-serif" font-size="13" lengthAdjust="spacingAndGlyphs" textLength="76" x="689" y="432.879">
    &quot;amount&quot;: {
  </text>
  <text font-family="sans-serif" font-size="13" lengthAdjust="spacingAndGlyphs" textLength="106" x="697" y="448.012">
    &quot;amount&quot;: &quot;100&quot;,
  </text>
  <text font-family="sans-serif" font-size="13" lengthAdjust="spacingAndGlyphs" textLength="112" x="697" y="463.145">
    &quot;currency&quot;: &quot;USD&quot;
  </text>
  <text font-family="sans-serif" font-size="13" lengthAdjust="spacingAndGlyphs" textLength="12" x="689" y="478.278">
    },
  </text>
  <text font-family="sans-serif" font-size="13" lengthAdjust="spacingAndGlyphs" textLength="260" x="689" y="493.411">
    &quot;expiration&quot;: &quot;2020-06-15T13:00:00.000&quot;,
  </text>
  <text font-family="sans-serif" font-size="13" lengthAdjust="spacingAndGlyphs" textLength="101" x="689" y="508.543">
    &quot;ilpPacket&quot;: &quot;...&quot;,
  </text>
  <text font-family="sans-serif" font-size="13" lengthAdjust="spacingAndGlyphs" textLength="102" x="689" y="523.676">
    &quot;condition&quot;: &quot;...&quot;,
  </text>
  <text font-family="sans-serif" font-size="13" lengthAdjust="spacingAndGlyphs" textLength="8" x="681" y="538.809">
    }
  </text>
  <path fill="#A80036" stroke="#a80036" d="M481 568.008l-10 4 10 4-4-4z"/>
  <path stroke="#a80036" d="M475 572.008h339"/>
  <text font-family="monospace" font-size="13" lengthAdjust="spacingAndGlyphs" textLength="120" x="487" y="566.942">
    POST /transfers
  </text>
  <path fill="#A80036" stroke="#a80036" d="M803 597.14l10 4-10 4 4-4z"/>
  <path stroke="#a80036" stroke-dasharray="2,2" d="M470 601.141h339"/>
  <text font-family="monospace" font-size="13" lengthAdjust="spacingAndGlyphs" textLength="96" x="477" y="596.075">
    202 Accepted
  </text>
  <path fill="#FFF" filter="url(#a)" stroke="#a80036" d="M332 614.141h276v250H332z"/>
  <text font-family="monospace" font-size="13" font-weight="bold" lengthAdjust="spacingAndGlyphs" textLength="120" x="336" y="630.207">
    POST /transfers
  </text>
  <text font-family="monospace" font-size="13" lengthAdjust="spacingAndGlyphs" textLength="160" x="336" y="645.34">
    FSPIOP-Source: dfspa
  </text>
  <text font-family="monospace" font-size="13" lengthAdjust="spacingAndGlyphs" textLength="200" x="336" y="660.473">
    FSPIOP-Destination: dfspb
  </text>
  <text font-family="sans-serif" font-size="13" lengthAdjust="spacingAndGlyphs" textLength="8" x="336" y="675.606">
    {
  </text>
  <text font-family="sans-serif" font-size="13" lengthAdjust="spacingAndGlyphs" textLength="117" x="344" y="690.739">
    &quot;transferId&quot;: &quot;321&quot;,
  </text>
  <text font-family="sans-serif" font-size="13" lengthAdjust="spacingAndGlyphs" textLength="104" x="344" y="705.872">
    &quot;quoteId&quot;: &quot;456&quot;,
  </text>
  <text font-family="sans-serif" font-size="13" lengthAdjust="spacingAndGlyphs" textLength="125" x="344" y="721.004">
    &quot;payerFsp&quot;: &quot;dfspa&quot;,
  </text>
  <text font-family="sans-serif" font-size="13" lengthAdjust="spacingAndGlyphs" textLength="128" x="344" y="736.137">
    &quot;payeeFsp&quot;: &quot;dfspb&quot;,
  </text>
  <text font-family="sans-serif" font-size="13" lengthAdjust="spacingAndGlyphs" textLength="76" x="344" y="751.27">
    &quot;amount&quot;: {
  </text>
  <text font-family="sans-serif" font-size="13" lengthAdjust="spacingAndGlyphs" textLength="106" x="352" y="766.403">
    &quot;amount&quot;: &quot;100&quot;,
  </text>
  <text font-family="sans-serif" font-size="13" lengthAdjust="spacingAndGlyphs" textLength="112" x="352" y="781.536">
    &quot;currency&quot;: &quot;USD&quot;
  </text>
  <text font-family="sans-serif" font-size="13" lengthAdjust="spacingAndGlyphs" textLength="12" x="344" y="796.668">
    },
  </text>
  <text font-family="sans-serif" font-size="13" lengthAdjust="spacingAndGlyphs" textLength="260" x="344" y="811.801">
    &quot;expiration&quot;: &quot;2020-06-15T13:00:00.000&quot;,
  </text>
  <text font-family="sans-serif" font-size="13" lengthAdjust="spacingAndGlyphs" textLength="101" x="344" y="826.934">
    &quot;ilpPacket&quot;: &quot;...&quot;,
  </text>
  <text font-family="sans-serif" font-size="13" lengthAdjust="spacingAndGlyphs" textLength="102" x="344" y="842.067">
    &quot;condition&quot;: &quot;...&quot;,
  </text>
  <text font-family="sans-serif" font-size="13" lengthAdjust="spacingAndGlyphs" textLength="8" x="336" y="857.2">
    }
  </text>
  <path fill="#A80036" stroke="#a80036" d="M1174 886.398l10 4-10 4 4-4z"/>
  <path stroke="#a80036" d="M470 890.398h710"/>
  <text font-family="monospace" font-size="13" lengthAdjust="spacingAndGlyphs" textLength="120" x="477" y="885.332">
    POST /transfers
  </text>
  <path fill="#A80036" stroke="#a80036" d="M481 915.531l-10 4 10 4-4-4z"/>
  <path stroke="#a80036" stroke-dasharray="2,2" d="M475 919.531h710"/>
  <text font-family="monospace" font-size="13" lengthAdjust="spacingAndGlyphs" textLength="96" x="487" y="914.465">
    202 Accepted
  </text>
  <path fill="#FFF" filter="url(#a)" stroke="#a80036" d="M828 932.531h353v129H828z"/>
  <text font-family="monospace" font-size="13" font-weight="bold" lengthAdjust="spacingAndGlyphs" textLength="144" x="832" y="948.598">
    PUT /transfers/321
  </text>
  <text font-family="monospace" font-size="13" lengthAdjust="spacingAndGlyphs" textLength="160" x="832" y="963.731">
    FSPIOP-Source: dfspb
  </text>
  <text font-family="monospace" font-size="13" lengthAdjust="spacingAndGlyphs" textLength="200" x="832" y="978.864">
    FSPIOP-Destination: dfspa
  </text>
  <text font-family="sans-serif" font-size="13" lengthAdjust="spacingAndGlyphs" textLength="8" x="832" y="993.997">
    {
  </text>
  <text font-family="sans-serif" font-size="13" lengthAdjust="spacingAndGlyphs" textLength="103" x="840" y="1009.129">
    &quot;fulfilment&quot;: &quot;...&quot;,
  </text>
  <text font-family="sans-serif" font-size="13" lengthAdjust="spacingAndGlyphs" textLength="337" x="840" y="1024.262">
    &quot;completedTimestamp&quot;: &quot;2020-06-15T12:01:00.000&quot;,
  </text>
  <text font-family="sans-serif" font-size="13" lengthAdjust="spacingAndGlyphs" textLength="189" x="840" y="1039.395">
    &quot;transferState&quot;: &quot;COMMITTED&quot;
  </text>
  <text font-family="sans-serif" font-size="13" lengthAdjust="spacingAndGlyphs" textLength="8" x="832" y="1054.528">
    }
  </text>
  <path fill="#A80036" stroke="#a80036" d="M481 1083.727l-10 4 10 4-4-4z"/>
  <path stroke="#a80036" d="M475 1087.727h710"/>
  <text font-family="monospace" font-size="13" lengthAdjust="spacingAndGlyphs" textLength="144" x="487" y="1082.661">
    PUT /transfers/321
  </text>
  <path fill="#A80036" stroke="#a80036" d="M1174 1112.86l10 4-10 4 4-4z"/>
  <path stroke="#a80036" stroke-dasharray="2,2" d="M470 1116.859h710"/>
  <text font-family="monospace" font-size="13" lengthAdjust="spacingAndGlyphs" textLength="48" x="477" y="1111.793">
    200 OK
  </text>
  <path fill="#A80036" stroke="#a80036" d="M1451 1141.992l10 4-10 4 4-4z"/>
  <path stroke="#a80036" d="M1186 1145.992h271"/>
  <text font-family="sans-serif" font-size="13" lengthAdjust="spacingAndGlyphs" textLength="253" x="1193" y="1140.926">
    You have received funds from Ayeesha!
  </text>
  <path fill="#A80036" stroke="#a80036" d="M803 1171.125l10 4-10 4 4-4z"/>
  <path stroke="#a80036" d="M470 1175.125h339"/>
  <text font-family="monospace" font-size="13" lengthAdjust="spacingAndGlyphs" textLength="144" x="477" y="1170.059">
    PUT /transfers/321
  </text>
  <path fill="#A80036" stroke="#a80036" d="M481 1200.258l-10 4 10 4-4-4z"/>
  <path stroke="#a80036" stroke-dasharray="2,2" d="M475 1204.258h339"/>
  <text font-family="monospace" font-size="13" lengthAdjust="spacingAndGlyphs" textLength="48" x="487" y="1199.192">
    200 OK
  </text>
  <path stroke="#a80036" d="M815 1233.391h42M857 1233.391v13M816 1246.391h41"/>
  <path fill="#A80036" stroke="#a80036" d="M826 1242.39l-10 4 10 4-4-4z"/>
  <text font-family="sans-serif" font-size="13" lengthAdjust="spacingAndGlyphs" textLength="50" x="822" y="1228.325">
    Look up
  </text>
  <text font-family="monospace" font-size="13" lengthAdjust="spacingAndGlyphs" textLength="160" x="876" y="1228.325">
    transactionRequestId
  </text>
  <text font-family="sans-serif" font-size="13" lengthAdjust="spacingAndGlyphs" textLength="55" x="1040" y="1228.325">
    from the
  </text>
  <text font-family="monospace" font-size="13" lengthAdjust="spacingAndGlyphs" textLength="80" x="1099" y="1228.325">
    transferId
  </text>
  <path fill="#FFF" filter="url(#a)" stroke="#a80036" d="M511 1259.391h608v129H511z"/>
  <text font-family="monospace" font-size="13" font-weight="bold" lengthAdjust="spacingAndGlyphs" textLength="600" x="515" y="1275.457">
    PATCH /thirdpartyRequests/transactions/00000000-0000-0000-0000-000000000000
  </text>
  <text font-family="monospace" font-size="13" lengthAdjust="spacingAndGlyphs" textLength="160" x="515" y="1290.59">
    FSPIOP-Source: dfspa
  </text>
  <text font-family="monospace" font-size="13" lengthAdjust="spacingAndGlyphs" textLength="200" x="515" y="1305.723">
    FSPIOP-Destination: pispa
  </text>
  <text font-family="sans-serif" font-size="13" lengthAdjust="spacingAndGlyphs" textLength="8" x="515" y="1320.856">
    {
  </text>
  <text font-family="sans-serif" font-size="13" lengthAdjust="spacingAndGlyphs" textLength="391" x="523" y="1335.989">
    &quot;transactionId&quot;: &quot;11111111-0000-0000-0000-000000000000&quot;,
  </text>
  <text font-family="sans-serif" font-size="13" lengthAdjust="spacingAndGlyphs" textLength="259" x="523" y="1351.122">
    &quot;transactionRequestState&quot;: &quot;ACCEPTED&quot;,
  </text>
  <text font-family="sans-serif" font-size="13" lengthAdjust="spacingAndGlyphs" textLength="211" x="523" y="1366.254">
    &quot;transactionState&quot;: &quot;COMMITTED&quot;
  </text>
  <text font-family="sans-serif" font-size="13" lengthAdjust="spacingAndGlyphs" textLength="8" x="515" y="1381.387">
    }
  </text>
  <path fill="#A80036" stroke="#a80036" d="M481 1425.719l-10 4 10 4-4-4z"/>
  <path stroke="#a80036" d="M475 1429.719h339"/>
  <text font-family="monospace" font-size="13" lengthAdjust="spacingAndGlyphs" textLength="304" x="487" y="1409.52">
    PATCH /thirdpartyRequests/transactions
  </text>
  <text font-family="monospace" font-size="13" lengthAdjust="spacingAndGlyphs" textLength="296" x="511" y="1424.653">
    /00000000-0000-0000-0000-000000000000
  </text>
  <path fill="#A80036" stroke="#a80036" d="M803 1454.852l10 4-10 4 4-4z"/>
  <path stroke="#a80036" stroke-dasharray="2,2" d="M470 1458.852h339"/>
  <text font-family="monospace" font-size="13" lengthAdjust="spacingAndGlyphs" textLength="48" x="477" y="1453.786">
    200 OK
  </text>
  <path fill="#A80036" stroke="#a80036" d="M136 1499.117l-10 4 10 4-4-4z"/>
  <path stroke="#a80036" d="M130 1503.117h339"/>
  <text font-family="monospace" font-size="13" lengthAdjust="spacingAndGlyphs" textLength="304" x="142" y="1482.918">
    PATCH /thirdpartyRequests/transactions
  </text>
  <text font-family="monospace" font-size="13" lengthAdjust="spacingAndGlyphs" textLength="296" x="166" y="1498.051">
    /00000000-0000-0000-0000-000000000000
  </text>
  <path fill="#A80036" stroke="#a80036" d="M458 1528.25l10 4-10 4 4-4z"/>
  <path stroke="#a80036" stroke-dasharray="2,2" d="M125 1532.25h339"/>
  <text font-family="monospace" font-size="13" lengthAdjust="spacingAndGlyphs" textLength="48" x="132" y="1527.184">
    200 OK
  </text>
  <path d="M5 1545.25v40h236v-30l-10-10H5" fill="#FBFB77" filter="url(#a)" stroke="#a80036"/>
  <path d="M231 1545.25v10h10l-10-10" fill="#FBFB77" stroke="#a80036"/>
  <text font-family="sans-serif" font-size="13" lengthAdjust="spacingAndGlyphs" textLength="211" x="11" y="1562.317">
    PISP can now inform the user the
  </text>
  <text font-family="sans-serif" font-size="13" lengthAdjust="spacingAndGlyphs" textLength="138" x="11" y="1577.45">
    funds have been sent
  </text>
</svg>
