<svg xmlns="http://www.w3.org/2000/svg" height="1705" preserveAspectRatio="none" style="width:1200px;height:1705px" width="1200">
  <defs>
    <filter height="300%" id="a" width="300%" x="-1" y="-1">
      <feGaussianBlur result="blurOut" stdDeviation="2"/>
      <feColorMatrix in="blurOut" result="blurOut2" values="0 0 0 0 0 0 0 0 0 0 0 0 0 0 0 0 0 0 .4 0"/>
      <feOffset dx="4" dy="4" in="blurOut2" result="blurOut3"/>
      <feBlend in="SourceGraphic" in2="blurOut3"/>
    </filter>
  </defs>
  <text font-family="sans-serif" font-size="18" lengthAdjust="spacingAndGlyphs" textLength="328" x="433.5" y="28.708">
    Transfer: 3.3.2 Bad Transfer Request
  </text>
  <path fill="#DDD" stroke="#a80036" d="M1 40.953h104v1658.836H1z"/>
  <text font-family="sans-serif" font-size="13" font-weight="bold" lengthAdjust="spacingAndGlyphs" textLength="33" x="36.5" y="53.02">
    PISP
  </text>
  <path fill="#DDD" stroke="#a80036" d="M417.5 40.953h73v1658.836h-73z"/>
  <text font-family="sans-serif" font-size="13" font-weight="bold" lengthAdjust="spacingAndGlyphs" textLength="67" x="420.5" y="53.02">
    Mojaloop
  </text>
  <path fill="#DDD" stroke="#a80036" d="M817 40.953h76v1658.836h-76z"/>
  <text font-family="sans-serif" font-size="13" font-weight="bold" lengthAdjust="spacingAndGlyphs" textLength="54" x="828" y="53.02">
    DFSP A
  </text>
  <path fill="#DDD" stroke="#a80036" d="M1116 40.953h78v1658.836h-78z"/>
  <text font-family="sans-serif" font-size="13" font-weight="bold" lengthAdjust="spacingAndGlyphs" textLength="54" x="1128" y="53.02">
    DFSP B
  </text>
  <path stroke="#a80036" d="M53 111.68v10"/>
  <path stroke="#a80036" stroke-dasharray="1,4" d="M53 121.68v40.804"/>
  <path stroke="#a80036" d="M53 162.484h0"/>
  <path stroke="#a80036" stroke-dasharray="1,4" d="M53 162.484v40.805"/>
  <path stroke="#a80036" d="M53 203.289h0"/>
  <path stroke="#a80036" stroke-dasharray="1,4" d="M53 203.289v40.805"/>
  <path stroke="#a80036" d="M53 244.094h0"/>
  <path stroke="#a80036" stroke-dasharray="1,4" d="M53 244.094v40.804"/>
  <path stroke="#a80036" d="M53 284.898v1360.297M453.5 111.68v10"/>
  <path stroke="#a80036" stroke-dasharray="1,4" d="M453.5 121.68v40.804"/>
  <path stroke="#a80036" d="M453.5 162.484h0"/>
  <path stroke="#a80036" stroke-dasharray="1,4" d="M453.5 162.484v40.805"/>
  <path stroke="#a80036" d="M453.5 203.289h0"/>
  <path stroke="#a80036" stroke-dasharray="1,4" d="M453.5 203.289v40.805"/>
  <path stroke="#a80036" d="M453.5 244.094h0"/>
  <path stroke="#a80036" stroke-dasharray="1,4" d="M453.5 244.094v40.804"/>
  <path stroke="#a80036" d="M453.5 284.898v1360.297M855 111.68v10"/>
  <path stroke="#a80036" stroke-dasharray="1,4" d="M855 121.68v40.804"/>
  <path stroke="#a80036" d="M855 162.484h0"/>
  <path stroke="#a80036" stroke-dasharray="1,4" d="M855 162.484v40.805"/>
  <path stroke="#a80036" d="M855 203.289h0"/>
  <path stroke="#a80036" stroke-dasharray="1,4" d="M855 203.289v40.805"/>
  <path stroke="#a80036" d="M855 244.094h0"/>
  <path stroke="#a80036" stroke-dasharray="1,4" d="M855 244.094v40.804"/>
  <path stroke="#a80036" d="M855 284.898v1360.297M1155 111.68v10"/>
  <path stroke="#a80036" stroke-dasharray="1,4" d="M1155 121.68v40.804"/>
  <path stroke="#a80036" d="M1155 162.484h0"/>
  <path stroke="#a80036" stroke-dasharray="1,4" d="M1155 162.484v40.805"/>
  <path stroke="#a80036" d="M1155 203.289h0"/>
  <path stroke="#a80036" stroke-dasharray="1,4" d="M1155 203.289v40.805"/>
  <path stroke="#a80036" d="M1155 244.094h0"/>
  <path stroke="#a80036" stroke-dasharray="1,4" d="M1155 244.094v40.804"/>
  <path stroke="#a80036" d="M1155 284.898v1360.297"/>
  <path fill="#FEFECE" filter="url(#a)" stroke="#a80036" stroke-width="1.5" d="M5 76.383h92v30.297H5z"/>
  <text font-family="sans-serif" font-size="14" lengthAdjust="spacingAndGlyphs" textLength="78" x="12" y="96.378">
    PISP Server
  </text>
  <path fill="#FEFECE" filter="url(#a)" stroke="#a80036" stroke-width="1.5" d="M5 1644.195h92v30.297H5z"/>
  <text font-family="sans-serif" font-size="14" lengthAdjust="spacingAndGlyphs" textLength="78" x="12" y="1664.19">
    PISP Server
  </text>
  <path fill="#FEFECE" filter="url(#a)" stroke="#a80036" stroke-width="1.5" d="M422.5 76.383h59v30.297h-59z"/>
  <text font-family="sans-serif" font-size="14" lengthAdjust="spacingAndGlyphs" textLength="45" x="429.5" y="96.378">
    Switch
  </text>
  <path fill="#FEFECE" filter="url(#a)" stroke="#a80036" stroke-width="1.5" d="M422.5 1644.195h59v30.297h-59z"/>
  <text font-family="sans-serif" font-size="14" lengthAdjust="spacingAndGlyphs" textLength="45" x="429.5" y="1664.19">
    Switch
  </text>
  <path fill="#FEFECE" filter="url(#a)" stroke="#a80036" stroke-width="1.5" d="M821 60.086h64v46.594h-64z"/>
  <text font-family="sans-serif" font-size="14" lengthAdjust="spacingAndGlyphs" textLength="50" x="828" y="80.081">
    DFSP A
  </text>
  <text font-family="sans-serif" font-size="14" lengthAdjust="spacingAndGlyphs" textLength="48" x="829" y="96.378">
    (Payer)
  </text>
  <path fill="#FEFECE" filter="url(#a)" stroke="#a80036" stroke-width="1.5" d="M821 1644.195h64v46.594h-64z"/>
  <text font-family="sans-serif" font-size="14" lengthAdjust="spacingAndGlyphs" textLength="50" x="828" y="1664.19">
    DFSP A
  </text>
  <text font-family="sans-serif" font-size="14" lengthAdjust="spacingAndGlyphs" textLength="48" x="829" y="1680.487">
    (Payer)
  </text>
  <path fill="#FEFECE" filter="url(#a)" stroke="#a80036" stroke-width="1.5" d="M1120 60.086h66v46.594h-66z"/>
  <text font-family="sans-serif" font-size="14" lengthAdjust="spacingAndGlyphs" textLength="51" x="1127.5" y="80.081">
    DFSP B
  </text>
  <text font-family="sans-serif" font-size="14" lengthAdjust="spacingAndGlyphs" textLength="52" x="1127" y="96.378">
    (Payee)
  </text>
  <path fill="#FEFECE" filter="url(#a)" stroke="#a80036" stroke-width="1.5" d="M1120 1644.195h66v46.594h-66z"/>
  <text font-family="sans-serif" font-size="14" lengthAdjust="spacingAndGlyphs" textLength="51" x="1127.5" y="1664.19">
    DFSP B
  </text>
  <text font-family="sans-serif" font-size="14" lengthAdjust="spacingAndGlyphs" textLength="52" x="1127" y="1680.487">
    (Payee)
  </text>
  <text font-family="sans-serif" font-size="11" lengthAdjust="spacingAndGlyphs" textLength="309" x="320" y="145.89">
    PISP has initiated Thirdparty Transaction Request with
  </text>
  <text font-family="monospace" font-size="11" lengthAdjust="spacingAndGlyphs" textLength="259" x="633" y="145.89">
    POST /thirdpartyRequests/transactions
  </text>
  <text font-family="sans-serif" font-size="11" lengthAdjust="spacingAndGlyphs" textLength="299" x="456.5" y="186.695">
    DFSP A has received quote, and asked PISP to verify
  </text>
  <text font-family="sans-serif" font-size="11" lengthAdjust="spacingAndGlyphs" textLength="117" x="353" y="227.5">
    DFSP A has received
  </text>
  <text font-family="monospace" font-size="11" lengthAdjust="spacingAndGlyphs" textLength="385" x="474" y="227.5">
    PUT /thirdpartyRequests/verifications from Auth-Service
  </text>
  <text font-family="sans-serif" font-size="11" lengthAdjust="spacingAndGlyphs" textLength="276" x="466" y="268.304">
    DFSP A initiates a normal Mojaloop P2P Transfer
  </text>
  <path stroke="#a80036" d="M855 321.164h42M897 321.164v13M856 334.164h41"/>
  <path fill="#A80036" stroke="#a80036" d="M866 330.164l-10 4 10 4-4-4z"/>
  <text font-family="sans-serif" font-size="13" lengthAdjust="spacingAndGlyphs" textLength="101" x="862" y="300.965">
    Generate a new
  </text>
  <text font-family="monospace" font-size="13" lengthAdjust="spacingAndGlyphs" textLength="80" x="967" y="300.965">
    transferId
  </text>
  <text font-family="sans-serif" font-size="13" lengthAdjust="spacingAndGlyphs" textLength="97" x="1047" y="300.965">
    , and associate
  </text>
  <text font-family="sans-serif" font-size="13" lengthAdjust="spacingAndGlyphs" textLength="62" x="866" y="316.098">
    it with the
  </text>
  <text font-family="monospace" font-size="13" lengthAdjust="spacingAndGlyphs" textLength="160" x="932" y="316.098">
    transactionRequestId
  </text>
  <path fill="#FFF" filter="url(#a)" stroke="#a80036" d="M717 347.164h276v250H717z"/>
  <text font-family="monospace" font-size="13" font-weight="bold" lengthAdjust="spacingAndGlyphs" textLength="120" x="721" y="363.231">
    POST /transfers
  </text>
  <text font-family="monospace" font-size="13" lengthAdjust="spacingAndGlyphs" textLength="160" x="721" y="378.364">
    FSPIOP-Source: dfspa
  </text>
  <text font-family="monospace" font-size="13" lengthAdjust="spacingAndGlyphs" textLength="200" x="721" y="393.497">
    FSPIOP-Destination: dfspb
  </text>
  <text font-family="sans-serif" font-size="13" lengthAdjust="spacingAndGlyphs" textLength="8" x="721" y="408.629">
    {
  </text>
  <text font-family="sans-serif" font-size="13" lengthAdjust="spacingAndGlyphs" textLength="117" x="729" y="423.762">
    &quot;transferId&quot;: &quot;321&quot;,
  </text>
  <text font-family="sans-serif" font-size="13" lengthAdjust="spacingAndGlyphs" textLength="104" x="729" y="438.895">
    &quot;quoteId&quot;: &quot;456&quot;,
  </text>
  <text font-family="sans-serif" font-size="13" lengthAdjust="spacingAndGlyphs" textLength="125" x="729" y="454.028">
    &quot;payerFsp&quot;: &quot;dfspa&quot;,
  </text>
  <text font-family="sans-serif" font-size="13" lengthAdjust="spacingAndGlyphs" textLength="128" x="729" y="469.161">
    &quot;payeeFsp&quot;: &quot;dfspb&quot;,
  </text>
  <text font-family="sans-serif" font-size="13" lengthAdjust="spacingAndGlyphs" textLength="76" x="729" y="484.293">
    &quot;amount&quot;: {
  </text>
  <text font-family="sans-serif" font-size="13" lengthAdjust="spacingAndGlyphs" textLength="106" x="737" y="499.426">
    &quot;amount&quot;: &quot;100&quot;,
  </text>
  <text font-family="sans-serif" font-size="13" lengthAdjust="spacingAndGlyphs" textLength="112" x="737" y="514.559">
    &quot;currency&quot;: &quot;USD&quot;
  </text>
  <text font-family="sans-serif" font-size="13" lengthAdjust="spacingAndGlyphs" textLength="12" x="729" y="529.692">
    },
  </text>
  <text font-family="sans-serif" font-size="13" lengthAdjust="spacingAndGlyphs" textLength="260" x="729" y="544.825">
    &quot;expiration&quot;: &quot;2020-06-15T13:00:00.000&quot;,
  </text>
  <text font-family="sans-serif" font-size="13" lengthAdjust="spacingAndGlyphs" textLength="101" x="729" y="559.957">
    &quot;ilpPacket&quot;: &quot;...&quot;,
  </text>
  <text font-family="sans-serif" font-size="13" lengthAdjust="spacingAndGlyphs" textLength="102" x="729" y="575.09">
    &quot;condition&quot;: &quot;...&quot;,
  </text>
  <text font-family="sans-serif" font-size="13" lengthAdjust="spacingAndGlyphs" textLength="8" x="721" y="590.223">
    }
  </text>
  <path fill="#A80036" stroke="#a80036" d="M465 619.422l-10 4 10 4-4-4z"/>
  <path stroke="#a80036" d="M459 623.422h395"/>
  <text font-family="monospace" font-size="13" lengthAdjust="spacingAndGlyphs" textLength="120" x="471" y="618.356">
    POST /transfers
  </text>
  <path fill="#A80036" stroke="#a80036" d="M843 648.555l10 4-10 4 4-4z"/>
  <path stroke="#a80036" stroke-dasharray="2,2" d="M454 652.555h395"/>
  <text font-family="monospace" font-size="13" lengthAdjust="spacingAndGlyphs" textLength="96" x="461" y="647.489">
    202 Accepted
  </text>
  <path fill="#FFF" filter="url(#a)" stroke="#a80036" d="M316 665.555h276v250H316z"/>
  <text font-family="monospace" font-size="13" font-weight="bold" lengthAdjust="spacingAndGlyphs" textLength="120" x="320" y="681.622">
    POST /transfers
  </text>
  <text font-family="monospace" font-size="13" lengthAdjust="spacingAndGlyphs" textLength="160" x="320" y="696.754">
    FSPIOP-Source: dfspa
  </text>
  <text font-family="monospace" font-size="13" lengthAdjust="spacingAndGlyphs" textLength="200" x="320" y="711.887">
    FSPIOP-Destination: dfspb
  </text>
  <text font-family="sans-serif" font-size="13" lengthAdjust="spacingAndGlyphs" textLength="8" x="320" y="727.02">
    {
  </text>
  <text font-family="sans-serif" font-size="13" lengthAdjust="spacingAndGlyphs" textLength="117" x="328" y="742.153">
    &quot;transferId&quot;: &quot;321&quot;,
  </text>
  <text font-family="sans-serif" font-size="13" lengthAdjust="spacingAndGlyphs" textLength="104" x="328" y="757.286">
    &quot;quoteId&quot;: &quot;456&quot;,
  </text>
  <text font-family="sans-serif" font-size="13" lengthAdjust="spacingAndGlyphs" textLength="125" x="328" y="772.418">
    &quot;payerFsp&quot;: &quot;dfspa&quot;,
  </text>
  <text font-family="sans-serif" font-size="13" lengthAdjust="spacingAndGlyphs" textLength="128" x="328" y="787.551">
    &quot;payeeFsp&quot;: &quot;dfspb&quot;,
  </text>
  <text font-family="sans-serif" font-size="13" lengthAdjust="spacingAndGlyphs" textLength="76" x="328" y="802.684">
    &quot;amount&quot;: {
  </text>
  <text font-family="sans-serif" font-size="13" lengthAdjust="spacingAndGlyphs" textLength="106" x="336" y="817.817">
    &quot;amount&quot;: &quot;100&quot;,
  </text>
  <text font-family="sans-serif" font-size="13" lengthAdjust="spacingAndGlyphs" textLength="112" x="336" y="832.95">
    &quot;currency&quot;: &quot;USD&quot;
  </text>
  <text font-family="sans-serif" font-size="13" lengthAdjust="spacingAndGlyphs" textLength="12" x="328" y="848.082">
    },
  </text>
  <text font-family="sans-serif" font-size="13" lengthAdjust="spacingAndGlyphs" textLength="260" x="328" y="863.215">
    &quot;expiration&quot;: &quot;2020-06-15T13:00:00.000&quot;,
  </text>
  <text font-family="sans-serif" font-size="13" lengthAdjust="spacingAndGlyphs" textLength="101" x="328" y="878.348">
    &quot;ilpPacket&quot;: &quot;...&quot;,
  </text>
  <text font-family="sans-serif" font-size="13" lengthAdjust="spacingAndGlyphs" textLength="102" x="328" y="893.481">
    &quot;condition&quot;: &quot;...&quot;,
  </text>
  <text font-family="sans-serif" font-size="13" lengthAdjust="spacingAndGlyphs" textLength="8" x="320" y="908.614">
    }
  </text>
  <path fill="#A80036" stroke="#a80036" d="M1143 937.813l10 4-10 4 4-4z"/>
  <path stroke="#a80036" d="M454 941.813h695"/>
  <text font-family="monospace" font-size="13" lengthAdjust="spacingAndGlyphs" textLength="120" x="461" y="936.747">
    POST /transfers
  </text>
  <path fill="#A80036" stroke="#a80036" d="M465 966.945l-10 4 10 4-4-4z"/>
  <path stroke="#a80036" stroke-dasharray="2,2" d="M459 970.945h695"/>
  <text font-family="monospace" font-size="13" lengthAdjust="spacingAndGlyphs" textLength="96" x="471" y="965.879">
    202 Accepted
  </text>
  <path fill="#FFF" filter="url(#a)" stroke="#a80036" d="M942 983.945h208v159H942z"/>
  <text font-family="monospace" font-size="13" font-weight="bold" lengthAdjust="spacingAndGlyphs" textLength="192" x="946" y="1000.012">
    PUT /transfers/321/error
  </text>
  <text font-family="monospace" font-size="13" lengthAdjust="spacingAndGlyphs" textLength="160" x="946" y="1015.145">
    FSPIOP-Source: dfspb
  </text>
  <text font-family="monospace" font-size="13" lengthAdjust="spacingAndGlyphs" textLength="200" x="946" y="1030.278">
    FSPIOP-Destination: dfspa
  </text>
  <text font-family="sans-serif" font-size="13" lengthAdjust="spacingAndGlyphs" textLength="8" x="946" y="1045.411">
    {
  </text>
  <text font-family="sans-serif" font-size="13" lengthAdjust="spacingAndGlyphs" textLength="130" x="950" y="1060.543">
    &quot;errorInformation&quot;: {
  </text>
  <text font-family="sans-serif" font-size="13" lengthAdjust="spacingAndGlyphs" textLength="128" x="962" y="1075.676">
    &quot;errorCode&quot;: &quot;XXXX&quot;,
  </text>
  <text font-family="sans-serif" font-size="13" lengthAdjust="spacingAndGlyphs" textLength="167" x="962" y="1090.809">
    &quot;errorDescription&quot;: &quot;XXXX&quot;,
  </text>
  <text font-family="sans-serif" font-size="13" lengthAdjust="spacingAndGlyphs" textLength="112" x="962" y="1105.942">
    &quot;extensionList&quot;: []
  </text>
  <text font-family="sans-serif" font-size="13" lengthAdjust="spacingAndGlyphs" textLength="8" x="954" y="1121.075">
    }
  </text>
  <text font-family="sans-serif" font-size="13" lengthAdjust="spacingAndGlyphs" textLength="8" x="946" y="1136.207">
    }
  </text>
  <path fill="#A80036" stroke="#a80036" d="M465 1165.406l-10 4 10 4-4-4z"/>
  <path stroke="#a80036" d="M459 1169.406h695"/>
  <text font-family="monospace" font-size="13" lengthAdjust="spacingAndGlyphs" textLength="192" x="471" y="1164.34">
    PUT /transfers/321/error
  </text>
  <path fill="#A80036" stroke="#a80036" d="M1143 1194.54l10 4-10 4 4-4z"/>
  <path stroke="#a80036" stroke-dasharray="2,2" d="M454 1198.539h695"/>
  <text font-family="monospace" font-size="13" lengthAdjust="spacingAndGlyphs" textLength="48" x="461" y="1193.473">
    200 OK
  </text>
  <path fill="#A80036" stroke="#a80036" d="M843 1223.672l10 4-10 4 4-4z"/>
  <path stroke="#a80036" d="M454 1227.672h395"/>
  <text font-family="monospace" font-size="13" lengthAdjust="spacingAndGlyphs" textLength="192" x="461" y="1222.606">
    PUT /transfers/321/error
  </text>
  <path fill="#A80036" stroke="#a80036" d="M465 1252.805l-10 4 10 4-4-4z"/>
  <path stroke="#a80036" stroke-dasharray="2,2" d="M459 1256.805h395"/>
  <text font-family="monospace" font-size="13" lengthAdjust="spacingAndGlyphs" textLength="48" x="471" y="1251.739">
    200 OK
  </text>
  <path d="M556 1269.805v25h290v-15l-10-10H556" fill="#FBFB77" filter="url(#a)" stroke="#a80036"/>
  <path d="M836 1269.805v10h10l-10-10" fill="#FBFB77" stroke="#a80036"/>
  <text font-family="sans-serif" font-size="13" lengthAdjust="spacingAndGlyphs" textLength="269" x="562" y="1286.872">
    Transfer failed, DFSP needs to inform PISP
  </text>
  <path fill="#FFF" filter="url(#a)" stroke="#a80036" d="M466 1308.938h384v174H466z"/>
  <text font-family="monospace" font-size="13" font-weight="bold" lengthAdjust="spacingAndGlyphs" textLength="288" x="470" y="1325.004">
    PUT /thirdpartyRequests/transactions
  </text>
  <text font-family="monospace" font-size="13" font-weight="bold" lengthAdjust="spacingAndGlyphs" textLength="344" x="502" y="1340.137">
    /00000000-0000-0000-0000-000000000000/error
  </text>
  <text font-family="monospace" font-size="13" lengthAdjust="spacingAndGlyphs" textLength="160" x="470" y="1355.27">
    FSPIOP-Source: dfspa
  </text>
  <text font-family="monospace" font-size="13" lengthAdjust="spacingAndGlyphs" textLength="200" x="470" y="1370.403">
    FSPIOP-Destination: pispa
  </text>
  <text font-family="sans-serif" font-size="13" lengthAdjust="spacingAndGlyphs" textLength="8" x="470" y="1385.536">
    {
  </text>
  <text font-family="sans-serif" font-size="13" lengthAdjust="spacingAndGlyphs" textLength="130" x="478" y="1400.668">
    &quot;errorInformation&quot;: {
  </text>
  <text font-family="sans-serif" font-size="13" lengthAdjust="spacingAndGlyphs" textLength="128" x="486" y="1415.801">
    &quot;errorCode&quot;: &quot;71XX&quot;,
  </text>
  <text font-family="sans-serif" font-size="13" lengthAdjust="spacingAndGlyphs" textLength="311" x="486" y="1430.934">
    &quot;errorDescription&quot;: &quot;Downstream request failed.&quot;,
  </text>
  <text font-family="sans-serif" font-size="13" lengthAdjust="spacingAndGlyphs" textLength="112" x="486" y="1446.067">
    &quot;extensionList&quot;: []
  </text>
  <text font-family="sans-serif" font-size="13" lengthAdjust="spacingAndGlyphs" textLength="8" x="478" y="1461.2">
    }
  </text>
  <text font-family="sans-serif" font-size="13" lengthAdjust="spacingAndGlyphs" textLength="8" x="470" y="1476.332">
    }
  </text>
  <path fill="#A80036" stroke="#a80036" d="M465 1520.664l-10 4 10 4-4-4z"/>
  <path stroke="#a80036" d="M459 1524.664h395"/>
  <text font-family="monospace" font-size="13" lengthAdjust="spacingAndGlyphs" textLength="288" x="471" y="1504.465">
    PUT /thirdpartyRequests/transactions
  </text>
  <text font-family="monospace" font-size="13" lengthAdjust="spacingAndGlyphs" textLength="344" x="503" y="1519.598">
    /00000000-0000-0000-0000-000000000000/error
  </text>
  <path fill="#A80036" stroke="#a80036" d="M843 1549.797l10 4-10 4 4-4z"/>
  <path stroke="#a80036" stroke-dasharray="2,2" d="M454 1553.797h395"/>
  <text font-family="monospace" font-size="13" lengthAdjust="spacingAndGlyphs" textLength="48" x="461" y="1548.731">
    200 OK
  </text>
  <path fill="#A80036" stroke="#a80036" d="M64 1594.063l-10 4 10 4-4-4z"/>
  <path stroke="#a80036" d="M58 1598.063h395"/>
  <text font-family="monospace" font-size="13" lengthAdjust="spacingAndGlyphs" textLength="288" x="70" y="1577.864">
    PUT /thirdpartyRequests/transactions
  </text>
  <text font-family="monospace" font-size="13" lengthAdjust="spacingAndGlyphs" textLength="344" x="102" y="1592.997">
    /00000000-0000-0000-0000-000000000000/error
  </text>
  <path fill="#A80036" stroke="#a80036" d="M442 1623.195l10 4-10 4 4-4z"/>
  <path stroke="#a80036" stroke-dasharray="2,2" d="M53 1627.195h395"/>
  <text font-family="monospace" font-size="13" lengthAdjust="spacingAndGlyphs" textLength="48" x="60" y="1622.129">
    200 OK
  </text>
</svg>
