<svg xmlns="http://www.w3.org/2000/svg" height="2247" preserveAspectRatio="none" style="width:1619px;height:2247px" width="1619">
  <defs>
    <filter height="300%" id="a" width="300%" x="-1" y="-1">
      <feGaussianBlur result="blurOut" stdDeviation="2"/>
      <feColorMatrix in="blurOut" result="blurOut2" values="0 0 0 0 0 0 0 0 0 0 0 0 0 0 0 0 0 0 .4 0"/>
      <feOffset dx="4" dy="4" in="blurOut2" result="blurOut3"/>
      <feBlend in="SourceGraphic" in2="blurOut3"/>
    </filter>
  </defs>
  <text font-family="sans-serif" font-size="18" lengthAdjust="spacingAndGlyphs" textLength="573" x="523" y="28.708">
    Transfer: 3.4.2 Bad Signed Challenge - Hub Hosted Auth-Service
  </text>
  <path fill="#DDD" stroke="#a80036" d="M1 40.953h104v2200.813H1z"/>
  <text font-family="sans-serif" font-size="13" font-weight="bold" lengthAdjust="spacingAndGlyphs" textLength="33" x="36.5" y="53.02">
    PISP
  </text>
  <path fill="#DDD" stroke="#a80036" d="M417.5 40.953h492v2200.813h-492z"/>
  <text font-family="sans-serif" font-size="13" font-weight="bold" lengthAdjust="spacingAndGlyphs" textLength="67" x="630" y="53.02">
    Mojaloop
  </text>
  <path fill="#DDD" stroke="#a80036" d="M1185 40.953h76v2200.813h-76z"/>
  <text font-family="sans-serif" font-size="13" font-weight="bold" lengthAdjust="spacingAndGlyphs" textLength="54" x="1196" y="53.02">
    DFSP A
  </text>
  <path stroke="#a80036" d="M53 111.68v10"/>
  <path stroke="#a80036" stroke-dasharray="1,4" d="M53 121.68v40.804"/>
  <path stroke="#a80036" d="M53 162.484h0"/>
  <path stroke="#a80036" stroke-dasharray="1,4" d="M53 162.484v40.805"/>
  <path stroke="#a80036" d="M53 203.289v1983.883M452.5 111.68v10"/>
  <path stroke="#a80036" stroke-dasharray="1,4" d="M452.5 121.68v40.804"/>
  <path stroke="#a80036" d="M452.5 162.484h0"/>
  <path stroke="#a80036" stroke-dasharray="1,4" d="M452.5 162.484v40.805"/>
  <path stroke="#a80036" d="M452.5 203.289v1983.883M852.5 111.68v10"/>
  <path stroke="#a80036" stroke-dasharray="1,4" d="M852.5 121.68v40.804"/>
  <path stroke="#a80036" d="M852.5 162.484h0"/>
  <path stroke="#a80036" stroke-dasharray="1,4" d="M852.5 162.484v40.805"/>
  <path stroke="#a80036" d="M852.5 203.289v1983.883M1223 111.68v10"/>
  <path stroke="#a80036" stroke-dasharray="1,4" d="M1223 121.68v40.804"/>
  <path stroke="#a80036" d="M1223 162.484h0"/>
  <path stroke="#a80036" stroke-dasharray="1,4" d="M1223 162.484v40.805"/>
  <path stroke="#a80036" d="M1223 203.289v1983.883"/>
  <path fill="#FEFECE" filter="url(#a)" stroke="#a80036" stroke-width="1.5" d="M5 76.383h92v30.297H5z"/>
  <text font-family="sans-serif" font-size="14" lengthAdjust="spacingAndGlyphs" textLength="78" x="12" y="96.378">
    PISP Server
  </text>
  <path fill="#FEFECE" filter="url(#a)" stroke="#a80036" stroke-width="1.5" d="M5 2186.172h92v30.297H5z"/>
  <text font-family="sans-serif" font-size="14" lengthAdjust="spacingAndGlyphs" textLength="78" x="12" y="2206.167">
    PISP Server
  </text>
  <path fill="#FEFECE" filter="url(#a)" stroke="#a80036" stroke-width="1.5" d="M421.5 76.383h59v30.297h-59z"/>
  <text font-family="sans-serif" font-size="14" lengthAdjust="spacingAndGlyphs" textLength="45" x="428.5" y="96.378">
    Switch
  </text>
  <path fill="#FEFECE" filter="url(#a)" stroke="#a80036" stroke-width="1.5" d="M421.5 2186.172h59v30.297h-59z"/>
  <text font-family="sans-serif" font-size="14" lengthAdjust="spacingAndGlyphs" textLength="45" x="428.5" y="2206.167">
    Switch
  </text>
  <path fill="#FEFECE" filter="url(#a)" stroke="#a80036" stroke-width="1.5" d="M800.5 76.383h101v30.297h-101z"/>
  <text font-family="sans-serif" font-size="14" lengthAdjust="spacingAndGlyphs" textLength="87" x="807.5" y="96.378">
    Auth-Service
  </text>
  <path fill="#FEFECE" filter="url(#a)" stroke="#a80036" stroke-width="1.5" d="M800.5 2186.172h101v30.297h-101z"/>
  <text font-family="sans-serif" font-size="14" lengthAdjust="spacingAndGlyphs" textLength="87" x="807.5" y="2206.167">
    Auth-Service
  </text>
  <path fill="#FEFECE" filter="url(#a)" stroke="#a80036" stroke-width="1.5" d="M1189 60.086h64v46.594h-64z"/>
  <text font-family="sans-serif" font-size="14" lengthAdjust="spacingAndGlyphs" textLength="50" x="1196" y="80.081">
    DFSP A
  </text>
  <text font-family="sans-serif" font-size="14" lengthAdjust="spacingAndGlyphs" textLength="48" x="1197" y="96.378">
    (Payer)
  </text>
  <path fill="#FEFECE" filter="url(#a)" stroke="#a80036" stroke-width="1.5" d="M1189 2186.172h64v46.594h-64z"/>
  <text font-family="sans-serif" font-size="14" lengthAdjust="spacingAndGlyphs" textLength="50" x="1196" y="2206.167">
    DFSP A
  </text>
  <text font-family="sans-serif" font-size="14" lengthAdjust="spacingAndGlyphs" textLength="48" x="1197" y="2222.464">
    (Payer)
  </text>
  <text font-family="sans-serif" font-size="11" lengthAdjust="spacingAndGlyphs" textLength="309" x="354" y="145.89">
    PISP has initiated Thirdparty Transaction Request with
  </text>
  <text font-family="monospace" font-size="11" lengthAdjust="spacingAndGlyphs" textLength="259" x="667" y="145.89">
    POST /thirdpartyRequests/transactions
  </text>
  <text font-family="sans-serif" font-size="11" lengthAdjust="spacingAndGlyphs" textLength="299" x="490.5" y="186.695">
    DFSP A has received quote, and asked PISP to verify
  </text>
  <path d="M58 208.29v70h323v-60l-10-10H58" fill="#FBFB77" filter="url(#a)" stroke="#a80036"/>
  <path d="M371 208.29v10h10l-10-10" fill="#FBFB77" stroke="#a80036"/>
  <text font-family="sans-serif" font-size="13" lengthAdjust="spacingAndGlyphs" textLength="110" x="64" y="225.356">
    PISP looks up the
  </text>
  <text font-family="monospace" font-size="13" lengthAdjust="spacingAndGlyphs" textLength="160" x="178" y="225.356">
    transactionRequestId
  </text>
  <text font-family="sans-serif" font-size="13" lengthAdjust="spacingAndGlyphs" textLength="24" x="342" y="225.356">
    and
  </text>
  <text font-family="sans-serif" font-size="13" lengthAdjust="spacingAndGlyphs" textLength="200" x="64" y="240.489">
    checks the quote with the user,
  </text>
  <text font-family="sans-serif" font-size="13" lengthAdjust="spacingAndGlyphs" textLength="213" x="64" y="255.622">
    and uses the FIDO API to sign the
  </text>
  <text font-family="sans-serif" font-size="13" lengthAdjust="spacingAndGlyphs" textLength="21" x="64" y="270.754">
    the
  </text>
  <text font-family="monospace" font-size="13" font-weight="bold" lengthAdjust="spacingAndGlyphs" textLength="72" x="89" y="270.754">
    challenge
  </text>
  <text font-family="sans-serif" font-size="13" lengthAdjust="spacingAndGlyphs" textLength="36" x="165" y="270.754">
    string
  </text>
  <path fill="#FFF" filter="url(#a)" stroke="#a80036" d="M58 292.82h378v325H58z"/>
  <text font-family="monospace" font-size="13" font-weight="bold" lengthAdjust="spacingAndGlyphs" textLength="304" x="62" y="308.887">
    PUT /thirdpartyRequests/authorizations
  </text>
  <text font-family="monospace" font-size="13" font-weight="bold" lengthAdjust="spacingAndGlyphs" textLength="296" x="94" y="324.02">
    /33333333-0000-0000-0000-000000000000
  </text>
  <text font-family="monospace" font-size="13" lengthAdjust="spacingAndGlyphs" textLength="160" x="62" y="339.153">
    FSPIOP-Source: pispa
  </text>
  <text font-family="monospace" font-size="13" lengthAdjust="spacingAndGlyphs" textLength="200" x="62" y="354.286">
    FSPIOP-Destination: dfspa
  </text>
  <text font-family="sans-serif" font-size="13" lengthAdjust="spacingAndGlyphs" textLength="8" x="62" y="369.418">
    {
  </text>
  <text font-family="sans-serif" font-size="13" lengthAdjust="spacingAndGlyphs" textLength="185" x="70" y="384.551">
    &quot;responseType&quot;: &quot;ACCEPTED&quot;
  </text>
  <text font-family="sans-serif" font-size="13" lengthAdjust="spacingAndGlyphs" textLength="118" x="70" y="399.684">
    &quot;signedPayload&quot;: {
  </text>
  <text font-family="sans-serif" font-size="13" lengthAdjust="spacingAndGlyphs" textLength="184" x="78" y="414.817">
    &quot;signedPayloadType&quot;: &quot;FIDO&quot;,
  </text>
  <text font-family="sans-serif" font-size="13" lengthAdjust="spacingAndGlyphs" textLength="60" x="78" y="429.95">
    &quot;value&quot;: {
  </text>
  <text font-family="sans-serif" font-size="13" lengthAdjust="spacingAndGlyphs" textLength="79" x="86" y="445.082">
    &quot;id&quot;: &quot;string&quot;,
  </text>
  <text font-family="sans-serif" font-size="13" lengthAdjust="spacingAndGlyphs" textLength="254" x="86" y="460.215">
    &quot;rawId&quot;: &quot;string - base64 encoded utf-8&quot;,
  </text>
  <text font-family="sans-serif" font-size="13" lengthAdjust="spacingAndGlyphs" textLength="85" x="86" y="475.348">
    &quot;response&quot;: {
  </text>
  <text font-family="sans-serif" font-size="13" lengthAdjust="spacingAndGlyphs" textLength="338" x="94" y="490.481">
    &quot;authenticatorData&quot;: &quot;string - base64 encoded utf-8&quot;,
  </text>
  <text font-family="sans-serif" font-size="13" lengthAdjust="spacingAndGlyphs" textLength="318" x="94" y="505.614">
    &quot;clientDataJSON&quot;: &quot;string - base64 encoded utf-8&quot;,
  </text>
  <text font-family="sans-serif" font-size="13" lengthAdjust="spacingAndGlyphs" textLength="281" x="94" y="520.747">
    &quot;signature&quot;: &quot;string - base64 encoded utf-8&quot;,
  </text>
  <text font-family="sans-serif" font-size="13" lengthAdjust="spacingAndGlyphs" textLength="294" x="94" y="535.879">
    &quot;userHandle&quot;: &quot;string - base64 encoded utf-8&quot;,
  </text>
  <text font-family="sans-serif" font-size="13" lengthAdjust="spacingAndGlyphs" textLength="12" x="86" y="551.012">
    },
  </text>
  <text font-family="sans-serif" font-size="13" lengthAdjust="spacingAndGlyphs" textLength="120" x="86" y="566.145">
    &quot;type&quot;: &quot;public-key&quot;
  </text>
  <text font-family="sans-serif" font-size="13" lengthAdjust="spacingAndGlyphs" textLength="8" x="78" y="581.278">
    }
  </text>
  <text font-family="sans-serif" font-size="13" lengthAdjust="spacingAndGlyphs" textLength="8" x="70" y="596.411">
    }
  </text>
  <text font-family="sans-serif" font-size="13" lengthAdjust="spacingAndGlyphs" textLength="8" x="62" y="611.543">
    }
  </text>
  <path fill="#A80036" stroke="#a80036" d="M441 655.875l10 4-10 4 4-4z"/>
  <path stroke="#a80036" d="M53 659.875h394"/>
  <text font-family="monospace" font-size="13" lengthAdjust="spacingAndGlyphs" textLength="304" x="60" y="639.676">
    PUT /thirdpartyRequests/authorizations
  </text>
  <text font-family="monospace" font-size="13" lengthAdjust="spacingAndGlyphs" textLength="296" x="60" y="654.809">
    /33333333-0000-0000-0000-000000000000
  </text>
  <path fill="#A80036" stroke="#a80036" d="M64 685.008l-10 4 10 4-4-4z"/>
  <path stroke="#a80036" stroke-dasharray="2,2" d="M58 689.008h394"/>
  <text font-family="monospace" font-size="13" lengthAdjust="spacingAndGlyphs" textLength="48" x="70" y="683.942">
    200 OK
  </text>
  <path fill="#A80036" stroke="#a80036" d="M1211 729.273l10 4-10 4 4-4z"/>
  <path stroke="#a80036" d="M453 733.273h764"/>
  <text font-family="monospace" font-size="13" lengthAdjust="spacingAndGlyphs" textLength="304" x="460" y="713.075">
    PUT /thirdpartyRequests/authorizations
  </text>
  <text font-family="monospace" font-size="13" lengthAdjust="spacingAndGlyphs" textLength="296" x="460" y="728.207">
    /33333333-0000-0000-0000-000000000000
  </text>
  <path fill="#A80036" stroke="#a80036" d="M464 758.406l-10 4 10 4-4-4z"/>
  <path stroke="#a80036" stroke-dasharray="2,2" d="M458 762.406h764"/>
  <text font-family="monospace" font-size="13" lengthAdjust="spacingAndGlyphs" textLength="48" x="470" y="757.34">
    200 OK
  </text>
  <path stroke="#a80036" d="M1223 791.539h42M1265 791.539v13M1224 804.539h41"/>
  <path fill="#A80036" stroke="#a80036" d="M1234 800.54l-10 4 10 4-4-4z"/>
  <text font-family="sans-serif" font-size="13" lengthAdjust="spacingAndGlyphs" textLength="46" x="1230" y="786.473">
    Lookup
  </text>
  <text font-family="monospace" font-size="13" lengthAdjust="spacingAndGlyphs" textLength="160" x="1280" y="786.473">
    transactionRequestId
  </text>
  <text font-family="sans-serif" font-size="13" lengthAdjust="spacingAndGlyphs" textLength="44" x="1444" y="786.473">
    for this
  </text>
  <text font-family="monospace" font-size="13" lengthAdjust="spacingAndGlyphs" textLength="120" x="1492" y="786.473">
    authorizationId
  </text>
  <path stroke="#a80036" d="M1223 833.672h42M1265 833.672v13M1224 846.672h41"/>
  <path fill="#A80036" stroke="#a80036" d="M1234 842.672l-10 4 10 4-4-4z"/>
  <text font-family="sans-serif" font-size="13" lengthAdjust="spacingAndGlyphs" textLength="46" x="1230" y="828.606">
    Lookup
  </text>
  <text font-family="monospace" font-size="13" lengthAdjust="spacingAndGlyphs" textLength="72" x="1280" y="828.606">
    consentId
  </text>
  <text font-family="sans-serif" font-size="13" lengthAdjust="spacingAndGlyphs" textLength="44" x="1356" y="828.606">
    for this
  </text>
  <text font-family="monospace" font-size="13" lengthAdjust="spacingAndGlyphs" textLength="160" x="1404" y="828.606">
    transactionRequestId
  </text>
  <path stroke="#a80036" d="M1223 890.938h42M1265 890.938v13M1224 903.938h41"/>
  <path fill="#A80036" stroke="#a80036" d="M1234 899.938l-10 4 10 4-4-4z"/>
  <text font-family="sans-serif" font-size="13" lengthAdjust="spacingAndGlyphs" textLength="101" x="1230" y="870.739">
    Generate a new
  </text>
  <text font-family="monospace" font-size="13" lengthAdjust="spacingAndGlyphs" textLength="168" x="1335" y="870.739">
    verificationRequestId
  </text>
  <text font-family="sans-serif" font-size="13" lengthAdjust="spacingAndGlyphs" textLength="97" x="1503" y="870.739">
    , and associate
  </text>
  <text font-family="sans-serif" font-size="13" lengthAdjust="spacingAndGlyphs" textLength="62" x="1234" y="885.872">
    it with the
  </text>
  <text font-family="monospace" font-size="13" lengthAdjust="spacingAndGlyphs" textLength="240" x="1300" y="885.872">
    thirdpartyTransactionRequestId
  </text>
  <path fill="#FFF" filter="url(#a)" stroke="#a80036" d="M743 916.938h475v295H743z"/>
  <text font-family="monospace" font-size="13" font-weight="bold" lengthAdjust="spacingAndGlyphs" textLength="304" x="747" y="933.004">
    POST /thirdpartyRequests/verifications
  </text>
  <text font-family="monospace" font-size="13" lengthAdjust="spacingAndGlyphs" textLength="160" x="747" y="948.137">
    FSPIOP-Source: dfspa
  </text>
  <text font-family="monospace" font-size="13" lengthAdjust="spacingAndGlyphs" textLength="256" x="747" y="963.27">
    FSPIOP-Destination: central-auth
  </text>
  <text font-family="sans-serif" font-size="13" lengthAdjust="spacingAndGlyphs" textLength="8" x="747" y="978.403">
    {
  </text>
  <text font-family="sans-serif" font-size="13" lengthAdjust="spacingAndGlyphs" textLength="440" x="755" y="993.536">
    &quot;verificationRequestId&quot;: &quot;44444444-0000-0000-0000-000000000000&quot;,
  </text>
  <text font-family="sans-serif" font-size="13" lengthAdjust="spacingAndGlyphs" textLength="75" x="755" y="1008.668">
    &quot;challenge&quot;:
  </text>
  <text font-family="monospace" font-size="13" lengthAdjust="spacingAndGlyphs" textLength="376" x="834" y="1008.668">
    &lt;base64 encoded binary - the encoded challenge&gt;
  </text>
  <text font-family="sans-serif" font-size="13" lengthAdjust="spacingAndGlyphs" textLength="4" x="1210" y="1008.668">
    ,
  </text>
  <text font-family="sans-serif" font-size="13" lengthAdjust="spacingAndGlyphs" textLength="60" x="755" y="1023.801">
    &quot;value&quot;: {
  </text>
  <text font-family="sans-serif" font-size="13" lengthAdjust="spacingAndGlyphs" textLength="79" x="763" y="1038.934">
    &quot;id&quot;: &quot;string&quot;,
  </text>
  <text font-family="sans-serif" font-size="13" lengthAdjust="spacingAndGlyphs" textLength="254" x="763" y="1054.067">
    &quot;rawId&quot;: &quot;string - base64 encoded utf-8&quot;,
  </text>
  <text font-family="sans-serif" font-size="13" lengthAdjust="spacingAndGlyphs" textLength="85" x="763" y="1069.2">
    &quot;response&quot;: {
  </text>
  <text font-family="sans-serif" font-size="13" lengthAdjust="spacingAndGlyphs" textLength="338" x="771" y="1084.332">
    &quot;authenticatorData&quot;: &quot;string - base64 encoded utf-8&quot;,
  </text>
  <text font-family="sans-serif" font-size="13" lengthAdjust="spacingAndGlyphs" textLength="318" x="771" y="1099.465">
    &quot;clientDataJSON&quot;: &quot;string - base64 encoded utf-8&quot;,
  </text>
  <text font-family="sans-serif" font-size="13" lengthAdjust="spacingAndGlyphs" textLength="281" x="771" y="1114.598">
    &quot;signature&quot;: &quot;string - base64 encoded utf-8&quot;,
  </text>
  <text font-family="sans-serif" font-size="13" lengthAdjust="spacingAndGlyphs" textLength="294" x="771" y="1129.731">
    &quot;userHandle&quot;: &quot;string - base64 encoded utf-8&quot;,
  </text>
  <text font-family="sans-serif" font-size="13" lengthAdjust="spacingAndGlyphs" textLength="12" x="763" y="1144.864">
    },
  </text>
  <text font-family="sans-serif" font-size="13" lengthAdjust="spacingAndGlyphs" textLength="120" x="763" y="1159.997">
    &quot;type&quot;: &quot;public-key&quot;
  </text>
  <text font-family="sans-serif" font-size="13" lengthAdjust="spacingAndGlyphs" textLength="8" x="755" y="1175.129">
    }
  </text>
  <text font-family="sans-serif" font-size="13" lengthAdjust="spacingAndGlyphs" textLength="114" x="755" y="1190.262">
    &quot;consentId&quot;: &quot;123&quot;
  </text>
  <text font-family="sans-serif" font-size="13" lengthAdjust="spacingAndGlyphs" textLength="8" x="747" y="1205.395">
    }
  </text>
  <path fill="#A80036" stroke="#a80036" d="M464 1234.594l-10 4 10 4-4-4z"/>
  <path stroke="#a80036" d="M458 1238.594h764"/>
  <text font-family="monospace" font-size="13" lengthAdjust="spacingAndGlyphs" textLength="304" x="470" y="1233.528">
    POST /thirdpartyRequests/verifications
  </text>
  <path fill="#A80036" stroke="#a80036" d="M1211 1263.727l10 4-10 4 4-4z"/>
  <path stroke="#a80036" stroke-dasharray="2,2" d="M453 1267.727h764"/>
  <text font-family="monospace" font-size="13" lengthAdjust="spacingAndGlyphs" textLength="96" x="460" y="1262.661">
    202 Accepted
  </text>
  <path fill="#A80036" stroke="#a80036" d="M841 1292.86l10 4-10 4 4-4z"/>
  <path stroke="#a80036" d="M453 1296.859h394"/>
  <text font-family="monospace" font-size="13" lengthAdjust="spacingAndGlyphs" textLength="304" x="460" y="1291.793">
    POST /thirdpartyRequests/verifications
  </text>
  <path fill="#A80036" stroke="#a80036" d="M464 1321.992l-10 4 10 4-4-4z"/>
  <path stroke="#a80036" stroke-dasharray="2,2" d="M458 1325.992h394"/>
  <text font-family="monospace" font-size="13" lengthAdjust="spacingAndGlyphs" textLength="96" x="470" y="1320.926">
    202 Accepted
  </text>
  <path stroke="#a80036" d="M853 1355.125h42M895 1355.125v13M854 1368.125h41"/>
  <path fill="#A80036" stroke="#a80036" d="M864 1364.125l-10 4 10 4-4-4z"/>
  <text font-family="sans-serif" font-size="13" lengthAdjust="spacingAndGlyphs" textLength="257" x="860" y="1350.059">
    Lookup this consent based on consentId
  </text>
  <path stroke="#a80036" d="M853 1397.258h42M895 1397.258v13M854 1410.258h41"/>
  <path fill="#A80036" stroke="#a80036" d="M864 1406.258l-10 4 10 4-4-4z"/>
  <text font-family="sans-serif" font-size="13" lengthAdjust="spacingAndGlyphs" textLength="356" x="860" y="1392.192">
    Ensure the accountAddress matches what is in Consent
  </text>
  <path stroke="#a80036" d="M853 1454.523h42M895 1454.523v13M854 1467.523h41"/>
  <path fill="#A80036" stroke="#a80036" d="M864 1463.523l-10 4 10 4-4-4z"/>
  <text font-family="sans-serif" font-size="13" lengthAdjust="spacingAndGlyphs" textLength="249" x="860" y="1434.325">
    Check that the signed bytes match the
  </text>
  <text font-family="sans-serif" font-size="13" lengthAdjust="spacingAndGlyphs" textLength="261" x="860" y="1449.457">
    publickey we have stored for the consent
  </text>
  <path fill="#FFF" filter="url(#a)" stroke="#a80036" d="M858 1480.523h384v174H858z"/>
  <text font-family="monospace" font-size="13" font-weight="bold" lengthAdjust="spacingAndGlyphs" textLength="296" x="862" y="1496.59">
    PUT /thirdpartyRequests/verifications
  </text>
  <text font-family="monospace" font-size="13" font-weight="bold" lengthAdjust="spacingAndGlyphs" textLength="344" x="894" y="1511.723">
    /44444444-0000-0000-0000-000000000000/error
  </text>
  <text font-family="monospace" font-size="13" lengthAdjust="spacingAndGlyphs" textLength="216" x="862" y="1526.856">
    FSPIOP-Source: central-auth
  </text>
  <text font-family="monospace" font-size="13" lengthAdjust="spacingAndGlyphs" textLength="200" x="862" y="1541.989">
    FSPIOP-Destination: dfspa
  </text>
  <text font-family="sans-serif" font-size="13" lengthAdjust="spacingAndGlyphs" textLength="8" x="862" y="1557.122">
    {
  </text>
  <text font-family="sans-serif" font-size="13" lengthAdjust="spacingAndGlyphs" textLength="130" x="870" y="1572.254">
    &quot;errorInformation&quot;: {
  </text>
  <text font-family="sans-serif" font-size="13" lengthAdjust="spacingAndGlyphs" textLength="128" x="878" y="1587.387">
    &quot;errorCode&quot;: &quot;71XX&quot;,
  </text>
  <text font-family="sans-serif" font-size="13" lengthAdjust="spacingAndGlyphs" textLength="286" x="878" y="1602.52">
    &quot;errorDescription&quot;: &quot;Invalid signed challenge&quot;,
  </text>
  <text font-family="sans-serif" font-size="13" lengthAdjust="spacingAndGlyphs" textLength="112" x="878" y="1617.653">
    &quot;extensionList&quot;: []
  </text>
  <text font-family="sans-serif" font-size="13" lengthAdjust="spacingAndGlyphs" textLength="8" x="870" y="1632.786">
    }
  </text>
  <text font-family="sans-serif" font-size="13" lengthAdjust="spacingAndGlyphs" textLength="8" x="862" y="1647.918">
    }
  </text>
  <path fill="#A80036" stroke="#a80036" d="M464 1692.25l-10 4 10 4-4-4z"/>
  <path stroke="#a80036" d="M458 1696.25h394"/>
  <text font-family="monospace" font-size="13" lengthAdjust="spacingAndGlyphs" textLength="296" x="470" y="1676.051">
    PUT /thirdpartyRequests/verifications
  </text>
  <text font-family="monospace" font-size="13" lengthAdjust="spacingAndGlyphs" textLength="344" x="502" y="1691.184">
    /44444444-0000-0000-0000-000000000000/error
  </text>
  <path fill="#A80036" stroke="#a80036" d="M841 1721.383l10 4-10 4 4-4z"/>
  <path stroke="#a80036" stroke-dasharray="2,2" d="M453 1725.383h394"/>
  <text font-family="monospace" font-size="13" lengthAdjust="spacingAndGlyphs" textLength="48" x="460" y="1720.317">
    200 OK
  </text>
  <path fill="#A80036" stroke="#a80036" d="M1211 1765.648l10 4-10 4 4-4z"/>
  <path stroke="#a80036" d="M453 1769.648h764"/>
  <text font-family="monospace" font-size="13" lengthAdjust="spacingAndGlyphs" textLength="296" x="460" y="1749.45">
    PUT /thirdpartyRequests/verifications
  </text>
  <text font-family="monospace" font-size="13" lengthAdjust="spacingAndGlyphs" textLength="344" x="492" y="1764.582">
    /44444444-0000-0000-0000-000000000000/error
  </text>
  <path fill="#A80036" stroke="#a80036" d="M464 1794.781l-10 4 10 4-4-4z"/>
  <path stroke="#a80036" stroke-dasharray="2,2" d="M458 1798.781h764"/>
  <text font-family="monospace" font-size="13" lengthAdjust="spacingAndGlyphs" textLength="48" x="470" y="1793.715">
    200 OK
  </text>
  <path d="M1037 1811.781v25h368v-15l-10-10h-358" fill="#FBFB77" filter="url(#a)" stroke="#a80036"/>
  <path d="M1395 1811.781v10h10l-10-10" fill="#FBFB77" stroke="#a80036"/>
  <text font-family="sans-serif" font-size="13" lengthAdjust="spacingAndGlyphs" textLength="347" x="1043" y="1828.848">
    Signed challenge is invalid. Transaction Request failed.
  </text>
  <path fill="#FFF" filter="url(#a)" stroke="#a80036" d="M834 1850.914h384v174H834z"/>
  <text font-family="monospace" font-size="13" font-weight="bold" lengthAdjust="spacingAndGlyphs" textLength="288" x="838" y="1866.981">
    PUT /thirdpartyRequests/transactions
  </text>
  <text font-family="monospace" font-size="13" font-weight="bold" lengthAdjust="spacingAndGlyphs" textLength="344" x="870" y="1882.114">
    /00000000-0000-0000-0000-000000000000/error
  </text>
  <text font-family="monospace" font-size="13" lengthAdjust="spacingAndGlyphs" textLength="160" x="838" y="1897.247">
    FSPIOP-Source: dfspa
  </text>
  <text font-family="monospace" font-size="13" lengthAdjust="spacingAndGlyphs" textLength="200" x="838" y="1912.379">
    FSPIOP-Destination: pispa
  </text>
  <text font-family="sans-serif" font-size="13" lengthAdjust="spacingAndGlyphs" textLength="8" x="838" y="1927.512">
    {
  </text>
  <text font-family="sans-serif" font-size="13" lengthAdjust="spacingAndGlyphs" textLength="130" x="846" y="1942.645">
    &quot;errorInformation&quot;: {
  </text>
  <text font-family="sans-serif" font-size="13" lengthAdjust="spacingAndGlyphs" textLength="128" x="854" y="1957.778">
    &quot;errorCode&quot;: &quot;71XX&quot;,
  </text>
  <text font-family="sans-serif" font-size="13" lengthAdjust="spacingAndGlyphs" textLength="286" x="854" y="1972.911">
    &quot;errorDescription&quot;: &quot;Invalid signed challenge&quot;,
  </text>
  <text font-family="sans-serif" font-size="13" lengthAdjust="spacingAndGlyphs" textLength="112" x="854" y="1988.043">
    &quot;extensionList&quot;: []
  </text>
  <text font-family="sans-serif" font-size="13" lengthAdjust="spacingAndGlyphs" textLength="8" x="846" y="2003.176">
    }
  </text>
  <text font-family="sans-serif" font-size="13" lengthAdjust="spacingAndGlyphs" textLength="8" x="838" y="2018.309">
    }
  </text>
  <path fill="#A80036" stroke="#a80036" d="M464 2062.64l-10 4 10 4-4-4z"/>
  <path stroke="#a80036" d="M458 2066.641h764"/>
  <text font-family="monospace" font-size="13" lengthAdjust="spacingAndGlyphs" textLength="288" x="470" y="2046.442">
    PUT /thirdpartyRequests/transactions
  </text>
  <text font-family="monospace" font-size="13" lengthAdjust="spacingAndGlyphs" textLength="344" x="502" y="2061.575">
    /00000000-0000-0000-0000-000000000000/error
  </text>
  <path fill="#A80036" stroke="#a80036" d="M1211 2091.773l10 4-10 4 4-4z"/>
  <path stroke="#a80036" stroke-dasharray="2,2" d="M453 2095.773h764"/>
  <text font-family="monospace" font-size="13" lengthAdjust="spacingAndGlyphs" textLength="48" x="460" y="2090.707">
    200 OK
  </text>
  <path fill="#A80036" stroke="#a80036" d="M64 2136.04l-10 4 10 4-4-4z"/>
  <path stroke="#a80036" d="M58 2140.039h394"/>
  <text font-family="monospace" font-size="13" lengthAdjust="spacingAndGlyphs" textLength="288" x="70" y="2119.84">
    PUT /thirdpartyRequests/transactions
  </text>
  <text font-family="monospace" font-size="13" lengthAdjust="spacingAndGlyphs" textLength="344" x="102" y="2134.973">
    /00000000-0000-0000-0000-000000000000/error
  </text>
  <path fill="#A80036" stroke="#a80036" d="M441 2165.172l10 4-10 4 4-4z"/>
  <path stroke="#a80036" stroke-dasharray="2,2" d="M53 2169.172h394"/>
  <text font-family="monospace" font-size="13" lengthAdjust="spacingAndGlyphs" textLength="48" x="60" y="2164.106">
    200 OK
  </text>
</svg>
